ISO-10303-21;
HEADER;
/* Generated by software containing ST-Developer
 * from STEP Tools, Inc. (www.steptools.com) 
 */

FILE_DESCRIPTION(
/* description */ (''),
/* implementation_level */ '2;1');

FILE_NAME(
/* name */ 'corner-cap-L.step',
/* time_stamp */ '2026-09-06T15:54:30-07:00',
/* author */ (''),
/* organization */ (''),
/* preprocessor_version */ 'ST-DEVELOPER v20.2',
/* originating_system */ 'Autodesk Translation Framework v15.15.0.0',
/* authorisation */ '');

FILE_SCHEMA (('AUTOMOTIVE_DESIGN { 1 0 10303 214 3 1 1 }'));
ENDSEC;

DATA;
#10=MECHANICAL_DESIGN_GEOMETRIC_PRESENTATION_REPRESENTATION('',(#17),#663);
#11=ITEM_DEFINED_TRANSFORMATION($,$,#277,#293);
#12=(
REPRESENTATION_RELATIONSHIP($,$,#674,#673)
REPRESENTATION_RELATIONSHIP_WITH_TRANSFORMATION(#11)
SHAPE_REPRESENTATION_RELATIONSHIP()
);
#13=CONTEXT_DEPENDENT_SHAPE_REPRESENTATION(#12,#672);
#14=NEXT_ASSEMBLY_USAGE_OCCURRENCE('corner-caps:1','corner-caps:1',
'corner-caps:1',#676,#677,'corner-caps:1');
#15=SHAPE_REPRESENTATION_RELATIONSHIP('SRR','None',#674,#16);
#16=ADVANCED_BREP_SHAPE_REPRESENTATION('',(#18),#662);
#17=STYLED_ITEM('',(#687),#18);
#18=MANIFOLD_SOLID_BREP('Body1',#263);
#19=(
BOUNDED_SURFACE()
B_SPLINE_SURFACE(5,1,((#482,#483),(#484,#485),(#486,#487),(#488,#489),(#490,
#491),(#492,#493),(#494,#495),(#496,#497),(#498,#499),(#500,#501),(#502,
#503),(#504,#505),(#506,#507),(#508,#509),(#510,#511),(#512,#513),(#514,
#515),(#516,#517),(#518,#519),(#520,#521)),.UNSPECIFIED.,.F.,.F.,.F.)
B_SPLINE_SURFACE_WITH_KNOTS((6,5,1,1,1,1,5,6),(2,2),(-1.61946456623779,
-1.,-0.8,-0.6,-0.4,-0.2,0.,0.619464566237792),(14.3445674764726,15.2384325235274),
 .UNSPECIFIED.)
GEOMETRIC_REPRESENTATION_ITEM()
RATIONAL_B_SPLINE_SURFACE(((1.,1.),(1.,1.),(1.,1.),(1.,1.),(1.,1.),(1.,
1.),(1.,1.),(1.,1.),(1.,1.),(1.,1.),(1.,1.),(1.,1.),(1.,1.),(1.,1.),(1.,
1.),(1.,1.),(1.,1.),(1.,1.),(1.,1.),(1.,1.)))
REPRESENTATION_ITEM('')
SURFACE()
);
#20=(
BOUNDED_SURFACE()
B_SPLINE_SURFACE(5,1,((#637,#638),(#639,#640),(#641,#642),(#643,#644),(#645,
#646),(#647,#648),(#649,#650),(#651,#652),(#653,#654),(#655,#656)),
 .UNSPECIFIED.,.F.,.F.,.F.)
B_SPLINE_SURFACE_WITH_KNOTS((6,1,1,1,1,6),(2,2),(-1.,-0.8,-0.6,-0.4,-0.2,
0.),(-1.66516309076072,16.397222432395),.UNSPECIFIED.)
GEOMETRIC_REPRESENTATION_ITEM()
RATIONAL_B_SPLINE_SURFACE(((1.,1.),(1.,1.),(1.,1.),(1.,1.),(1.,1.),(1.,
1.),(1.,1.),(1.,1.),(1.,1.),(1.,1.)))
REPRESENTATION_ITEM('')
SURFACE()
);
#21=(
BOUNDED_CURVE()
B_SPLINE_CURVE(5,(#472,#473,#474,#475,#476,#477,#478,#479,#480,#481),
 .UNSPECIFIED.,.F.,.F.)
B_SPLINE_CURVE_WITH_KNOTS((6,1,1,1,1,6),(0.,0.2,0.4,0.6,0.8,0.969026104761356),
 .UNSPECIFIED.)
CURVE()
GEOMETRIC_REPRESENTATION_ITEM()
RATIONAL_B_SPLINE_CURVE((1.,1.,1.,1.,1.,1.,1.,1.,1.,1.))
REPRESENTATION_ITEM('')
);
#22=CYLINDRICAL_SURFACE('',#282,0.799999999999983);
#23=CYLINDRICAL_SURFACE('',#291,6.);
#24=B_SPLINE_CURVE_WITH_KNOTS('',3,(#379,#380,#381,#382,#383,#384,#385,
#386,#387,#388,#389,#390,#391,#392,#393,#394,#395,#396,#397,#398,#399,#400,
#401,#402,#403,#404,#405,#406,#407,#408,#409,#410,#411,#412,#413,#414,#415,
#416,#417,#418,#419,#420,#421,#422,#423,#424,#425,#426,#427,#428,#429,#430),
 .UNSPECIFIED.,.F.,.F.,(4,3,3,3,3,3,3,3,3,3,3,3,3,3,3,3,3,4),(0.,0.0629661931332585,
0.122618491861489,0.17991611643574,0.236149494606187,0.291827398353756,
0.346981643719418,0.402192544708742,0.458919997407913,0.518761532355965,
0.583809509663406,0.665898944772719,0.727466021104704,0.778375219007536,
0.824581060387603,0.868374155244131,0.90906839779516,0.912167250100658),
 .UNSPECIFIED.);
#25=B_SPLINE_CURVE_WITH_KNOTS('',3,(#435,#436,#437,#438),.UNSPECIFIED.,
 .F.,.F.,(4,4),(0.267083721067661,0.282205214776671),.UNSPECIFIED.);
#26=B_SPLINE_CURVE_WITH_KNOTS('',3,(#450,#451,#452,#453),.UNSPECIFIED.,
 .F.,.F.,(4,4),(0.0500000000000007,0.149999999999999),.UNSPECIFIED.);
#27=B_SPLINE_CURVE_WITH_KNOTS('',3,(#522,#523,#524,#525,#526,#527,#528,
#529,#530,#531,#532,#533,#534,#535,#536,#537,#538,#539,#540,#541,#542,#543,
#544,#545,#546,#547,#548,#549,#550,#551,#552,#553,#554,#555,#556,#557,#558,
#559,#560,#561,#562,#563,#564,#565,#566,#567,#568,#569,#570,#571,#572,#573,
#574,#575,#576,#577,#578,#579,#580,#581,#582,#583,#584,#585),
 .UNSPECIFIED.,.F.,.F.,(4,3,3,3,3,3,3,3,3,3,3,3,3,3,3,3,3,3,3,3,3,4),(0.0527708566560217,
0.0731572295977112,0.094268694009549,0.116290493180662,0.139517100629026,
0.164234822129359,0.190145324963927,0.218624144168185,0.249990909130461,
0.286550406196952,0.356349333566794,0.390011635741312,0.419659273384961,
0.447084289815934,0.473033070660075,0.497840556452325,0.521248395278654,
0.543858183766047,0.564804186767974,0.585184880180879,0.604888988058129,
0.611687549228225),.UNSPECIFIED.);
#28=B_SPLINE_CURVE_WITH_KNOTS('',3,(#588,#589,#590,#591,#592,#593,#594,
#595,#596,#597,#598,#599,#600,#601,#602,#603,#604,#605,#606,#607,#608,#609,
#610,#611,#612),.UNSPECIFIED.,.F.,.F.,(4,3,3,3,3,3,3,3,4),(0.,0.0462052614619695,
0.0948182575747503,0.149125785611755,0.210379798610495,0.28475625753696,
0.375750598321568,0.448003887423859,0.466744939106177),.UNSPECIFIED.);
#29=B_SPLINE_CURVE_WITH_KNOTS('',3,(#616,#617,#618,#619,#620,#621,#622,
#623,#624,#625,#626,#627,#628,#629,#630,#631,#632,#633),.UNSPECIFIED.,.F.,
 .F.,(4,2,2,2,2,2,2,2,4),(0.591506394726277,0.706634725372262,0.971573392584503,
1.20026131221519,1.38666316843391,1.51291098560296,1.54438704129542,1.56169396528817,
1.56912108192985),.UNSPECIFIED.);
#30=FACE_OUTER_BOUND('',#44,.T.);
#31=FACE_OUTER_BOUND('',#45,.T.);
#32=FACE_OUTER_BOUND('',#46,.T.);
#33=FACE_OUTER_BOUND('',#47,.T.);
#34=FACE_OUTER_BOUND('',#48,.T.);
#35=FACE_OUTER_BOUND('',#49,.T.);
#36=FACE_OUTER_BOUND('',#50,.T.);
#37=FACE_OUTER_BOUND('',#51,.T.);
#38=FACE_OUTER_BOUND('',#52,.T.);
#39=FACE_OUTER_BOUND('',#53,.T.);
#40=FACE_OUTER_BOUND('',#54,.T.);
#41=FACE_OUTER_BOUND('',#55,.T.);
#42=FACE_OUTER_BOUND('',#56,.T.);
#43=FACE_OUTER_BOUND('',#57,.T.);
#44=EDGE_LOOP('',(#169,#170,#171,#172,#173,#174,#175,#176,#177));
#45=EDGE_LOOP('',(#178,#179,#180,#181));
#46=EDGE_LOOP('',(#182,#183,#184,#185,#186,#187));
#47=EDGE_LOOP('',(#188,#189,#190,#191,#192,#193));
#48=EDGE_LOOP('',(#194,#195,#196,#197,#198,#199));
#49=EDGE_LOOP('',(#200,#201,#202,#203));
#50=EDGE_LOOP('',(#204,#205,#206,#207));
#51=EDGE_LOOP('',(#208,#209,#210,#211));
#52=EDGE_LOOP('',(#212,#213,#214,#215,#216));
#53=EDGE_LOOP('',(#217,#218,#219,#220));
#54=EDGE_LOOP('',(#221,#222,#223,#224));
#55=EDGE_LOOP('',(#225,#226,#227,#228));
#56=EDGE_LOOP('',(#229,#230,#231,#232));
#57=EDGE_LOOP('',(#233,#234,#235,#236,#237,#238));
#58=CIRCLE('',#279,0.799999999999983);
#59=CIRCLE('',#280,6.);
#60=CIRCLE('',#283,0.799999999999983);
#61=LINE('',#360,#86);
#62=LINE('',#362,#87);
#63=LINE('',#364,#88);
#64=LINE('',#366,#89);
#65=LINE('',#368,#90);
#66=LINE('',#372,#91);
#67=LINE('',#374,#92);
#68=LINE('',#431,#93);
#69=LINE('',#432,#94);
#70=LINE('',#440,#95);
#71=LINE('',#443,#96);
#72=LINE('',#446,#97);
#73=LINE('',#448,#98);
#74=LINE('',#455,#99);
#75=LINE('',#456,#100);
#76=LINE('',#459,#101);
#77=LINE('',#461,#102);
#78=LINE('',#463,#103);
#79=LINE('',#464,#104);
#80=LINE('',#466,#105);
#81=LINE('',#468,#106);
#82=LINE('',#470,#107);
#83=LINE('',#613,#108);
#84=LINE('',#634,#109);
#85=LINE('',#636,#110);
#86=VECTOR('',#300,10.);
#87=VECTOR('',#301,10.);
#88=VECTOR('',#302,10.);
#89=VECTOR('',#303,10.);
#90=VECTOR('',#304,10.);
#91=VECTOR('',#307,10.);
#92=VECTOR('',#308,10.);
#93=VECTOR('',#313,10.);
#94=VECTOR('',#314,10.);
#95=VECTOR('',#317,10.);
#96=VECTOR('',#320,10.);
#97=VECTOR('',#323,10.);
#98=VECTOR('',#324,10.);
#99=VECTOR('',#325,10.);
#100=VECTOR('',#326,10.);
#101=VECTOR('',#329,10.);
#102=VECTOR('',#330,10.);
#103=VECTOR('',#331,10.);
#104=VECTOR('',#332,10.);
#105=VECTOR('',#335,10.);
#106=VECTOR('',#338,10.);
#107=VECTOR('',#341,10.);
#108=VECTOR('',#346,10.);
#109=VECTOR('',#349,10.);
#110=VECTOR('',#352,10.);
#111=VERTEX_POINT('',#358);
#112=VERTEX_POINT('',#359);
#113=VERTEX_POINT('',#361);
#114=VERTEX_POINT('',#363);
#115=VERTEX_POINT('',#365);
#116=VERTEX_POINT('',#367);
#117=VERTEX_POINT('',#369);
#118=VERTEX_POINT('',#371);
#119=VERTEX_POINT('',#373);
#120=VERTEX_POINT('',#377);
#121=VERTEX_POINT('',#378);
#122=VERTEX_POINT('',#434);
#123=VERTEX_POINT('',#439);
#124=VERTEX_POINT('',#441);
#125=VERTEX_POINT('',#445);
#126=VERTEX_POINT('',#447);
#127=VERTEX_POINT('',#449);
#128=VERTEX_POINT('',#454);
#129=VERTEX_POINT('',#458);
#130=VERTEX_POINT('',#460);
#131=VERTEX_POINT('',#462);
#132=VERTEX_POINT('',#587);
#133=VERTEX_POINT('',#615);
#134=EDGE_CURVE('',#111,#112,#61,.T.);
#135=EDGE_CURVE('',#113,#111,#62,.T.);
#136=EDGE_CURVE('',#114,#113,#63,.T.);
#137=EDGE_CURVE('',#115,#114,#64,.T.);
#138=EDGE_CURVE('',#116,#115,#65,.T.);
#139=EDGE_CURVE('',#117,#116,#58,.T.);
#140=EDGE_CURVE('',#118,#117,#66,.T.);
#141=EDGE_CURVE('',#118,#119,#67,.T.);
#142=EDGE_CURVE('',#112,#119,#59,.T.);
#143=EDGE_CURVE('',#120,#121,#24,.T.);
#144=EDGE_CURVE('',#118,#120,#68,.T.);
#145=EDGE_CURVE('',#117,#121,#69,.T.);
#146=EDGE_CURVE('',#121,#122,#25,.T.);
#147=EDGE_CURVE('',#116,#123,#70,.T.);
#148=EDGE_CURVE('',#124,#123,#60,.T.);
#149=EDGE_CURVE('',#124,#122,#71,.T.);
#150=EDGE_CURVE('',#124,#125,#72,.T.);
#151=EDGE_CURVE('',#126,#125,#73,.T.);
#152=EDGE_CURVE('',#126,#127,#26,.T.);
#153=EDGE_CURVE('',#127,#128,#74,.T.);
#154=EDGE_CURVE('',#122,#128,#75,.T.);
#155=EDGE_CURVE('',#129,#125,#76,.T.);
#156=EDGE_CURVE('',#123,#130,#77,.T.);
#157=EDGE_CURVE('',#130,#131,#78,.T.);
#158=EDGE_CURVE('',#131,#129,#79,.T.);
#159=EDGE_CURVE('',#115,#130,#80,.T.);
#160=EDGE_CURVE('',#114,#131,#81,.T.);
#161=EDGE_CURVE('',#113,#129,#82,.T.);
#162=EDGE_CURVE('',#111,#126,#21,.T.);
#163=EDGE_CURVE('',#127,#112,#27,.T.);
#164=EDGE_CURVE('',#128,#132,#28,.T.);
#165=EDGE_CURVE('',#112,#132,#83,.T.);
#166=EDGE_CURVE('',#132,#133,#29,.T.);
#167=EDGE_CURVE('',#119,#133,#84,.T.);
#168=EDGE_CURVE('',#133,#120,#85,.T.);
#169=ORIENTED_EDGE('',*,*,#134,.F.);
#170=ORIENTED_EDGE('',*,*,#135,.F.);
#171=ORIENTED_EDGE('',*,*,#136,.F.);
#172=ORIENTED_EDGE('',*,*,#137,.F.);
#173=ORIENTED_EDGE('',*,*,#138,.F.);
#174=ORIENTED_EDGE('',*,*,#139,.F.);
#175=ORIENTED_EDGE('',*,*,#140,.F.);
#176=ORIENTED_EDGE('',*,*,#141,.T.);
#177=ORIENTED_EDGE('',*,*,#142,.F.);
#178=ORIENTED_EDGE('',*,*,#143,.F.);
#179=ORIENTED_EDGE('',*,*,#144,.F.);
#180=ORIENTED_EDGE('',*,*,#140,.T.);
#181=ORIENTED_EDGE('',*,*,#145,.T.);
#182=ORIENTED_EDGE('',*,*,#146,.F.);
#183=ORIENTED_EDGE('',*,*,#145,.F.);
#184=ORIENTED_EDGE('',*,*,#139,.T.);
#185=ORIENTED_EDGE('',*,*,#147,.T.);
#186=ORIENTED_EDGE('',*,*,#148,.F.);
#187=ORIENTED_EDGE('',*,*,#149,.T.);
#188=ORIENTED_EDGE('',*,*,#150,.T.);
#189=ORIENTED_EDGE('',*,*,#151,.F.);
#190=ORIENTED_EDGE('',*,*,#152,.T.);
#191=ORIENTED_EDGE('',*,*,#153,.T.);
#192=ORIENTED_EDGE('',*,*,#154,.F.);
#193=ORIENTED_EDGE('',*,*,#149,.F.);
#194=ORIENTED_EDGE('',*,*,#155,.T.);
#195=ORIENTED_EDGE('',*,*,#150,.F.);
#196=ORIENTED_EDGE('',*,*,#148,.T.);
#197=ORIENTED_EDGE('',*,*,#156,.T.);
#198=ORIENTED_EDGE('',*,*,#157,.T.);
#199=ORIENTED_EDGE('',*,*,#158,.T.);
#200=ORIENTED_EDGE('',*,*,#138,.T.);
#201=ORIENTED_EDGE('',*,*,#159,.T.);
#202=ORIENTED_EDGE('',*,*,#156,.F.);
#203=ORIENTED_EDGE('',*,*,#147,.F.);
#204=ORIENTED_EDGE('',*,*,#137,.T.);
#205=ORIENTED_EDGE('',*,*,#160,.T.);
#206=ORIENTED_EDGE('',*,*,#157,.F.);
#207=ORIENTED_EDGE('',*,*,#159,.F.);
#208=ORIENTED_EDGE('',*,*,#136,.T.);
#209=ORIENTED_EDGE('',*,*,#161,.T.);
#210=ORIENTED_EDGE('',*,*,#158,.F.);
#211=ORIENTED_EDGE('',*,*,#160,.F.);
#212=ORIENTED_EDGE('',*,*,#162,.T.);
#213=ORIENTED_EDGE('',*,*,#151,.T.);
#214=ORIENTED_EDGE('',*,*,#155,.F.);
#215=ORIENTED_EDGE('',*,*,#161,.F.);
#216=ORIENTED_EDGE('',*,*,#135,.T.);
#217=ORIENTED_EDGE('',*,*,#152,.F.);
#218=ORIENTED_EDGE('',*,*,#162,.F.);
#219=ORIENTED_EDGE('',*,*,#134,.T.);
#220=ORIENTED_EDGE('',*,*,#163,.F.);
#221=ORIENTED_EDGE('',*,*,#164,.F.);
#222=ORIENTED_EDGE('',*,*,#153,.F.);
#223=ORIENTED_EDGE('',*,*,#163,.T.);
#224=ORIENTED_EDGE('',*,*,#165,.T.);
#225=ORIENTED_EDGE('',*,*,#166,.F.);
#226=ORIENTED_EDGE('',*,*,#165,.F.);
#227=ORIENTED_EDGE('',*,*,#142,.T.);
#228=ORIENTED_EDGE('',*,*,#167,.T.);
#229=ORIENTED_EDGE('',*,*,#168,.F.);
#230=ORIENTED_EDGE('',*,*,#167,.F.);
#231=ORIENTED_EDGE('',*,*,#141,.F.);
#232=ORIENTED_EDGE('',*,*,#144,.T.);
#233=ORIENTED_EDGE('',*,*,#143,.T.);
#234=ORIENTED_EDGE('',*,*,#146,.T.);
#235=ORIENTED_EDGE('',*,*,#154,.T.);
#236=ORIENTED_EDGE('',*,*,#164,.T.);
#237=ORIENTED_EDGE('',*,*,#166,.T.);
#238=ORIENTED_EDGE('',*,*,#168,.T.);
#239=PLANE('',#278);
#240=PLANE('',#281);
#241=PLANE('',#284);
#242=PLANE('',#285);
#243=PLANE('',#286);
#244=PLANE('',#287);
#245=PLANE('',#288);
#246=PLANE('',#289);
#247=PLANE('',#290);
#248=PLANE('',#292);
#249=ADVANCED_FACE('',(#30),#239,.F.);
#250=ADVANCED_FACE('',(#31),#240,.T.);
#251=ADVANCED_FACE('',(#32),#22,.T.);
#252=ADVANCED_FACE('',(#33),#241,.T.);
#253=ADVANCED_FACE('',(#34),#242,.T.);
#254=ADVANCED_FACE('',(#35),#243,.T.);
#255=ADVANCED_FACE('',(#36),#244,.T.);
#256=ADVANCED_FACE('',(#37),#245,.T.);
#257=ADVANCED_FACE('',(#38),#246,.T.);
#258=ADVANCED_FACE('',(#39),#19,.T.);
#259=ADVANCED_FACE('',(#40),#247,.T.);
#260=ADVANCED_FACE('',(#41),#23,.T.);
#261=ADVANCED_FACE('',(#42),#248,.T.);
#262=ADVANCED_FACE('',(#43),#20,.T.);
#263=CLOSED_SHELL('',(#249,#250,#251,#252,#253,#254,#255,#256,#257,#258,
#259,#260,#261,#262));
#264=DERIVED_UNIT_ELEMENT(#266,1.);
#265=DERIVED_UNIT_ELEMENT(#665,-3.);
#266=(
MASS_UNIT()
NAMED_UNIT(*)
SI_UNIT(.KILO.,.GRAM.)
);
#267=DERIVED_UNIT((#264,#265));
#268=MEASURE_REPRESENTATION_ITEM('density measure',
POSITIVE_RATIO_MEASURE(7850.),#267);
#269=PROPERTY_DEFINITION_REPRESENTATION(#274,#271);
#270=PROPERTY_DEFINITION_REPRESENTATION(#275,#272);
#271=REPRESENTATION('material name',(#273),#662);
#272=REPRESENTATION('density',(#268),#662);
#273=DESCRIPTIVE_REPRESENTATION_ITEM('Steel','Steel');
#274=PROPERTY_DEFINITION('material property','material name',#677);
#275=PROPERTY_DEFINITION('material property','density of part',#677);
#276=AXIS2_PLACEMENT_3D('',#355,#294,#295);
#277=AXIS2_PLACEMENT_3D('',#356,#296,#297);
#278=AXIS2_PLACEMENT_3D('',#357,#298,#299);
#279=AXIS2_PLACEMENT_3D('',#370,#305,#306);
#280=AXIS2_PLACEMENT_3D('',#375,#309,#310);
#281=AXIS2_PLACEMENT_3D('',#376,#311,#312);
#282=AXIS2_PLACEMENT_3D('',#433,#315,#316);
#283=AXIS2_PLACEMENT_3D('',#442,#318,#319);
#284=AXIS2_PLACEMENT_3D('',#444,#321,#322);
#285=AXIS2_PLACEMENT_3D('',#457,#327,#328);
#286=AXIS2_PLACEMENT_3D('',#465,#333,#334);
#287=AXIS2_PLACEMENT_3D('',#467,#336,#337);
#288=AXIS2_PLACEMENT_3D('',#469,#339,#340);
#289=AXIS2_PLACEMENT_3D('',#471,#342,#343);
#290=AXIS2_PLACEMENT_3D('',#586,#344,#345);
#291=AXIS2_PLACEMENT_3D('',#614,#347,#348);
#292=AXIS2_PLACEMENT_3D('',#635,#350,#351);
#293=AXIS2_PLACEMENT_3D('',#657,#353,#354);
#294=DIRECTION('axis',(0.,0.,1.));
#295=DIRECTION('refdir',(1.,0.,0.));
#296=DIRECTION('axis',(0.,0.,1.));
#297=DIRECTION('refdir',(1.,0.,0.));
#298=DIRECTION('center_axis',(0.,0.,1.));
#299=DIRECTION('ref_axis',(-1.,0.,0.));
#300=DIRECTION('',(1.,0.,0.));
#301=DIRECTION('',(-1.58603289232164E-14,1.,0.));
#302=DIRECTION('',(1.,1.56031344001372E-14,0.));
#303=DIRECTION('',(0.,-1.,0.));
#304=DIRECTION('',(1.,0.,0.));
#305=DIRECTION('center_axis',(0.,0.,1.));
#306=DIRECTION('ref_axis',(-1.,1.11022302462518E-14,0.));
#307=DIRECTION('',(0.,-1.,0.));
#308=DIRECTION('',(1.,-6.57909940518611E-16,0.));
#309=DIRECTION('center_axis',(0.,0.,1.));
#310=DIRECTION('ref_axis',(1.,7.40148683083438E-16,0.));
#311=DIRECTION('center_axis',(-1.,0.,0.));
#312=DIRECTION('ref_axis',(0.,-1.,0.));
#313=DIRECTION('',(0.,0.,1.));
#314=DIRECTION('',(0.,0.,1.));
#315=DIRECTION('center_axis',(0.,0.,1.));
#316=DIRECTION('ref_axis',(-1.,1.11022302462518E-14,0.));
#317=DIRECTION('',(0.,0.,1.));
#318=DIRECTION('center_axis',(0.,0.,1.));
#319=DIRECTION('ref_axis',(-1.,1.11022302462518E-14,0.));
#320=DIRECTION('',(0.,0.,1.));
#321=DIRECTION('center_axis',(0.,-1.,0.));
#322=DIRECTION('ref_axis',(1.,0.,0.));
#323=DIRECTION('',(1.,0.,0.));
#324=DIRECTION('',(0.,0.,1.));
#325=DIRECTION('',(0.,0.,1.));
#326=DIRECTION('',(1.,0.,0.));
#327=DIRECTION('center_axis',(0.,0.,1.));
#328=DIRECTION('ref_axis',(-1.,0.,0.));
#329=DIRECTION('',(-1.58603289232164E-14,1.,0.));
#330=DIRECTION('',(1.,0.,0.));
#331=DIRECTION('',(0.,-1.,0.));
#332=DIRECTION('',(1.,1.56031344001372E-14,0.));
#333=DIRECTION('center_axis',(0.,-1.,0.));
#334=DIRECTION('ref_axis',(1.,0.,0.));
#335=DIRECTION('',(0.,0.,1.));
#336=DIRECTION('center_axis',(-1.,0.,0.));
#337=DIRECTION('ref_axis',(0.,-1.,0.));
#338=DIRECTION('',(0.,0.,1.));
#339=DIRECTION('center_axis',(1.56031344001372E-14,-1.,0.));
#340=DIRECTION('ref_axis',(1.,1.56031344001372E-14,0.));
#341=DIRECTION('',(0.,0.,1.));
#342=DIRECTION('center_axis',(1.,1.58603289232164E-14,0.));
#343=DIRECTION('ref_axis',(-1.58603289232164E-14,1.,0.));
#344=DIRECTION('center_axis',(1.,0.,0.));
#345=DIRECTION('ref_axis',(0.,1.,0.));
#346=DIRECTION('',(0.,0.,1.));
#347=DIRECTION('center_axis',(0.,0.,1.));
#348=DIRECTION('ref_axis',(1.,7.40148683083438E-16,0.));
#349=DIRECTION('',(0.,0.,1.));
#350=DIRECTION('center_axis',(6.57909940518611E-16,1.,0.));
#351=DIRECTION('ref_axis',(-1.,6.57909940518611E-16,0.));
#352=DIRECTION('',(-1.,0.,0.));
#353=DIRECTION('',(0.,0.,1.));
#354=DIRECTION('',(1.,0.,0.));
#355=CARTESIAN_POINT('',(0.,0.,0.));
#356=CARTESIAN_POINT('',(0.,0.,0.));
#357=CARTESIAN_POINT('Origin',(138.665,-5.47499999999999,0.));
#358=CARTESIAN_POINT('',(147.315,-6.,0.));
#359=CARTESIAN_POINT('',(148.315,-6.,0.));
#360=CARTESIAN_POINT('',(147.315,-6.,0.));
#361=CARTESIAN_POINT('',(147.315,-15.5999999999999,0.));
#362=CARTESIAN_POINT('',(147.315,-11.6,0.));
#363=CARTESIAN_POINT('',(136.215,-15.6,0.));
#364=CARTESIAN_POINT('',(136.215,-15.6,0.));
#365=CARTESIAN_POINT('',(136.215,-11.6,0.));
#366=CARTESIAN_POINT('',(136.215,-11.6,0.));
#367=CARTESIAN_POINT('',(129.815,-11.6,0.));
#368=CARTESIAN_POINT('',(129.815,-11.6,0.));
#369=CARTESIAN_POINT('',(129.015,-10.8,0.));
#370=CARTESIAN_POINT('Origin',(129.815,-10.8000000000001,0.));
#371=CARTESIAN_POINT('',(129.015,-1.31581988103719E-16,0.));
#372=CARTESIAN_POINT('',(129.015,-1.31581988103715E-16,0.));
#373=CARTESIAN_POINT('',(142.315,-8.88178419700125E-15,0.));
#374=CARTESIAN_POINT('',(128.815,0.,0.));
#375=CARTESIAN_POINT('Origin',(142.315,-6.00000000000001,0.));
#376=CARTESIAN_POINT('Origin',(129.015,-1.31581988103719E-16,0.));
#377=CARTESIAN_POINT('',(129.015,0.,0.8));
#378=CARTESIAN_POINT('',(129.015,-10.8,3.99922255143752));
#379=CARTESIAN_POINT('Ctrl Pts',(129.015,0.,0.8));
#380=CARTESIAN_POINT('Ctrl Pts',(129.015,-0.240051609101126,0.912989353842573));
#381=CARTESIAN_POINT('Ctrl Pts',(129.015,-0.480445174911694,1.02438590171658));
#382=CARTESIAN_POINT('Ctrl Pts',(129.015,-0.7211851681908,1.13416881919723));
#383=CARTESIAN_POINT('Ctrl Pts',(129.015,-0.949255078095075,1.23817389021929));
#384=CARTESIAN_POINT('Ctrl Pts',(129.015,-1.17763584019792,1.34073103750259));
#385=CARTESIAN_POINT('Ctrl Pts',(129.015,-1.40634049860074,1.44177950270555));
#386=CARTESIAN_POINT('Ctrl Pts',(129.015,-1.62601742530641,1.53883924971349));
#387=CARTESIAN_POINT('Ctrl Pts',(129.015,-1.8459931242442,1.63450734046372));
#388=CARTESIAN_POINT('Ctrl Pts',(129.015,-2.06628884421965,1.72868479978381));
#389=CARTESIAN_POINT('Ctrl Pts',(129.015,-2.28249279024287,1.82111300644037));
#390=CARTESIAN_POINT('Ctrl Pts',(129.015,-2.49900493258651,1.91210566021817));
#391=CARTESIAN_POINT('Ctrl Pts',(129.015,-2.71585578274747,2.00152064109726));
#392=CARTESIAN_POINT('Ctrl Pts',(129.015,-2.93056457591732,2.09005237902498));
#393=CARTESIAN_POINT('Ctrl Pts',(129.015,-3.14560540571145,2.17703751791736));
#394=CARTESIAN_POINT('Ctrl Pts',(129.015,-3.36101854070601,2.26228849008928));
#395=CARTESIAN_POINT('Ctrl Pts',(129.015,-3.57440568538628,2.34673766508244));
#396=CARTESIAN_POINT('Ctrl Pts',(129.015,-3.78815815295191,2.42948519639908));
#397=CARTESIAN_POINT('Ctrl Pts',(129.015,-4.00232577628094,2.51029896662974));
#398=CARTESIAN_POINT('Ctrl Pts',(129.015,-4.21671339718562,2.59119575049828));
#399=CARTESIAN_POINT('Ctrl Pts',(129.015,-4.43151700764051,2.6701548895711));
#400=CARTESIAN_POINT('Ctrl Pts',(129.015,-4.64679766452738,2.74689198596092));
#401=CARTESIAN_POINT('Ctrl Pts',(129.015,-4.86799172334119,2.82573692287957));
#402=CARTESIAN_POINT('Ctrl Pts',(129.015,-5.08968943365956,2.90223589289545));
#403=CARTESIAN_POINT('Ctrl Pts',(129.015,-5.31196859838601,2.97602649654202));
#404=CARTESIAN_POINT('Ctrl Pts',(129.015,-5.5464498904465,3.05386787275136));
#405=CARTESIAN_POINT('Ctrl Pts',(129.015,-5.78157823639076,3.12869532567865));
#406=CARTESIAN_POINT('Ctrl Pts',(129.015,-6.01745737283487,3.20002565877685));
#407=CARTESIAN_POINT('Ctrl Pts',(129.015,-6.27385889609184,3.27756200360375));
#408=CARTESIAN_POINT('Ctrl Pts',(129.015,-6.53114753152095,3.35096625356739));
#409=CARTESIAN_POINT('Ctrl Pts',(129.015,-6.78947096063107,3.41955052045776));
#410=CARTESIAN_POINT('Ctrl Pts',(129.015,-7.1154707111064,3.50610269255386));
#411=CARTESIAN_POINT('Ctrl Pts',(129.015,-7.44311942212252,3.58497414332265));
#412=CARTESIAN_POINT('Ctrl Pts',(129.015,-7.77273173864818,3.6546992826168));
#413=CARTESIAN_POINT('Ctrl Pts',(129.015,-8.01994097604243,3.70699313708741));
#414=CARTESIAN_POINT('Ctrl Pts',(129.015,-8.26825540924489,3.75413908121994));
#415=CARTESIAN_POINT('Ctrl Pts',(129.015,-8.51780437596488,3.7955346707001));
#416=CARTESIAN_POINT('Ctrl Pts',(129.015,-8.72415391357636,3.82976426844462));
#417=CARTESIAN_POINT('Ctrl Pts',(129.015,-8.93134769497843,3.86006144868888));
#418=CARTESIAN_POINT('Ctrl Pts',(129.015,-9.13945272952558,3.88611408742184));
#419=CARTESIAN_POINT('Ctrl Pts',(129.015,-9.32833152967937,3.90975979669279));
#420=CARTESIAN_POINT('Ctrl Pts',(129.015,-9.51796117650863,3.92990812447337));
#421=CARTESIAN_POINT('Ctrl Pts',(129.015,-9.70838365225903,3.94636352094797));
#422=CARTESIAN_POINT('Ctrl Pts',(129.015,-9.88886277122491,3.96195966024963));
#423=CARTESIAN_POINT('Ctrl Pts',(129.015,-10.0700542263062,3.97423779705302));
#424=CARTESIAN_POINT('Ctrl Pts',(129.015,-10.2519837664388,3.98307799495243));
#425=CARTESIAN_POINT('Ctrl Pts',(129.015,-10.4210397524934,3.99129264976723));
#426=CARTESIAN_POINT('Ctrl Pts',(129.015,-10.5907331048913,3.99653850505925));
#427=CARTESIAN_POINT('Ctrl Pts',(129.015,-10.7610744420825,3.99876610097012));
#428=CARTESIAN_POINT('Ctrl Pts',(129.015,-10.7740458751989,3.99893573161788));
#429=CARTESIAN_POINT('Ctrl Pts',(129.015,-10.7870210605082,3.99908788486304));
#430=CARTESIAN_POINT('Ctrl Pts',(129.015,-10.8,3.99922255143752));
#431=CARTESIAN_POINT('',(129.015,-1.31581988103719E-16,0.));
#432=CARTESIAN_POINT('',(129.015,-10.8,0.));
#433=CARTESIAN_POINT('Origin',(129.815,-10.8000000000001,0.));
#434=CARTESIAN_POINT('',(129.029188317725,-10.95,4.));
#435=CARTESIAN_POINT('Ctrl Pts',(129.015,-10.8,3.99922255143752));
#436=CARTESIAN_POINT('Ctrl Pts',(129.014999952701,-10.8502652896584,3.99974409284527));
#437=CARTESIAN_POINT('Ctrl Pts',(129.01973742018,-10.9004891620055,4.));
#438=CARTESIAN_POINT('Ctrl Pts',(129.029188317725,-10.95,4.));
#439=CARTESIAN_POINT('',(129.815,-11.6,3.));
#440=CARTESIAN_POINT('',(129.815,-11.6,0.));
#441=CARTESIAN_POINT('',(129.029188317725,-10.95,3.));
#442=CARTESIAN_POINT('Origin',(129.815,-10.8000000000001,3.));
#443=CARTESIAN_POINT('',(129.029188317725,-10.95,0.));
#444=CARTESIAN_POINT('Origin',(129.029188317725,-10.95,0.));
#445=CARTESIAN_POINT('',(147.315,-10.95,3.));
#446=CARTESIAN_POINT('',(133.617250476738,-10.95,3.));
#447=CARTESIAN_POINT('',(147.315,-10.95,2.99266301031198));
#448=CARTESIAN_POINT('',(147.315,-10.95,0.));
#449=CARTESIAN_POINT('',(148.315,-10.95,2.99266301031198));
#450=CARTESIAN_POINT('Ctrl Pts',(147.315,-10.95,2.99266301031198));
#451=CARTESIAN_POINT('Ctrl Pts',(147.648333333333,-10.95,2.99266301031198));
#452=CARTESIAN_POINT('Ctrl Pts',(147.981666666667,-10.95,2.99266301031198));
#453=CARTESIAN_POINT('Ctrl Pts',(148.315,-10.95,2.99266301031198));
#454=CARTESIAN_POINT('',(148.315,-10.95,4.));
#455=CARTESIAN_POINT('',(148.315,-10.95,0.));
#456=CARTESIAN_POINT('',(148.315,-10.95,4.));
#457=CARTESIAN_POINT('Origin',(138.205312635752,-11.375,3.));
#458=CARTESIAN_POINT('',(147.315,-15.5999999999999,3.));
#459=CARTESIAN_POINT('',(147.315,-11.6,3.));
#460=CARTESIAN_POINT('',(136.215,-11.6,3.));
#461=CARTESIAN_POINT('',(129.815,-11.6,3.));
#462=CARTESIAN_POINT('',(136.215,-15.6,3.));
#463=CARTESIAN_POINT('',(136.215,-11.6,3.));
#464=CARTESIAN_POINT('',(136.215,-15.6,3.));
#465=CARTESIAN_POINT('Origin',(129.815,-11.6,0.));
#466=CARTESIAN_POINT('',(136.215,-11.6,0.));
#467=CARTESIAN_POINT('Origin',(136.215,-11.6,0.));
#468=CARTESIAN_POINT('',(136.215,-15.6,0.));
#469=CARTESIAN_POINT('Origin',(136.215,-15.6,0.));
#470=CARTESIAN_POINT('',(147.315,-15.5999999999999,0.));
#471=CARTESIAN_POINT('Origin',(147.315,-10.95,0.));
#472=CARTESIAN_POINT('Ctrl Pts',(147.315,-6.,0.));
#473=CARTESIAN_POINT('Ctrl Pts',(147.315,-6.26276403572124,0.));
#474=CARTESIAN_POINT('Ctrl Pts',(147.315,-6.75931365704411,0.0612608665005283));
#475=CARTESIAN_POINT('Ctrl Pts',(147.315,-7.41729275581934,0.336744468184751));
#476=CARTESIAN_POINT('Ctrl Pts',(147.315,-8.15509053224282,0.998977226968472));
#477=CARTESIAN_POINT('Ctrl Pts',(147.315,-8.96889700402904,1.9699855192634));
#478=CARTESIAN_POINT('Ctrl Pts',(147.315,-9.67567491688036,2.61176674063383));
#479=CARTESIAN_POINT('Ctrl Pts',(147.315,-10.2896126806065,2.89432638565858));
#480=CARTESIAN_POINT('Ctrl Pts',(147.315,-10.7354966796207,2.97666713544954));
#481=CARTESIAN_POINT('Ctrl Pts',(147.315,-10.95,2.99266301031198));
#482=CARTESIAN_POINT('Ctrl Pts',(143.445674764726,-15.2193252352737,3.));
#483=CARTESIAN_POINT('Ctrl Pts',(152.384325235274,-15.2193252352737,3.));
#484=CARTESIAN_POINT('Ctrl Pts',(143.445674764726,-14.4054601882189,3.));
#485=CARTESIAN_POINT('Ctrl Pts',(152.384325235274,-14.4054601882189,3.));
#486=CARTESIAN_POINT('Ctrl Pts',(143.445674764726,-13.5915951411642,3.));
#487=CARTESIAN_POINT('Ctrl Pts',(152.384325235274,-13.5915951411642,3.));
#488=CARTESIAN_POINT('Ctrl Pts',(143.445674764726,-12.7777300941095,3.));
#489=CARTESIAN_POINT('Ctrl Pts',(152.384325235274,-12.7777300941095,3.));
#490=CARTESIAN_POINT('Ctrl Pts',(143.445674764726,-11.9638650470547,3.));
#491=CARTESIAN_POINT('Ctrl Pts',(152.384325235274,-11.9638650470547,3.));
#492=CARTESIAN_POINT('Ctrl Pts',(143.445674764726,-11.15,3.));
#493=CARTESIAN_POINT('Ctrl Pts',(152.384325235274,-11.15,3.));
#494=CARTESIAN_POINT('Ctrl Pts',(143.445674764726,-10.8872359642788,3.));
#495=CARTESIAN_POINT('Ctrl Pts',(152.384325235274,-10.8872359642788,3.));
#496=CARTESIAN_POINT('Ctrl Pts',(143.445674764726,-10.3906863429559,2.93873913349947));
#497=CARTESIAN_POINT('Ctrl Pts',(152.384325235274,-10.3906863429559,2.93873913349947));
#498=CARTESIAN_POINT('Ctrl Pts',(143.445674764726,-9.73270724418062,2.66325553181524));
#499=CARTESIAN_POINT('Ctrl Pts',(152.384325235274,-9.73270724418062,2.66325553181524));
#500=CARTESIAN_POINT('Ctrl Pts',(143.445674764726,-8.99490946775709,2.0010227730315));
#501=CARTESIAN_POINT('Ctrl Pts',(152.384325235274,-8.99490946775709,2.0010227730315));
#502=CARTESIAN_POINT('Ctrl Pts',(143.445674764726,-8.15509053224282,0.998977226968472));
#503=CARTESIAN_POINT('Ctrl Pts',(152.384325235274,-8.15509053224282,0.998977226968472));
#504=CARTESIAN_POINT('Ctrl Pts',(143.445674764726,-7.41729275581934,0.336744468184751));
#505=CARTESIAN_POINT('Ctrl Pts',(152.384325235274,-7.41729275581934,0.336744468184751));
#506=CARTESIAN_POINT('Ctrl Pts',(143.445674764726,-6.75931365704411,0.0612608665005283));
#507=CARTESIAN_POINT('Ctrl Pts',(152.384325235274,-6.75931365704411,0.0612608665005283));
#508=CARTESIAN_POINT('Ctrl Pts',(143.445674764726,-6.26276403572124,0.));
#509=CARTESIAN_POINT('Ctrl Pts',(152.384325235274,-6.26276403572124,0.));
#510=CARTESIAN_POINT('Ctrl Pts',(143.445674764726,-6.,0.));
#511=CARTESIAN_POINT('Ctrl Pts',(152.384325235274,-6.,0.));
#512=CARTESIAN_POINT('Ctrl Pts',(143.445674764726,-5.18613495294527,0.));
#513=CARTESIAN_POINT('Ctrl Pts',(152.384325235274,-5.18613495294527,0.));
#514=CARTESIAN_POINT('Ctrl Pts',(143.445674764726,-4.37226990589054,0.));
#515=CARTESIAN_POINT('Ctrl Pts',(152.384325235274,-4.37226990589054,0.));
#516=CARTESIAN_POINT('Ctrl Pts',(143.445674764726,-3.55840485883581,0.));
#517=CARTESIAN_POINT('Ctrl Pts',(152.384325235274,-3.55840485883581,0.));
#518=CARTESIAN_POINT('Ctrl Pts',(143.445674764726,-2.74453981178107,0.));
#519=CARTESIAN_POINT('Ctrl Pts',(152.384325235274,-2.74453981178107,0.));
#520=CARTESIAN_POINT('Ctrl Pts',(143.445674764726,-1.93067476472634,0.));
#521=CARTESIAN_POINT('Ctrl Pts',(152.384325235274,-1.93067476472634,0.));
#522=CARTESIAN_POINT('Ctrl Pts',(148.315,-10.95,2.99266301031198));
#523=CARTESIAN_POINT('Ctrl Pts',(148.315,-10.8752420563676,2.98708818420112));
#524=CARTESIAN_POINT('Ctrl Pts',(148.315,-10.801983553157,2.97834351915392));
#525=CARTESIAN_POINT('Ctrl Pts',(148.315,-10.7301887411037,2.96650458963742));
#526=CARTESIAN_POINT('Ctrl Pts',(148.315,-10.6558403700641,2.95424457948864));
#527=CARTESIAN_POINT('Ctrl Pts',(148.315,-10.5830615763217,2.93866646002537));
#528=CARTESIAN_POINT('Ctrl Pts',(148.315,-10.5117879863647,2.91990631779083));
#529=CARTESIAN_POINT('Ctrl Pts',(148.315,-10.4374410508032,2.90033723074641));
#530=CARTESIAN_POINT('Ctrl Pts',(148.315,-10.3647318231525,2.87730600527577));
#531=CARTESIAN_POINT('Ctrl Pts',(148.315,-10.2935622871954,2.85101984909243));
#532=CARTESIAN_POINT('Ctrl Pts',(148.315,-10.2184990800019,2.82329558250309));
#533=CARTESIAN_POINT('Ctrl Pts',(148.315,-10.1451485097432,2.79195077643714));
#534=CARTESIAN_POINT('Ctrl Pts',(148.315,-10.0733702102918,2.75728216693691));
#535=CARTESIAN_POINT('Ctrl Pts',(148.315,-9.99698384953926,2.72038788367426));
#536=CARTESIAN_POINT('Ctrl Pts',(148.315,-9.92237791270644,2.67972975825964));
#537=CARTESIAN_POINT('Ctrl Pts',(148.315,-9.84935794707397,2.63571886657984));
#538=CARTESIAN_POINT('Ctrl Pts',(148.315,-9.77281432121934,2.58958418003091));
#539=CARTESIAN_POINT('Ctrl Pts',(148.315,-9.69801330592049,2.53976558933326));
#540=CARTESIAN_POINT('Ctrl Pts',(148.315,-9.62470666478139,2.48678786985112));
#541=CARTESIAN_POINT('Ctrl Pts',(148.315,-9.54413367888447,2.42855886115072));
#542=CARTESIAN_POINT('Ctrl Pts',(148.315,-9.46536597811996,2.36651345333181));
#543=CARTESIAN_POINT('Ctrl Pts',(148.315,-9.38804612976789,2.30140726438126));
#544=CARTESIAN_POINT('Ctrl Pts',(148.315,-9.30288552346663,2.22969886552685));
#545=CARTESIAN_POINT('Ctrl Pts',(148.315,-9.21948105054467,2.15427797507739));
#546=CARTESIAN_POINT('Ctrl Pts',(148.315,-9.13732497428313,2.07621795586717));
#547=CARTESIAN_POINT('Ctrl Pts',(148.315,-9.04156805345655,1.98523518965719));
#548=CARTESIAN_POINT('Ctrl Pts',(148.315,-8.94750649938606,1.89066839338054));
#549=CARTESIAN_POINT('Ctrl Pts',(148.315,-8.85430356339691,1.7942864659482));
#550=CARTESIAN_POINT('Ctrl Pts',(148.315,-8.67636170199955,1.61027531447146));
#551=CARTESIAN_POINT('Ctrl Pts',(148.315,-8.5015469075005,1.41965349793138));
#552=CARTESIAN_POINT('Ctrl Pts',(148.315,-8.32391902829827,1.2349785835115));
#553=CARTESIAN_POINT('Ctrl Pts',(148.315,-8.23825348056511,1.14591442439749));
#554=CARTESIAN_POINT('Ctrl Pts',(148.315,-8.15193300563337,1.05823479094011));
#555=CARTESIAN_POINT('Ctrl Pts',(148.315,-8.06430185707467,0.973325940659746));
#556=CARTESIAN_POINT('Ctrl Pts',(148.315,-7.98712185538328,0.898543567998475));
#557=CARTESIAN_POINT('Ctrl Pts',(148.315,-7.90892480353278,0.825911254217662));
#558=CARTESIAN_POINT('Ctrl Pts',(148.315,-7.829277050168,0.756345744611406));
#559=CARTESIAN_POINT('Ctrl Pts',(148.315,-7.75560032182377,0.691995415357119));
#560=CARTESIAN_POINT('Ctrl Pts',(148.315,-7.68068201038282,0.630269810890497));
#561=CARTESIAN_POINT('Ctrl Pts',(148.315,-7.60419615210529,0.571858023315158));
#562=CARTESIAN_POINT('Ctrl Pts',(148.315,-7.53182737963381,0.516590429280276));
#563=CARTESIAN_POINT('Ctrl Pts',(148.315,-7.4580551069672,0.464289855142346));
#564=CARTESIAN_POINT('Ctrl Pts',(148.315,-7.3826221637266,0.415499962835728));
#565=CARTESIAN_POINT('Ctrl Pts',(148.315,-7.31050695804705,0.36885597722917));
#566=CARTESIAN_POINT('Ctrl Pts',(148.315,-7.23687382987951,0.325420901916699));
#567=CARTESIAN_POINT('Ctrl Pts',(148.315,-7.16151791262122,0.28562782788659));
#568=CARTESIAN_POINT('Ctrl Pts',(148.315,-7.09041360239147,0.248079892916414));
#569=CARTESIAN_POINT('Ctrl Pts',(148.315,-7.01777527920468,0.213774883726732));
#570=CARTESIAN_POINT('Ctrl Pts',(148.315,-6.94345035487882,0.183035373961406));
#571=CARTESIAN_POINT('Ctrl Pts',(148.315,-6.87165941207469,0.153343875350333));
#572=CARTESIAN_POINT('Ctrl Pts',(148.315,-6.79829468545274,0.126979378699905));
#573=CARTESIAN_POINT('Ctrl Pts',(148.315,-6.72324043878633,0.104186552082436));
#574=CARTESIAN_POINT('Ctrl Pts',(148.315,-6.65370920558357,0.0830709801690531));
#575=CARTESIAN_POINT('Ctrl Pts',(148.315,-6.5827279666231,0.0650207415906802));
#576=CARTESIAN_POINT('Ctrl Pts',(148.315,-6.51022489899322,0.0501876710308988));
#577=CARTESIAN_POINT('Ctrl Pts',(148.315,-6.43967860943507,0.0357549287352407));
#578=CARTESIAN_POINT('Ctrl Pts',(148.315,-6.36769141566674,0.0243682789702829));
#579=CARTESIAN_POINT('Ctrl Pts',(148.315,-6.29421798084971,0.0161235644743303));
#580=CARTESIAN_POINT('Ctrl Pts',(148.315,-6.2231836712501,0.00815255286279622));
#581=CARTESIAN_POINT('Ctrl Pts',(148.315,-6.1507601033075,0.00311845366491788));
#582=CARTESIAN_POINT('Ctrl Pts',(148.315,-6.07692722157383,0.00106366439065586));
#583=CARTESIAN_POINT('Ctrl Pts',(148.315,-6.05145246443396,0.000354694938207021));
#584=CARTESIAN_POINT('Ctrl Pts',(148.315,-6.02581012353424,5.00585417564717E-17));
#585=CARTESIAN_POINT('Ctrl Pts',(148.315,-6.,5.55111512312578E-17));
#586=CARTESIAN_POINT('Origin',(148.315,-10.95,0.));
#587=CARTESIAN_POINT('',(148.315,-6.,3.19473971220315));
#588=CARTESIAN_POINT('Ctrl Pts',(148.315,-10.95,4.));
#589=CARTESIAN_POINT('Ctrl Pts',(148.315,-10.7809540636186,4.));
#590=CARTESIAN_POINT('Ctrl Pts',(148.315,-10.6125437508199,3.99703931811174));
#591=CARTESIAN_POINT('Ctrl Pts',(148.315,-10.4447628618131,3.99114683244593));
#592=CARTESIAN_POINT('Ctrl Pts',(148.315,-10.2682389888382,3.984947292097));
#593=CARTESIAN_POINT('Ctrl Pts',(148.315,-10.0924117754766,3.97550276909585));
#594=CARTESIAN_POINT('Ctrl Pts',(148.315,-9.91726191156692,3.96290320857047));
#595=CARTESIAN_POINT('Ctrl Pts',(148.315,-9.72159497256808,3.94882773408422));
#596=CARTESIAN_POINT('Ctrl Pts',(148.315,-9.52677334095078,3.93081488797938));
#597=CARTESIAN_POINT('Ctrl Pts',(148.315,-9.33275596482161,3.90905588656801));
#598=CARTESIAN_POINT('Ctrl Pts',(148.315,-9.11392179377814,3.88451368765989));
#599=CARTESIAN_POINT('Ctrl Pts',(148.315,-8.89611058025003,3.85520663755575));
#600=CARTESIAN_POINT('Ctrl Pts',(148.315,-8.67924805349917,3.82148068318882));
#601=CARTESIAN_POINT('Ctrl Pts',(148.315,-8.41592707216351,3.78052961832096));
#602=CARTESIAN_POINT('Ctrl Pts',(148.315,-8.1540044412376,3.73306515331443));
#603=CARTESIAN_POINT('Ctrl Pts',(148.315,-7.89333109208667,3.67978163749645));
#604=CARTESIAN_POINT('Ctrl Pts',(148.315,-7.57441567303511,3.61459302181717));
#605=CARTESIAN_POINT('Ctrl Pts',(148.315,-7.25736905758632,3.54069967407595));
#606=CARTESIAN_POINT('Ctrl Pts',(148.315,-6.94190708560643,3.45942518858969));
#607=CARTESIAN_POINT('Ctrl Pts',(148.315,-6.69141716650041,3.39488986863635));
#608=CARTESIAN_POINT('Ctrl Pts',(148.315,-6.441925756028,3.32570357834871));
#609=CARTESIAN_POINT('Ctrl Pts',(148.315,-6.19329643494138,3.25250174725964));
#610=CARTESIAN_POINT('Ctrl Pts',(148.315,-6.1288069838158,3.23351466284141));
#611=CARTESIAN_POINT('Ctrl Pts',(148.315,-6.06437558901276,3.21425715689178));
#612=CARTESIAN_POINT('Ctrl Pts',(148.315,-6.,3.19473971220315));
#613=CARTESIAN_POINT('',(148.315,-6.,0.));
#614=CARTESIAN_POINT('Origin',(142.315,-6.00000000000001,0.));
#615=CARTESIAN_POINT('',(142.315,-8.88178419700125E-15,0.800000000000004));
#616=CARTESIAN_POINT('Ctrl Pts',(148.315,-6.,3.19473971220315));
#617=CARTESIAN_POINT('Ctrl Pts',(148.315,-5.63322486337866,3.08354052083339));
#618=CARTESIAN_POINT('Ctrl Pts',(148.28137385112,-5.26881892679665,2.96404102939645));
#619=CARTESIAN_POINT('Ctrl Pts',(148.063523233449,-4.08824610654685,2.5542676672038));
#620=CARTESIAN_POINT('Ctrl Pts',(147.741247918346,-3.30620038158502,2.24650480066805));
#621=CARTESIAN_POINT('Ctrl Pts',(146.861358010711,-2.01845321203708,1.71237698017056));
#622=CARTESIAN_POINT('Ctrl Pts',(146.34457967671,-1.49343149012764,1.48203340475131));
#623=CARTESIAN_POINT('Ctrl Pts',(145.242260498432,-0.727966059489088,1.138477369765));
#624=CARTESIAN_POINT('Ctrl Pts',(144.692936611649,-0.457007898714588,1.01332941692807));
#625=CARTESIAN_POINT('Ctrl Pts',(143.706927278904,-0.148799186584559,0.869970187855123));
#626=CARTESIAN_POINT('Ctrl Pts',(143.29530169014,-0.065692600588328,0.830892584162974));
#627=CARTESIAN_POINT('Ctrl Pts',(142.772008323806,-0.0165105922582902,0.807769541266162));
#628=CARTESIAN_POINT('Ctrl Pts',(142.667300041366,-0.00943208727244328,
0.80443885395231));
#629=CARTESIAN_POINT('Ctrl Pts',(142.50474733358,-0.00272333645535015,0.80128182331784));
#630=CARTESIAN_POINT('Ctrl Pts',(142.447042030783,-0.00117532571318771,
0.800553202578201));
#631=CARTESIAN_POINT('Ctrl Pts',(142.364546284914,-0.000153427001559557,
0.800072216929555));
#632=CARTESIAN_POINT('Ctrl Pts',(142.339773153067,-9.31532573315331E-15,
0.800000000000004));
#633=CARTESIAN_POINT('Ctrl Pts',(142.315,-9.3871520814957E-15,0.800000000000004));
#634=CARTESIAN_POINT('',(142.315,-8.88178419700125E-15,0.));
#635=CARTESIAN_POINT('Origin',(142.315,-8.88178419700125E-15,0.));
#636=CARTESIAN_POINT('',(0.,0.,0.8));
#637=CARTESIAN_POINT('Ctrl Pts',(-16.6516309076072,0.,0.8));
#638=CARTESIAN_POINT('Ctrl Pts',(163.97222432395,0.,0.8));
#639=CARTESIAN_POINT('Ctrl Pts',(-16.6516309076072,-0.422759746162942,0.998987837359083));
#640=CARTESIAN_POINT('Ctrl Pts',(163.97222432395,-0.422759746162942,0.998987837359083));
#641=CARTESIAN_POINT('Ctrl Pts',(-16.6516309076072,-1.27005099507762,1.38871081695077));
#642=CARTESIAN_POINT('Ctrl Pts',(163.97222432395,-1.27005099507762,1.38871081695077));
#643=CARTESIAN_POINT('Ctrl Pts',(-16.6516309076072,-2.54630090348288,1.94854761016018));
#644=CARTESIAN_POINT('Ctrl Pts',(163.97222432395,-2.54630090348288,1.94854761016018));
#645=CARTESIAN_POINT('Ctrl Pts',(-16.6516309076072,-4.25933194442464,2.6420617868416));
#646=CARTESIAN_POINT('Ctrl Pts',(163.97222432395,-4.25933194442464,2.6420617868416));
#647=CARTESIAN_POINT('Ctrl Pts',(-16.6516309076072,-6.42882788820741,3.37756797876332));
#648=CARTESIAN_POINT('Ctrl Pts',(163.97222432395,-6.42882788820741,3.37756797876332));
#649=CARTESIAN_POINT('Ctrl Pts',(-16.6516309076072,-8.20120934757909,3.79463283276763));
#650=CARTESIAN_POINT('Ctrl Pts',(163.97222432395,-8.20120934757909,3.79463283276763));
#651=CARTESIAN_POINT('Ctrl Pts',(-16.6516309076072,-9.56157999970128,3.96264218416977));
#652=CARTESIAN_POINT('Ctrl Pts',(163.97222432395,-9.56157999970128,3.96264218416977));
#653=CARTESIAN_POINT('Ctrl Pts',(-16.6516309076072,-10.4845199053281,4.));
#654=CARTESIAN_POINT('Ctrl Pts',(163.97222432395,-10.4845199053281,4.));
#655=CARTESIAN_POINT('Ctrl Pts',(-16.6516309076072,-10.95,4.));
#656=CARTESIAN_POINT('Ctrl Pts',(163.97222432395,-10.95,4.));
#657=CARTESIAN_POINT('',(0.,0.,0.));
#658=UNCERTAINTY_MEASURE_WITH_UNIT(LENGTH_MEASURE(0.01),#664,
'DISTANCE_ACCURACY_VALUE',
'Maximum model space distance between geometric entities at asserted c
onnectivities');
#659=UNCERTAINTY_MEASURE_WITH_UNIT(LENGTH_MEASURE(0.01),#664,
'DISTANCE_ACCURACY_VALUE',
'Maximum model space distance between geometric entities at asserted c
onnectivities');
#660=UNCERTAINTY_MEASURE_WITH_UNIT(LENGTH_MEASURE(0.01),#664,
'DISTANCE_ACCURACY_VALUE',
'Maximum model space distance between geometric entities at asserted c
onnectivities');
#661=(
GEOMETRIC_REPRESENTATION_CONTEXT(3)
GLOBAL_UNCERTAINTY_ASSIGNED_CONTEXT((#658))
GLOBAL_UNIT_ASSIGNED_CONTEXT((#664,#666,#667))
REPRESENTATION_CONTEXT('','3D')
);
#662=(
GEOMETRIC_REPRESENTATION_CONTEXT(3)
GLOBAL_UNCERTAINTY_ASSIGNED_CONTEXT((#659))
GLOBAL_UNIT_ASSIGNED_CONTEXT((#664,#666,#667))
REPRESENTATION_CONTEXT('','3D')
);
#663=(
GEOMETRIC_REPRESENTATION_CONTEXT(3)
GLOBAL_UNCERTAINTY_ASSIGNED_CONTEXT((#660))
GLOBAL_UNIT_ASSIGNED_CONTEXT((#664,#666,#667))
REPRESENTATION_CONTEXT('','3D')
);
#664=(
LENGTH_UNIT()
NAMED_UNIT(*)
SI_UNIT(.MILLI.,.METRE.)
);
#665=(
LENGTH_UNIT()
NAMED_UNIT(*)
SI_UNIT($,.METRE.)
);
#666=(
NAMED_UNIT(*)
PLANE_ANGLE_UNIT()
SI_UNIT($,.RADIAN.)
);
#667=(
NAMED_UNIT(*)
SI_UNIT($,.STERADIAN.)
SOLID_ANGLE_UNIT()
);
#668=SHAPE_DEFINITION_REPRESENTATION(#670,#673);
#669=SHAPE_DEFINITION_REPRESENTATION(#671,#674);
#670=PRODUCT_DEFINITION_SHAPE('',$,#676);
#671=PRODUCT_DEFINITION_SHAPE('',$,#677);
#672=PRODUCT_DEFINITION_SHAPE($,$,#14);
#673=SHAPE_REPRESENTATION('',(#276,#293),#661);
#674=SHAPE_REPRESENTATION('',(#277),#662);
#675=PRODUCT_DEFINITION_CONTEXT('part definition',#683,'design');
#676=PRODUCT_DEFINITION('lid-revB','lid-revB',#678,#675);
#677=PRODUCT_DEFINITION('corner-caps','corner-caps',#679,#675);
#678=PRODUCT_DEFINITION_FORMATION('',$,#685);
#679=PRODUCT_DEFINITION_FORMATION('',$,#686);
#680=PRODUCT_RELATED_PRODUCT_CATEGORY('lid-revB','lid-revB',(#685));
#681=PRODUCT_RELATED_PRODUCT_CATEGORY('corner-caps','corner-caps',(#686));
#682=APPLICATION_PROTOCOL_DEFINITION('international standard',
'automotive_design',2009,#683);
#683=APPLICATION_CONTEXT(
'Core Data for Automotive Mechanical Design Process');
#684=PRODUCT_CONTEXT('part definition',#683,'mechanical');
#685=PRODUCT('lid-revB','lid-revB',$,(#684));
#686=PRODUCT('corner-caps','corner-caps',$,(#684));
#687=PRESENTATION_STYLE_ASSIGNMENT((#688));
#688=SURFACE_STYLE_USAGE(.BOTH.,#689);
#689=SURFACE_SIDE_STYLE('',(#690));
#690=SURFACE_STYLE_FILL_AREA(#691);
#691=FILL_AREA_STYLE('Steel - Satin',(#692));
#692=FILL_AREA_STYLE_COLOUR('Steel - Satin',#693);
#693=COLOUR_RGB('Steel - Satin',0.627450980392157,0.627450980392157,0.627450980392157);
ENDSEC;
END-ISO-10303-21;
