ISO-10303-21;
HEADER;
/* Generated by software containing ST-Developer
 * from STEP Tools, Inc. (www.steptools.com) 
 */

FILE_DESCRIPTION(
/* description */ (''),
/* implementation_level */ '2;1');

FILE_NAME(
/* name */ 'touchpad-clamp-L.step',
/* time_stamp */ '2026-09-06T15:53:03-07:00',
/* author */ (''),
/* organization */ (''),
/* preprocessor_version */ 'ST-DEVELOPER v20.2',
/* originating_system */ 'Autodesk Translation Framework v15.15.0.0',
/* authorisation */ '');

FILE_SCHEMA (('AUTOMOTIVE_DESIGN { 1 0 10303 214 3 1 1 }'));
ENDSEC;

DATA;
#10=MECHANICAL_DESIGN_GEOMETRIC_PRESENTATION_REPRESENTATION('',(#37),#938);
#11=ITEM_DEFINED_TRANSFORMATION($,$,#574,#618);
#12=ITEM_DEFINED_TRANSFORMATION($,$,#575,#619);
#13=ITEM_DEFINED_TRANSFORMATION($,$,#576,#620);
#14=ITEM_DEFINED_TRANSFORMATION($,$,#577,#621);
#15=ITEM_DEFINED_TRANSFORMATION($,$,#578,#622);
#16=ITEM_DEFINED_TRANSFORMATION($,$,#617,#623);
#17=(
REPRESENTATION_RELATIONSHIP($,$,#964,#963)
REPRESENTATION_RELATIONSHIP_WITH_TRANSFORMATION(#11)
SHAPE_REPRESENTATION_RELATIONSHIP()
);
#18=(
REPRESENTATION_RELATIONSHIP($,$,#965,#963)
REPRESENTATION_RELATIONSHIP_WITH_TRANSFORMATION(#12)
SHAPE_REPRESENTATION_RELATIONSHIP()
);
#19=(
REPRESENTATION_RELATIONSHIP($,$,#966,#963)
REPRESENTATION_RELATIONSHIP_WITH_TRANSFORMATION(#13)
SHAPE_REPRESENTATION_RELATIONSHIP()
);
#20=(
REPRESENTATION_RELATIONSHIP($,$,#967,#963)
REPRESENTATION_RELATIONSHIP_WITH_TRANSFORMATION(#14)
SHAPE_REPRESENTATION_RELATIONSHIP()
);
#21=(
REPRESENTATION_RELATIONSHIP($,$,#968,#963)
REPRESENTATION_RELATIONSHIP_WITH_TRANSFORMATION(#15)
SHAPE_REPRESENTATION_RELATIONSHIP()
);
#22=(
REPRESENTATION_RELATIONSHIP($,$,#969,#963)
REPRESENTATION_RELATIONSHIP_WITH_TRANSFORMATION(#16)
SHAPE_REPRESENTATION_RELATIONSHIP()
);
#23=CONTEXT_DEPENDENT_SHAPE_REPRESENTATION(#17,#957);
#24=CONTEXT_DEPENDENT_SHAPE_REPRESENTATION(#18,#958);
#25=CONTEXT_DEPENDENT_SHAPE_REPRESENTATION(#19,#959);
#26=CONTEXT_DEPENDENT_SHAPE_REPRESENTATION(#20,#960);
#27=CONTEXT_DEPENDENT_SHAPE_REPRESENTATION(#21,#961);
#28=CONTEXT_DEPENDENT_SHAPE_REPRESENTATION(#22,#962);
#29=NEXT_ASSEMBLY_USAGE_OCCURRENCE('fingerprint-bracket:1',
'fingerprint-bracket:1','fingerprint-bracket:1',#971,#972,
'fingerprint-bracket:1');
#30=NEXT_ASSEMBLY_USAGE_OCCURRENCE('touchpad-bracket:1',
'touchpad-bracket:1','touchpad-bracket:1',#971,#973,
'touchpad-bracket:1');
#31=NEXT_ASSEMBLY_USAGE_OCCURRENCE('encoder-bracket:1',
'encoder-bracket:1','encoder-bracket:1',#971,#974,'encoder-bracket:1');
#32=NEXT_ASSEMBLY_USAGE_OCCURRENCE('edge-bracket:1','edge-bracket:1',
'edge-bracket:1',#971,#975,'edge-bracket:1');
#33=NEXT_ASSEMBLY_USAGE_OCCURRENCE('touchpad-clamps:1',
'touchpad-clamps:1','touchpad-clamps:1',#971,#976,'touchpad-clamps:1');
#34=NEXT_ASSEMBLY_USAGE_OCCURRENCE('corner-bracket:1',
'corner-bracket:1','corner-bracket:1',#971,#977,'corner-bracket:1');
#35=SHAPE_REPRESENTATION_RELATIONSHIP('SRR','None',#968,#36);
#36=ADVANCED_BREP_SHAPE_REPRESENTATION('',(#38),#936);
#37=STYLED_ITEM('',(#1002),#38);
#38=MANIFOLD_SOLID_BREP('Body2',#505);
#39=FACE_BOUND('',#105,.T.);
#40=FACE_BOUND('',#109,.T.);
#41=FACE_BOUND('',#111,.T.);
#42=FACE_BOUND('',#112,.T.);
#43=FACE_BOUND('',#113,.T.);
#44=FACE_BOUND('',#119,.T.);
#45=CIRCLE('',#588,1.39999999999999);
#46=CIRCLE('',#589,1.39999999999999);
#47=CIRCLE('',#592,1.4);
#48=CIRCLE('',#594,1.4);
#49=CIRCLE('',#596,1.4);
#50=CIRCLE('',#600,2.2);
#51=CIRCLE('',#601,2.2);
#52=CIRCLE('',#602,2.2);
#53=CIRCLE('',#605,1.19999999999998);
#54=CIRCLE('',#606,1.19999999999998);
#55=CIRCLE('',#610,1.19999999999999);
#56=CIRCLE('',#612,1.19999999999999);
#57=CYLINDRICAL_SURFACE('',#587,1.39999999999999);
#58=CYLINDRICAL_SURFACE('',#595,1.4);
#59=CYLINDRICAL_SURFACE('',#599,2.2);
#60=CYLINDRICAL_SURFACE('',#604,1.19999999999998);
#61=CYLINDRICAL_SURFACE('',#611,1.19999999999999);
#62=FACE_OUTER_BOUND('',#88,.T.);
#63=FACE_OUTER_BOUND('',#89,.T.);
#64=FACE_OUTER_BOUND('',#90,.T.);
#65=FACE_OUTER_BOUND('',#91,.T.);
#66=FACE_OUTER_BOUND('',#92,.T.);
#67=FACE_OUTER_BOUND('',#93,.T.);
#68=FACE_OUTER_BOUND('',#94,.T.);
#69=FACE_OUTER_BOUND('',#95,.T.);
#70=FACE_OUTER_BOUND('',#96,.T.);
#71=FACE_OUTER_BOUND('',#97,.T.);
#72=FACE_OUTER_BOUND('',#98,.T.);
#73=FACE_OUTER_BOUND('',#99,.T.);
#74=FACE_OUTER_BOUND('',#100,.T.);
#75=FACE_OUTER_BOUND('',#101,.T.);
#76=FACE_OUTER_BOUND('',#102,.T.);
#77=FACE_OUTER_BOUND('',#103,.T.);
#78=FACE_OUTER_BOUND('',#104,.T.);
#79=FACE_OUTER_BOUND('',#106,.T.);
#80=FACE_OUTER_BOUND('',#107,.T.);
#81=FACE_OUTER_BOUND('',#108,.T.);
#82=FACE_OUTER_BOUND('',#110,.T.);
#83=FACE_OUTER_BOUND('',#114,.T.);
#84=FACE_OUTER_BOUND('',#115,.T.);
#85=FACE_OUTER_BOUND('',#116,.T.);
#86=FACE_OUTER_BOUND('',#117,.T.);
#87=FACE_OUTER_BOUND('',#118,.T.);
#88=EDGE_LOOP('',(#330,#331,#332,#333));
#89=EDGE_LOOP('',(#334,#335,#336,#337));
#90=EDGE_LOOP('',(#338,#339,#340,#341));
#91=EDGE_LOOP('',(#342,#343,#344,#345));
#92=EDGE_LOOP('',(#346,#347,#348,#349));
#93=EDGE_LOOP('',(#350,#351,#352,#353));
#94=EDGE_LOOP('',(#354,#355,#356,#357,#358,#359));
#95=EDGE_LOOP('',(#360,#361,#362,#363));
#96=EDGE_LOOP('',(#364,#365,#366,#367));
#97=EDGE_LOOP('',(#368,#369,#370,#371));
#98=EDGE_LOOP('',(#372,#373,#374,#375));
#99=EDGE_LOOP('',(#376,#377,#378,#379));
#100=EDGE_LOOP('',(#380,#381,#382,#383,#384,#385,#386));
#101=EDGE_LOOP('',(#387,#388,#389,#390));
#102=EDGE_LOOP('',(#391,#392,#393,#394));
#103=EDGE_LOOP('',(#395,#396,#397,#398,#399));
#104=EDGE_LOOP('',(#400,#401,#402,#403));
#105=EDGE_LOOP('',(#404));
#106=EDGE_LOOP('',(#405,#406,#407,#408));
#107=EDGE_LOOP('',(#409,#410,#411,#412));
#108=EDGE_LOOP('',(#413,#414,#415,#416,#417));
#109=EDGE_LOOP('',(#418));
#110=EDGE_LOOP('',(#419,#420,#421,#422));
#111=EDGE_LOOP('',(#423,#424,#425,#426,#427,#428));
#112=EDGE_LOOP('',(#429));
#113=EDGE_LOOP('',(#430));
#114=EDGE_LOOP('',(#431,#432,#433,#434));
#115=EDGE_LOOP('',(#435,#436,#437,#438,#439,#440,#441,#442));
#116=EDGE_LOOP('',(#443,#444,#445,#446));
#117=EDGE_LOOP('',(#447,#448,#449,#450,#451));
#118=EDGE_LOOP('',(#452,#453,#454,#455,#456));
#119=EDGE_LOOP('',(#457));
#120=LINE('',#787,#172);
#121=LINE('',#789,#173);
#122=LINE('',#791,#174);
#123=LINE('',#792,#175);
#124=LINE('',#795,#176);
#125=LINE('',#797,#177);
#126=LINE('',#798,#178);
#127=LINE('',#801,#179);
#128=LINE('',#803,#180);
#129=LINE('',#804,#181);
#130=LINE('',#807,#182);
#131=LINE('',#809,#183);
#132=LINE('',#810,#184);
#133=LINE('',#813,#185);
#134=LINE('',#815,#186);
#135=LINE('',#816,#187);
#136=LINE('',#818,#188);
#137=LINE('',#819,#189);
#138=LINE('',#824,#190);
#139=LINE('',#826,#191);
#140=LINE('',#828,#192);
#141=LINE('',#829,#193);
#142=LINE('',#835,#194);
#143=LINE('',#838,#195);
#144=LINE('',#840,#196);
#145=LINE('',#841,#197);
#146=LINE('',#848,#198);
#147=LINE('',#853,#199);
#148=LINE('',#855,#200);
#149=LINE('',#857,#201);
#150=LINE('',#858,#202);
#151=LINE('',#862,#203);
#152=LINE('',#864,#204);
#153=LINE('',#866,#205);
#154=LINE('',#867,#206);
#155=LINE('',#874,#207);
#156=LINE('',#879,#208);
#157=LINE('',#884,#209);
#158=LINE('',#886,#210);
#159=LINE('',#888,#211);
#160=LINE('',#889,#212);
#161=LINE('',#891,#213);
#162=LINE('',#892,#214);
#163=LINE('',#895,#215);
#164=LINE('',#897,#216);
#165=LINE('',#898,#217);
#166=LINE('',#904,#218);
#167=LINE('',#907,#219);
#168=LINE('',#908,#220);
#169=LINE('',#911,#221);
#170=LINE('',#912,#222);
#171=LINE('',#914,#223);
#172=VECTOR('',#638,10.);
#173=VECTOR('',#639,10.);
#174=VECTOR('',#640,10.);
#175=VECTOR('',#641,10.);
#176=VECTOR('',#644,10.);
#177=VECTOR('',#645,10.);
#178=VECTOR('',#646,10.);
#179=VECTOR('',#649,10.);
#180=VECTOR('',#650,10.);
#181=VECTOR('',#651,10.);
#182=VECTOR('',#654,10.);
#183=VECTOR('',#655,10.);
#184=VECTOR('',#656,10.);
#185=VECTOR('',#659,10.);
#186=VECTOR('',#660,10.);
#187=VECTOR('',#661,10.);
#188=VECTOR('',#664,10.);
#189=VECTOR('',#665,10.);
#190=VECTOR('',#670,10.);
#191=VECTOR('',#671,10.);
#192=VECTOR('',#672,10.);
#193=VECTOR('',#673,10.);
#194=VECTOR('',#680,10.);
#195=VECTOR('',#683,10.);
#196=VECTOR('',#684,10.);
#197=VECTOR('',#685,10.);
#198=VECTOR('',#696,1.4);
#199=VECTOR('',#701,10.);
#200=VECTOR('',#702,10.);
#201=VECTOR('',#703,10.);
#202=VECTOR('',#704,10.);
#203=VECTOR('',#707,10.);
#204=VECTOR('',#708,10.);
#205=VECTOR('',#709,10.);
#206=VECTOR('',#710,10.);
#207=VECTOR('',#721,10.);
#208=VECTOR('',#726,1.19999999999998);
#209=VECTOR('',#731,10.);
#210=VECTOR('',#732,10.);
#211=VECTOR('',#733,10.);
#212=VECTOR('',#734,10.);
#213=VECTOR('',#737,10.);
#214=VECTOR('',#738,10.);
#215=VECTOR('',#741,10.);
#216=VECTOR('',#742,10.);
#217=VECTOR('',#743,10.);
#218=VECTOR('',#750,1.19999999999999);
#219=VECTOR('',#753,10.);
#220=VECTOR('',#754,10.);
#221=VECTOR('',#757,10.);
#222=VECTOR('',#758,10.);
#223=VECTOR('',#761,10.);
#224=VERTEX_POINT('',#785);
#225=VERTEX_POINT('',#786);
#226=VERTEX_POINT('',#788);
#227=VERTEX_POINT('',#790);
#228=VERTEX_POINT('',#794);
#229=VERTEX_POINT('',#796);
#230=VERTEX_POINT('',#800);
#231=VERTEX_POINT('',#802);
#232=VERTEX_POINT('',#806);
#233=VERTEX_POINT('',#808);
#234=VERTEX_POINT('',#812);
#235=VERTEX_POINT('',#814);
#236=VERTEX_POINT('',#822);
#237=VERTEX_POINT('',#823);
#238=VERTEX_POINT('',#825);
#239=VERTEX_POINT('',#827);
#240=VERTEX_POINT('',#831);
#241=VERTEX_POINT('',#833);
#242=VERTEX_POINT('',#837);
#243=VERTEX_POINT('',#839);
#244=VERTEX_POINT('',#847);
#245=VERTEX_POINT('',#851);
#246=VERTEX_POINT('',#852);
#247=VERTEX_POINT('',#854);
#248=VERTEX_POINT('',#856);
#249=VERTEX_POINT('',#860);
#250=VERTEX_POINT('',#861);
#251=VERTEX_POINT('',#863);
#252=VERTEX_POINT('',#865);
#253=VERTEX_POINT('',#869);
#254=VERTEX_POINT('',#876);
#255=VERTEX_POINT('',#878);
#256=VERTEX_POINT('',#882);
#257=VERTEX_POINT('',#883);
#258=VERTEX_POINT('',#885);
#259=VERTEX_POINT('',#887);
#260=VERTEX_POINT('',#894);
#261=VERTEX_POINT('',#896);
#262=VERTEX_POINT('',#899);
#263=VERTEX_POINT('',#902);
#264=VERTEX_POINT('',#906);
#265=VERTEX_POINT('',#910);
#266=EDGE_CURVE('',#224,#225,#120,.T.);
#267=EDGE_CURVE('',#224,#226,#121,.T.);
#268=EDGE_CURVE('',#226,#227,#122,.T.);
#269=EDGE_CURVE('',#225,#227,#123,.T.);
#270=EDGE_CURVE('',#228,#224,#124,.T.);
#271=EDGE_CURVE('',#228,#229,#125,.T.);
#272=EDGE_CURVE('',#229,#226,#126,.T.);
#273=EDGE_CURVE('',#230,#228,#127,.T.);
#274=EDGE_CURVE('',#230,#231,#128,.T.);
#275=EDGE_CURVE('',#231,#229,#129,.T.);
#276=EDGE_CURVE('',#232,#230,#130,.T.);
#277=EDGE_CURVE('',#232,#233,#131,.T.);
#278=EDGE_CURVE('',#233,#231,#132,.T.);
#279=EDGE_CURVE('',#234,#232,#133,.T.);
#280=EDGE_CURVE('',#234,#235,#134,.T.);
#281=EDGE_CURVE('',#235,#233,#135,.T.);
#282=EDGE_CURVE('',#225,#234,#136,.T.);
#283=EDGE_CURVE('',#227,#235,#137,.T.);
#284=EDGE_CURVE('',#236,#237,#138,.T.);
#285=EDGE_CURVE('',#236,#238,#139,.T.);
#286=EDGE_CURVE('',#239,#238,#140,.T.);
#287=EDGE_CURVE('',#237,#239,#141,.T.);
#288=EDGE_CURVE('',#237,#240,#45,.T.);
#289=EDGE_CURVE('',#241,#239,#46,.T.);
#290=EDGE_CURVE('',#240,#241,#142,.T.);
#291=EDGE_CURVE('',#240,#242,#143,.T.);
#292=EDGE_CURVE('',#243,#241,#144,.T.);
#293=EDGE_CURVE('',#242,#243,#145,.T.);
#294=EDGE_CURVE('',#238,#243,#47,.T.);
#295=EDGE_CURVE('',#242,#236,#48,.T.);
#296=EDGE_CURVE('',#236,#244,#146,.T.);
#297=EDGE_CURVE('',#244,#244,#49,.T.);
#298=EDGE_CURVE('',#245,#246,#147,.T.);
#299=EDGE_CURVE('',#245,#247,#148,.T.);
#300=EDGE_CURVE('',#248,#247,#149,.T.);
#301=EDGE_CURVE('',#246,#248,#150,.T.);
#302=EDGE_CURVE('',#249,#250,#151,.T.);
#303=EDGE_CURVE('',#249,#251,#152,.T.);
#304=EDGE_CURVE('',#252,#251,#153,.T.);
#305=EDGE_CURVE('',#250,#252,#154,.T.);
#306=EDGE_CURVE('',#250,#253,#50,.T.);
#307=EDGE_CURVE('',#247,#252,#51,.T.);
#308=EDGE_CURVE('',#253,#245,#52,.T.);
#309=EDGE_CURVE('',#251,#248,#155,.T.);
#310=EDGE_CURVE('',#254,#254,#53,.T.);
#311=EDGE_CURVE('',#254,#255,#156,.T.);
#312=EDGE_CURVE('',#255,#255,#54,.T.);
#313=EDGE_CURVE('',#256,#257,#157,.T.);
#314=EDGE_CURVE('',#257,#258,#158,.T.);
#315=EDGE_CURVE('',#259,#258,#159,.T.);
#316=EDGE_CURVE('',#256,#259,#160,.T.);
#317=EDGE_CURVE('',#246,#259,#161,.T.);
#318=EDGE_CURVE('',#258,#253,#162,.T.);
#319=EDGE_CURVE('',#260,#256,#163,.T.);
#320=EDGE_CURVE('',#261,#260,#164,.T.);
#321=EDGE_CURVE('',#257,#261,#165,.T.);
#322=EDGE_CURVE('',#262,#262,#55,.T.);
#323=EDGE_CURVE('',#263,#263,#56,.T.);
#324=EDGE_CURVE('',#263,#262,#166,.T.);
#325=EDGE_CURVE('',#264,#249,#167,.T.);
#326=EDGE_CURVE('',#260,#264,#168,.T.);
#327=EDGE_CURVE('',#265,#264,#169,.T.);
#328=EDGE_CURVE('',#261,#265,#170,.T.);
#329=EDGE_CURVE('',#253,#265,#171,.T.);
#330=ORIENTED_EDGE('',*,*,#266,.F.);
#331=ORIENTED_EDGE('',*,*,#267,.T.);
#332=ORIENTED_EDGE('',*,*,#268,.T.);
#333=ORIENTED_EDGE('',*,*,#269,.F.);
#334=ORIENTED_EDGE('',*,*,#270,.F.);
#335=ORIENTED_EDGE('',*,*,#271,.T.);
#336=ORIENTED_EDGE('',*,*,#272,.T.);
#337=ORIENTED_EDGE('',*,*,#267,.F.);
#338=ORIENTED_EDGE('',*,*,#273,.F.);
#339=ORIENTED_EDGE('',*,*,#274,.T.);
#340=ORIENTED_EDGE('',*,*,#275,.T.);
#341=ORIENTED_EDGE('',*,*,#271,.F.);
#342=ORIENTED_EDGE('',*,*,#276,.F.);
#343=ORIENTED_EDGE('',*,*,#277,.T.);
#344=ORIENTED_EDGE('',*,*,#278,.T.);
#345=ORIENTED_EDGE('',*,*,#274,.F.);
#346=ORIENTED_EDGE('',*,*,#279,.F.);
#347=ORIENTED_EDGE('',*,*,#280,.T.);
#348=ORIENTED_EDGE('',*,*,#281,.T.);
#349=ORIENTED_EDGE('',*,*,#277,.F.);
#350=ORIENTED_EDGE('',*,*,#282,.F.);
#351=ORIENTED_EDGE('',*,*,#269,.T.);
#352=ORIENTED_EDGE('',*,*,#283,.T.);
#353=ORIENTED_EDGE('',*,*,#280,.F.);
#354=ORIENTED_EDGE('',*,*,#283,.F.);
#355=ORIENTED_EDGE('',*,*,#268,.F.);
#356=ORIENTED_EDGE('',*,*,#272,.F.);
#357=ORIENTED_EDGE('',*,*,#275,.F.);
#358=ORIENTED_EDGE('',*,*,#278,.F.);
#359=ORIENTED_EDGE('',*,*,#281,.F.);
#360=ORIENTED_EDGE('',*,*,#284,.F.);
#361=ORIENTED_EDGE('',*,*,#285,.T.);
#362=ORIENTED_EDGE('',*,*,#286,.F.);
#363=ORIENTED_EDGE('',*,*,#287,.F.);
#364=ORIENTED_EDGE('',*,*,#288,.F.);
#365=ORIENTED_EDGE('',*,*,#287,.T.);
#366=ORIENTED_EDGE('',*,*,#289,.F.);
#367=ORIENTED_EDGE('',*,*,#290,.F.);
#368=ORIENTED_EDGE('',*,*,#291,.F.);
#369=ORIENTED_EDGE('',*,*,#290,.T.);
#370=ORIENTED_EDGE('',*,*,#292,.F.);
#371=ORIENTED_EDGE('',*,*,#293,.F.);
#372=ORIENTED_EDGE('',*,*,#292,.T.);
#373=ORIENTED_EDGE('',*,*,#289,.T.);
#374=ORIENTED_EDGE('',*,*,#286,.T.);
#375=ORIENTED_EDGE('',*,*,#294,.T.);
#376=ORIENTED_EDGE('',*,*,#295,.T.);
#377=ORIENTED_EDGE('',*,*,#284,.T.);
#378=ORIENTED_EDGE('',*,*,#288,.T.);
#379=ORIENTED_EDGE('',*,*,#291,.T.);
#380=ORIENTED_EDGE('',*,*,#295,.F.);
#381=ORIENTED_EDGE('',*,*,#293,.T.);
#382=ORIENTED_EDGE('',*,*,#294,.F.);
#383=ORIENTED_EDGE('',*,*,#285,.F.);
#384=ORIENTED_EDGE('',*,*,#296,.T.);
#385=ORIENTED_EDGE('',*,*,#297,.F.);
#386=ORIENTED_EDGE('',*,*,#296,.F.);
#387=ORIENTED_EDGE('',*,*,#298,.F.);
#388=ORIENTED_EDGE('',*,*,#299,.T.);
#389=ORIENTED_EDGE('',*,*,#300,.F.);
#390=ORIENTED_EDGE('',*,*,#301,.F.);
#391=ORIENTED_EDGE('',*,*,#302,.F.);
#392=ORIENTED_EDGE('',*,*,#303,.T.);
#393=ORIENTED_EDGE('',*,*,#304,.F.);
#394=ORIENTED_EDGE('',*,*,#305,.F.);
#395=ORIENTED_EDGE('',*,*,#306,.F.);
#396=ORIENTED_EDGE('',*,*,#305,.T.);
#397=ORIENTED_EDGE('',*,*,#307,.F.);
#398=ORIENTED_EDGE('',*,*,#299,.F.);
#399=ORIENTED_EDGE('',*,*,#308,.F.);
#400=ORIENTED_EDGE('',*,*,#307,.T.);
#401=ORIENTED_EDGE('',*,*,#304,.T.);
#402=ORIENTED_EDGE('',*,*,#309,.T.);
#403=ORIENTED_EDGE('',*,*,#300,.T.);
#404=ORIENTED_EDGE('',*,*,#297,.T.);
#405=ORIENTED_EDGE('',*,*,#310,.F.);
#406=ORIENTED_EDGE('',*,*,#311,.T.);
#407=ORIENTED_EDGE('',*,*,#312,.T.);
#408=ORIENTED_EDGE('',*,*,#311,.F.);
#409=ORIENTED_EDGE('',*,*,#313,.T.);
#410=ORIENTED_EDGE('',*,*,#314,.T.);
#411=ORIENTED_EDGE('',*,*,#315,.F.);
#412=ORIENTED_EDGE('',*,*,#316,.F.);
#413=ORIENTED_EDGE('',*,*,#298,.T.);
#414=ORIENTED_EDGE('',*,*,#317,.T.);
#415=ORIENTED_EDGE('',*,*,#315,.T.);
#416=ORIENTED_EDGE('',*,*,#318,.T.);
#417=ORIENTED_EDGE('',*,*,#308,.T.);
#418=ORIENTED_EDGE('',*,*,#310,.T.);
#419=ORIENTED_EDGE('',*,*,#319,.F.);
#420=ORIENTED_EDGE('',*,*,#320,.F.);
#421=ORIENTED_EDGE('',*,*,#321,.F.);
#422=ORIENTED_EDGE('',*,*,#313,.F.);
#423=ORIENTED_EDGE('',*,*,#266,.T.);
#424=ORIENTED_EDGE('',*,*,#282,.T.);
#425=ORIENTED_EDGE('',*,*,#279,.T.);
#426=ORIENTED_EDGE('',*,*,#276,.T.);
#427=ORIENTED_EDGE('',*,*,#273,.T.);
#428=ORIENTED_EDGE('',*,*,#270,.T.);
#429=ORIENTED_EDGE('',*,*,#322,.F.);
#430=ORIENTED_EDGE('',*,*,#312,.F.);
#431=ORIENTED_EDGE('',*,*,#323,.F.);
#432=ORIENTED_EDGE('',*,*,#324,.T.);
#433=ORIENTED_EDGE('',*,*,#322,.T.);
#434=ORIENTED_EDGE('',*,*,#324,.F.);
#435=ORIENTED_EDGE('',*,*,#319,.T.);
#436=ORIENTED_EDGE('',*,*,#316,.T.);
#437=ORIENTED_EDGE('',*,*,#317,.F.);
#438=ORIENTED_EDGE('',*,*,#301,.T.);
#439=ORIENTED_EDGE('',*,*,#309,.F.);
#440=ORIENTED_EDGE('',*,*,#303,.F.);
#441=ORIENTED_EDGE('',*,*,#325,.F.);
#442=ORIENTED_EDGE('',*,*,#326,.F.);
#443=ORIENTED_EDGE('',*,*,#320,.T.);
#444=ORIENTED_EDGE('',*,*,#326,.T.);
#445=ORIENTED_EDGE('',*,*,#327,.F.);
#446=ORIENTED_EDGE('',*,*,#328,.F.);
#447=ORIENTED_EDGE('',*,*,#321,.T.);
#448=ORIENTED_EDGE('',*,*,#328,.T.);
#449=ORIENTED_EDGE('',*,*,#329,.F.);
#450=ORIENTED_EDGE('',*,*,#318,.F.);
#451=ORIENTED_EDGE('',*,*,#314,.F.);
#452=ORIENTED_EDGE('',*,*,#329,.T.);
#453=ORIENTED_EDGE('',*,*,#327,.T.);
#454=ORIENTED_EDGE('',*,*,#325,.T.);
#455=ORIENTED_EDGE('',*,*,#302,.T.);
#456=ORIENTED_EDGE('',*,*,#306,.T.);
#457=ORIENTED_EDGE('',*,*,#323,.T.);
#458=PLANE('',#579);
#459=PLANE('',#580);
#460=PLANE('',#581);
#461=PLANE('',#582);
#462=PLANE('',#583);
#463=PLANE('',#584);
#464=PLANE('',#585);
#465=PLANE('',#586);
#466=PLANE('',#590);
#467=PLANE('',#591);
#468=PLANE('',#593);
#469=PLANE('',#597);
#470=PLANE('',#598);
#471=PLANE('',#603);
#472=PLANE('',#607);
#473=PLANE('',#608);
#474=PLANE('',#609);
#475=PLANE('',#613);
#476=PLANE('',#614);
#477=PLANE('',#615);
#478=PLANE('',#616);
#479=ADVANCED_FACE('',(#62),#458,.F.);
#480=ADVANCED_FACE('',(#63),#459,.F.);
#481=ADVANCED_FACE('',(#64),#460,.F.);
#482=ADVANCED_FACE('',(#65),#461,.F.);
#483=ADVANCED_FACE('',(#66),#462,.F.);
#484=ADVANCED_FACE('',(#67),#463,.F.);
#485=ADVANCED_FACE('',(#68),#464,.F.);
#486=ADVANCED_FACE('',(#69),#465,.T.);
#487=ADVANCED_FACE('',(#70),#57,.T.);
#488=ADVANCED_FACE('',(#71),#466,.T.);
#489=ADVANCED_FACE('',(#72),#467,.T.);
#490=ADVANCED_FACE('',(#73),#468,.F.);
#491=ADVANCED_FACE('',(#74),#58,.T.);
#492=ADVANCED_FACE('',(#75),#469,.T.);
#493=ADVANCED_FACE('',(#76),#470,.T.);
#494=ADVANCED_FACE('',(#77),#59,.T.);
#495=ADVANCED_FACE('',(#78,#39),#471,.T.);
#496=ADVANCED_FACE('',(#79),#60,.F.);
#497=ADVANCED_FACE('',(#80),#472,.T.);
#498=ADVANCED_FACE('',(#81,#40),#473,.T.);
#499=ADVANCED_FACE('',(#82,#41,#42,#43),#474,.F.);
#500=ADVANCED_FACE('',(#83),#61,.F.);
#501=ADVANCED_FACE('',(#84),#475,.T.);
#502=ADVANCED_FACE('',(#85),#476,.T.);
#503=ADVANCED_FACE('',(#86),#477,.T.);
#504=ADVANCED_FACE('',(#87,#44),#478,.T.);
#505=CLOSED_SHELL('',(#479,#480,#481,#482,#483,#484,#485,#486,#487,#488,
#489,#490,#491,#492,#493,#494,#495,#496,#497,#498,#499,#500,#501,#502,#503,
#504));
#506=DERIVED_UNIT_ELEMENT(#518,1.);
#507=DERIVED_UNIT_ELEMENT(#940,-3.);
#508=DERIVED_UNIT_ELEMENT(#518,1.);
#509=DERIVED_UNIT_ELEMENT(#940,-3.);
#510=DERIVED_UNIT_ELEMENT(#518,1.);
#511=DERIVED_UNIT_ELEMENT(#940,-3.);
#512=DERIVED_UNIT_ELEMENT(#518,1.);
#513=DERIVED_UNIT_ELEMENT(#940,-3.);
#514=DERIVED_UNIT_ELEMENT(#518,1.);
#515=DERIVED_UNIT_ELEMENT(#940,-3.);
#516=DERIVED_UNIT_ELEMENT(#518,1.);
#517=DERIVED_UNIT_ELEMENT(#940,-3.);
#518=(
MASS_UNIT()
NAMED_UNIT(*)
SI_UNIT(.KILO.,.GRAM.)
);
#519=DERIVED_UNIT((#506,#507));
#520=DERIVED_UNIT((#508,#509));
#521=DERIVED_UNIT((#510,#511));
#522=DERIVED_UNIT((#512,#513));
#523=DERIVED_UNIT((#514,#515));
#524=DERIVED_UNIT((#516,#517));
#525=MEASURE_REPRESENTATION_ITEM('density measure',
POSITIVE_RATIO_MEASURE(7850.),#519);
#526=MEASURE_REPRESENTATION_ITEM('density measure',
POSITIVE_RATIO_MEASURE(7850.),#520);
#527=MEASURE_REPRESENTATION_ITEM('density measure',
POSITIVE_RATIO_MEASURE(7850.),#521);
#528=MEASURE_REPRESENTATION_ITEM('density measure',
POSITIVE_RATIO_MEASURE(7850.),#522);
#529=MEASURE_REPRESENTATION_ITEM('density measure',
POSITIVE_RATIO_MEASURE(7850.),#523);
#530=MEASURE_REPRESENTATION_ITEM('density measure',
POSITIVE_RATIO_MEASURE(7850.),#524);
#531=PROPERTY_DEFINITION_REPRESENTATION(#561,#543);
#532=PROPERTY_DEFINITION_REPRESENTATION(#562,#544);
#533=PROPERTY_DEFINITION_REPRESENTATION(#563,#545);
#534=PROPERTY_DEFINITION_REPRESENTATION(#564,#546);
#535=PROPERTY_DEFINITION_REPRESENTATION(#565,#547);
#536=PROPERTY_DEFINITION_REPRESENTATION(#566,#548);
#537=PROPERTY_DEFINITION_REPRESENTATION(#567,#549);
#538=PROPERTY_DEFINITION_REPRESENTATION(#568,#550);
#539=PROPERTY_DEFINITION_REPRESENTATION(#569,#551);
#540=PROPERTY_DEFINITION_REPRESENTATION(#570,#552);
#541=PROPERTY_DEFINITION_REPRESENTATION(#571,#553);
#542=PROPERTY_DEFINITION_REPRESENTATION(#572,#554);
#543=REPRESENTATION('material name',(#555),#932);
#544=REPRESENTATION('density',(#525),#932);
#545=REPRESENTATION('material name',(#556),#933);
#546=REPRESENTATION('density',(#526),#933);
#547=REPRESENTATION('material name',(#557),#934);
#548=REPRESENTATION('density',(#527),#934);
#549=REPRESENTATION('material name',(#558),#935);
#550=REPRESENTATION('density',(#528),#935);
#551=REPRESENTATION('material name',(#559),#936);
#552=REPRESENTATION('density',(#529),#936);
#553=REPRESENTATION('material name',(#560),#937);
#554=REPRESENTATION('density',(#530),#937);
#555=DESCRIPTIVE_REPRESENTATION_ITEM('Steel','Steel');
#556=DESCRIPTIVE_REPRESENTATION_ITEM('Steel','Steel');
#557=DESCRIPTIVE_REPRESENTATION_ITEM('Steel','Steel');
#558=DESCRIPTIVE_REPRESENTATION_ITEM('Steel','Steel');
#559=DESCRIPTIVE_REPRESENTATION_ITEM('Steel','Steel');
#560=DESCRIPTIVE_REPRESENTATION_ITEM('Steel','Steel');
#561=PROPERTY_DEFINITION('material property','material name',#972);
#562=PROPERTY_DEFINITION('material property','density of part',#972);
#563=PROPERTY_DEFINITION('material property','material name',#973);
#564=PROPERTY_DEFINITION('material property','density of part',#973);
#565=PROPERTY_DEFINITION('material property','material name',#974);
#566=PROPERTY_DEFINITION('material property','density of part',#974);
#567=PROPERTY_DEFINITION('material property','material name',#975);
#568=PROPERTY_DEFINITION('material property','density of part',#975);
#569=PROPERTY_DEFINITION('material property','material name',#976);
#570=PROPERTY_DEFINITION('material property','density of part',#976);
#571=PROPERTY_DEFINITION('material property','material name',#977);
#572=PROPERTY_DEFINITION('material property','density of part',#977);
#573=AXIS2_PLACEMENT_3D('',#778,#624,#625);
#574=AXIS2_PLACEMENT_3D('',#779,#626,#627);
#575=AXIS2_PLACEMENT_3D('',#780,#628,#629);
#576=AXIS2_PLACEMENT_3D('',#781,#630,#631);
#577=AXIS2_PLACEMENT_3D('',#782,#632,#633);
#578=AXIS2_PLACEMENT_3D('',#783,#634,#635);
#579=AXIS2_PLACEMENT_3D('',#784,#636,#637);
#580=AXIS2_PLACEMENT_3D('',#793,#642,#643);
#581=AXIS2_PLACEMENT_3D('',#799,#647,#648);
#582=AXIS2_PLACEMENT_3D('',#805,#652,#653);
#583=AXIS2_PLACEMENT_3D('',#811,#657,#658);
#584=AXIS2_PLACEMENT_3D('',#817,#662,#663);
#585=AXIS2_PLACEMENT_3D('',#820,#666,#667);
#586=AXIS2_PLACEMENT_3D('',#821,#668,#669);
#587=AXIS2_PLACEMENT_3D('',#830,#674,#675);
#588=AXIS2_PLACEMENT_3D('',#832,#676,#677);
#589=AXIS2_PLACEMENT_3D('',#834,#678,#679);
#590=AXIS2_PLACEMENT_3D('',#836,#681,#682);
#591=AXIS2_PLACEMENT_3D('',#842,#686,#687);
#592=AXIS2_PLACEMENT_3D('',#843,#688,#689);
#593=AXIS2_PLACEMENT_3D('',#844,#690,#691);
#594=AXIS2_PLACEMENT_3D('',#845,#692,#693);
#595=AXIS2_PLACEMENT_3D('',#846,#694,#695);
#596=AXIS2_PLACEMENT_3D('',#849,#697,#698);
#597=AXIS2_PLACEMENT_3D('',#850,#699,#700);
#598=AXIS2_PLACEMENT_3D('',#859,#705,#706);
#599=AXIS2_PLACEMENT_3D('',#868,#711,#712);
#600=AXIS2_PLACEMENT_3D('',#870,#713,#714);
#601=AXIS2_PLACEMENT_3D('',#871,#715,#716);
#602=AXIS2_PLACEMENT_3D('',#872,#717,#718);
#603=AXIS2_PLACEMENT_3D('',#873,#719,#720);
#604=AXIS2_PLACEMENT_3D('',#875,#722,#723);
#605=AXIS2_PLACEMENT_3D('',#877,#724,#725);
#606=AXIS2_PLACEMENT_3D('',#880,#727,#728);
#607=AXIS2_PLACEMENT_3D('',#881,#729,#730);
#608=AXIS2_PLACEMENT_3D('',#890,#735,#736);
#609=AXIS2_PLACEMENT_3D('',#893,#739,#740);
#610=AXIS2_PLACEMENT_3D('',#900,#744,#745);
#611=AXIS2_PLACEMENT_3D('',#901,#746,#747);
#612=AXIS2_PLACEMENT_3D('',#903,#748,#749);
#613=AXIS2_PLACEMENT_3D('',#905,#751,#752);
#614=AXIS2_PLACEMENT_3D('',#909,#755,#756);
#615=AXIS2_PLACEMENT_3D('',#913,#759,#760);
#616=AXIS2_PLACEMENT_3D('',#915,#762,#763);
#617=AXIS2_PLACEMENT_3D('',#916,#764,#765);
#618=AXIS2_PLACEMENT_3D('',#917,#766,#767);
#619=AXIS2_PLACEMENT_3D('',#918,#768,#769);
#620=AXIS2_PLACEMENT_3D('',#919,#770,#771);
#621=AXIS2_PLACEMENT_3D('',#920,#772,#773);
#622=AXIS2_PLACEMENT_3D('',#921,#774,#775);
#623=AXIS2_PLACEMENT_3D('',#922,#776,#777);
#624=DIRECTION('axis',(0.,0.,1.));
#625=DIRECTION('refdir',(1.,0.,0.));
#626=DIRECTION('axis',(0.,0.,1.));
#627=DIRECTION('refdir',(1.,0.,0.));
#628=DIRECTION('axis',(0.,0.,1.));
#629=DIRECTION('refdir',(1.,0.,0.));
#630=DIRECTION('axis',(0.,0.,1.));
#631=DIRECTION('refdir',(1.,0.,0.));
#632=DIRECTION('axis',(0.,0.,1.));
#633=DIRECTION('refdir',(1.,0.,0.));
#634=DIRECTION('axis',(0.,0.,1.));
#635=DIRECTION('refdir',(1.,0.,0.));
#636=DIRECTION('center_axis',(-0.999999890988807,0.000466928659883643,0.));
#637=DIRECTION('ref_axis',(-0.000466928659883643,-0.999999890988807,0.));
#638=DIRECTION('',(-0.000466928659883643,-0.999999890988807,0.));
#639=DIRECTION('',(0.,0.,1.));
#640=DIRECTION('',(-0.000466928659883643,-0.999999890988807,0.));
#641=DIRECTION('',(0.,0.,1.));
#642=DIRECTION('center_axis',(0.000466928659880464,0.999999890988807,0.));
#643=DIRECTION('ref_axis',(-0.999999890988807,0.000466928659880464,0.));
#644=DIRECTION('',(-0.999999890988807,0.000466928659880464,0.));
#645=DIRECTION('',(0.,0.,1.));
#646=DIRECTION('',(-0.999999890988807,0.000466928659880464,0.));
#647=DIRECTION('center_axis',(-0.999999890988807,0.000466928659886621,0.));
#648=DIRECTION('ref_axis',(-0.000466928659886621,-0.999999890988807,0.));
#649=DIRECTION('',(-0.000466928659886621,-0.999999890988807,0.));
#650=DIRECTION('',(0.,0.,1.));
#651=DIRECTION('',(-0.000466928659886621,-0.999999890988807,0.));
#652=DIRECTION('center_axis',(0.000466928659888599,0.999999890988807,0.));
#653=DIRECTION('ref_axis',(-0.999999890988807,0.000466928659888599,0.));
#654=DIRECTION('',(-0.999999890988807,0.000466928659888599,0.));
#655=DIRECTION('',(0.,0.,1.));
#656=DIRECTION('',(-0.999999890988807,0.000466928659888599,0.));
#657=DIRECTION('center_axis',(0.999999890988807,-0.000466928659886179,0.));
#658=DIRECTION('ref_axis',(0.000466928659886179,0.999999890988807,0.));
#659=DIRECTION('',(0.000466928659886179,0.999999890988807,0.));
#660=DIRECTION('',(0.,0.,1.));
#661=DIRECTION('',(0.000466928659886179,0.999999890988807,0.));
#662=DIRECTION('center_axis',(-0.000466928659876417,-0.999999890988807,
0.));
#663=DIRECTION('ref_axis',(0.999999890988807,-0.000466928659876417,0.));
#664=DIRECTION('',(0.999999890988807,-0.000466928659876417,0.));
#665=DIRECTION('',(0.999999890988807,-0.000466928659876417,0.));
#666=DIRECTION('center_axis',(0.,0.,1.));
#667=DIRECTION('ref_axis',(1.,0.,0.));
#668=DIRECTION('center_axis',(-1.,1.11022302462518E-14,0.));
#669=DIRECTION('ref_axis',(-1.11022302462518E-14,-1.,0.));
#670=DIRECTION('',(1.11022302462518E-14,1.,0.));
#671=DIRECTION('',(0.,0.,1.));
#672=DIRECTION('',(-1.11022302462518E-14,-1.,0.));
#673=DIRECTION('',(0.,0.,1.));
#674=DIRECTION('center_axis',(0.,0.,1.));
#675=DIRECTION('ref_axis',(1.,0.,0.));
#676=DIRECTION('center_axis',(0.,0.,-1.));
#677=DIRECTION('ref_axis',(1.,0.,0.));
#678=DIRECTION('center_axis',(0.,0.,1.));
#679=DIRECTION('ref_axis',(1.,0.,0.));
#680=DIRECTION('',(0.,0.,1.));
#681=DIRECTION('center_axis',(1.,1.1102230246236E-14,0.));
#682=DIRECTION('ref_axis',(-1.1102230246236E-14,1.,0.));
#683=DIRECTION('',(1.1102230246236E-14,-1.,0.));
#684=DIRECTION('',(-1.1102230246236E-14,1.,0.));
#685=DIRECTION('',(0.,0.,1.));
#686=DIRECTION('center_axis',(0.,0.,1.));
#687=DIRECTION('ref_axis',(1.,0.,0.));
#688=DIRECTION('center_axis',(0.,0.,1.));
#689=DIRECTION('ref_axis',(1.,0.,0.));
#690=DIRECTION('center_axis',(0.,0.,1.));
#691=DIRECTION('ref_axis',(1.,0.,0.));
#692=DIRECTION('center_axis',(0.,0.,1.));
#693=DIRECTION('ref_axis',(1.,0.,0.));
#694=DIRECTION('center_axis',(0.,0.,1.));
#695=DIRECTION('ref_axis',(1.,0.,0.));
#696=DIRECTION('',(0.,0.,-1.));
#697=DIRECTION('center_axis',(0.,0.,-1.));
#698=DIRECTION('ref_axis',(1.,0.,0.));
#699=DIRECTION('center_axis',(0.,1.,0.));
#700=DIRECTION('ref_axis',(-1.,0.,0.));
#701=DIRECTION('',(1.,0.,0.));
#702=DIRECTION('',(0.,0.,1.));
#703=DIRECTION('',(-1.,0.,0.));
#704=DIRECTION('',(0.,0.,1.));
#705=DIRECTION('center_axis',(0.,-1.,0.));
#706=DIRECTION('ref_axis',(1.,0.,0.));
#707=DIRECTION('',(-1.,0.,0.));
#708=DIRECTION('',(0.,0.,1.));
#709=DIRECTION('',(1.,0.,0.));
#710=DIRECTION('',(0.,0.,1.));
#711=DIRECTION('center_axis',(0.,0.,1.));
#712=DIRECTION('ref_axis',(-0.879049072991472,-0.476731294622907,0.));
#713=DIRECTION('center_axis',(0.,0.,-1.));
#714=DIRECTION('ref_axis',(1.,0.,0.));
#715=DIRECTION('center_axis',(0.,0.,1.));
#716=DIRECTION('ref_axis',(1.,0.,0.));
#717=DIRECTION('center_axis',(0.,0.,-1.));
#718=DIRECTION('ref_axis',(1.,0.,0.));
#719=DIRECTION('center_axis',(0.,0.,1.));
#720=DIRECTION('ref_axis',(1.,0.,0.));
#721=DIRECTION('',(0.,1.,0.));
#722=DIRECTION('center_axis',(0.,0.,1.));
#723=DIRECTION('ref_axis',(1.,0.,0.));
#724=DIRECTION('center_axis',(0.,0.,-1.));
#725=DIRECTION('ref_axis',(1.,0.,0.));
#726=DIRECTION('',(0.,0.,-1.));
#727=DIRECTION('center_axis',(0.,0.,-1.));
#728=DIRECTION('ref_axis',(1.,0.,0.));
#729=DIRECTION('center_axis',(0.,1.,0.));
#730=DIRECTION('ref_axis',(-1.,0.,0.));
#731=DIRECTION('',(-1.,0.,0.));
#732=DIRECTION('',(0.,0.,1.));
#733=DIRECTION('',(-1.,0.,0.));
#734=DIRECTION('',(0.,0.,1.));
#735=DIRECTION('center_axis',(0.,0.,1.));
#736=DIRECTION('ref_axis',(1.,0.,0.));
#737=DIRECTION('',(0.,1.,0.));
#738=DIRECTION('',(-4.98976640288955E-16,-1.,0.));
#739=DIRECTION('center_axis',(0.,0.,1.));
#740=DIRECTION('ref_axis',(1.,0.,0.));
#741=DIRECTION('',(0.,1.,0.));
#742=DIRECTION('',(1.,0.,0.));
#743=DIRECTION('',(-4.98976640288955E-16,-1.,0.));
#744=DIRECTION('center_axis',(0.,0.,-1.));
#745=DIRECTION('ref_axis',(1.,0.,0.));
#746=DIRECTION('center_axis',(0.,0.,1.));
#747=DIRECTION('ref_axis',(1.,0.,0.));
#748=DIRECTION('center_axis',(0.,0.,-1.));
#749=DIRECTION('ref_axis',(1.,0.,0.));
#750=DIRECTION('',(0.,0.,-1.));
#751=DIRECTION('center_axis',(1.,0.,0.));
#752=DIRECTION('ref_axis',(0.,1.,0.));
#753=DIRECTION('',(0.,1.,0.));
#754=DIRECTION('',(0.,0.,1.));
#755=DIRECTION('center_axis',(0.,-1.,0.));
#756=DIRECTION('ref_axis',(1.,0.,0.));
#757=DIRECTION('',(1.,0.,0.));
#758=DIRECTION('',(0.,0.,1.));
#759=DIRECTION('center_axis',(-1.,4.98976640288955E-16,0.));
#760=DIRECTION('ref_axis',(-4.98976640288955E-16,-1.,0.));
#761=DIRECTION('',(-4.98976640288955E-16,-1.,0.));
#762=DIRECTION('center_axis',(0.,0.,1.));
#763=DIRECTION('ref_axis',(1.,0.,0.));
#764=DIRECTION('axis',(0.,0.,1.));
#765=DIRECTION('refdir',(1.,0.,0.));
#766=DIRECTION('',(0.,0.,1.));
#767=DIRECTION('',(1.,0.,0.));
#768=DIRECTION('',(0.,0.,1.));
#769=DIRECTION('',(1.,0.,0.));
#770=DIRECTION('',(0.,0.,1.));
#771=DIRECTION('',(1.,0.,0.));
#772=DIRECTION('',(0.,0.,1.));
#773=DIRECTION('',(1.,0.,0.));
#774=DIRECTION('',(0.,0.,1.));
#775=DIRECTION('',(1.,0.,0.));
#776=DIRECTION('',(0.,0.,1.));
#777=DIRECTION('',(1.,0.,0.));
#778=CARTESIAN_POINT('',(0.,0.,0.));
#779=CARTESIAN_POINT('',(0.,0.,0.));
#780=CARTESIAN_POINT('',(0.,0.,0.));
#781=CARTESIAN_POINT('',(0.,0.,0.));
#782=CARTESIAN_POINT('',(0.,0.,0.));
#783=CARTESIAN_POINT('',(0.,0.,0.));
#784=CARTESIAN_POINT('Origin',(68.2031694319184,-208.511583480924,4.));
#785=CARTESIAN_POINT('',(68.2031694319184,-208.511583480924,4.));
#786=CARTESIAN_POINT('',(68.202475709602,-209.997297039287,4.));
#787=CARTESIAN_POINT('',(68.2062588209795,-201.895179328163,4.));
#788=CARTESIAN_POINT('',(68.2031694319184,-208.511583480924,4.1));
#789=CARTESIAN_POINT('',(68.2031694319184,-208.511583480924,4.));
#790=CARTESIAN_POINT('',(68.202475709602,-209.997297039287,4.1));
#791=CARTESIAN_POINT('',(68.2031694319184,-208.511583480924,4.1));
#792=CARTESIAN_POINT('',(68.202475709602,-209.997297039287,4.));
#793=CARTESIAN_POINT('Origin',(72.5103114585007,-208.513594609198,4.));
#794=CARTESIAN_POINT('',(72.5103114585007,-208.513594609198,4.));
#795=CARTESIAN_POINT('',(71.6683163401939,-208.513201457503,4.));
#796=CARTESIAN_POINT('',(72.5103114585007,-208.513594609198,4.1));
#797=CARTESIAN_POINT('',(72.5103114585007,-208.513594609198,4.));
#798=CARTESIAN_POINT('',(72.5103114585007,-208.513594609198,4.1));
#799=CARTESIAN_POINT('Origin',(72.5142870227832,-199.999309257672,4.));
#800=CARTESIAN_POINT('',(72.5142870227832,-199.999309257672,4.));
#801=CARTESIAN_POINT('',(72.515388629703,-197.640047780674,4.));
#802=CARTESIAN_POINT('',(72.5142870227832,-199.999309257672,4.1));
#803=CARTESIAN_POINT('',(72.5142870227832,-199.999309257672,4.));
#804=CARTESIAN_POINT('',(72.5142870227832,-199.999309257672,4.1));
#805=CARTESIAN_POINT('Origin',(74.000001102686,-200.000002980232,4.));
#806=CARTESIAN_POINT('',(74.000001102686,-200.000002980232,4.));
#807=CARTESIAN_POINT('',(72.4151489444277,-199.999262967257,4.));
#808=CARTESIAN_POINT('',(74.000001102686,-200.000002980232,4.1));
#809=CARTESIAN_POINT('',(74.000001102686,-200.000002980232,4.));
#810=CARTESIAN_POINT('',(74.000001102686,-200.000002980232,4.1));
#811=CARTESIAN_POINT('Origin',(73.9953318160871,-210.00000189012,4.));
#812=CARTESIAN_POINT('',(73.9953318160871,-210.00000189012,4.));
#813=CARTESIAN_POINT('',(73.9987680663064,-202.640740958178,4.));
#814=CARTESIAN_POINT('',(73.9953318160871,-210.00000189012,4.1));
#815=CARTESIAN_POINT('',(73.9953318160871,-210.00000189012,4.));
#816=CARTESIAN_POINT('',(73.9953318160871,-210.00000189012,4.1));
#817=CARTESIAN_POINT('Origin',(68.202475709602,-209.997297039287,4.));
#818=CARTESIAN_POINT('',(69.5140516045864,-209.997909451728,4.));
#819=CARTESIAN_POINT('',(68.202475709602,-209.997297039287,4.1));
#820=CARTESIAN_POINT('Origin',(71.101238406144,-204.999655573896,4.1));
#821=CARTESIAN_POINT('Origin',(58.715,-202.379999999999,10.9));
#822=CARTESIAN_POINT('',(58.715,-203.18,10.9));
#823=CARTESIAN_POINT('',(58.715,-202.379999999999,10.9));
#824=CARTESIAN_POINT('',(58.715,-202.58,10.9));
#825=CARTESIAN_POINT('',(58.715,-203.18,12.1));
#826=CARTESIAN_POINT('',(58.715,-203.18,10.9));
#827=CARTESIAN_POINT('',(58.715,-202.379999999999,12.1));
#828=CARTESIAN_POINT('',(58.715,-202.58,12.1));
#829=CARTESIAN_POINT('',(58.715,-202.379999999999,10.9));
#830=CARTESIAN_POINT('Origin',(60.115,-202.379999999999,10.9));
#831=CARTESIAN_POINT('',(61.515,-202.379999999999,10.9));
#832=CARTESIAN_POINT('Origin',(60.115,-202.379999999999,10.9));
#833=CARTESIAN_POINT('',(61.515,-202.379999999999,12.1));
#834=CARTESIAN_POINT('Origin',(60.115,-202.379999999999,12.1));
#835=CARTESIAN_POINT('',(61.515,-202.379999999999,10.9));
#836=CARTESIAN_POINT('Origin',(61.515,-203.18,10.9));
#837=CARTESIAN_POINT('',(61.515,-203.18,10.9));
#838=CARTESIAN_POINT('',(61.515,-202.979999999999,10.9));
#839=CARTESIAN_POINT('',(61.515,-203.18,12.1));
#840=CARTESIAN_POINT('',(61.515,-202.979999999999,12.1));
#841=CARTESIAN_POINT('',(61.515,-203.18,10.9));
#842=CARTESIAN_POINT('Origin',(0.,-202.779999999999,12.1));
#843=CARTESIAN_POINT('Origin',(60.115,-203.18,12.1));
#844=CARTESIAN_POINT('Origin',(0.,-202.779999999999,10.9));
#845=CARTESIAN_POINT('Origin',(60.115,-203.18,10.9));
#846=CARTESIAN_POINT('Origin',(60.115,-203.18,4.));
#847=CARTESIAN_POINT('',(58.715,-203.18,6.3));
#848=CARTESIAN_POINT('',(58.715,-203.18,4.));
#849=CARTESIAN_POINT('Origin',(60.115,-203.18,6.3));
#850=CARTESIAN_POINT('Origin',(83.7500000000184,-200.98,4.));
#851=CARTESIAN_POINT('',(60.1149999999994,-200.98,5.));
#852=CARTESIAN_POINT('',(83.7500000000184,-200.98,5.));
#853=CARTESIAN_POINT('',(60.1149999999994,-200.98,5.));
#854=CARTESIAN_POINT('',(60.1149999999994,-200.98,6.3));
#855=CARTESIAN_POINT('',(60.1149999999994,-200.98,4.));
#856=CARTESIAN_POINT('',(83.7500000000184,-200.98,6.3));
#857=CARTESIAN_POINT('',(60.1149999999994,-200.98,6.3));
#858=CARTESIAN_POINT('',(83.7500000000184,-200.98,4.));
#859=CARTESIAN_POINT('Origin',(61.9589088914586,-204.38,4.));
#860=CARTESIAN_POINT('',(83.7500000000184,-204.38,5.));
#861=CARTESIAN_POINT('',(61.9589088914586,-204.38,5.));
#862=CARTESIAN_POINT('',(61.9589088914586,-204.38,5.));
#863=CARTESIAN_POINT('',(83.7500000000184,-204.38,6.3));
#864=CARTESIAN_POINT('',(83.7500000000184,-204.38,4.));
#865=CARTESIAN_POINT('',(61.9589088914586,-204.38,6.3));
#866=CARTESIAN_POINT('',(61.9589088914586,-204.38,6.3));
#867=CARTESIAN_POINT('',(61.9589088914586,-204.38,4.));
#868=CARTESIAN_POINT('Origin',(60.115,-203.18,4.));
#869=CARTESIAN_POINT('',(57.915,-203.18,5.));
#870=CARTESIAN_POINT('Origin',(60.115,-203.18,5.));
#871=CARTESIAN_POINT('Origin',(60.115,-203.18,6.3));
#872=CARTESIAN_POINT('Origin',(60.115,-203.18,5.));
#873=CARTESIAN_POINT('Origin',(70.8325000000092,-203.18,6.3));
#874=CARTESIAN_POINT('',(83.7500000000184,-222.98,6.3));
#875=CARTESIAN_POINT('Origin',(75.7500000000184,-191.38000000057,4.));
#876=CARTESIAN_POINT('',(74.5500000000184,-191.38000000057,5.));
#877=CARTESIAN_POINT('Origin',(75.7500000000184,-191.38000000057,5.));
#878=CARTESIAN_POINT('',(74.5500000000184,-191.38000000057,4.));
#879=CARTESIAN_POINT('',(74.5500000000184,-191.38000000057,4.));
#880=CARTESIAN_POINT('Origin',(75.7500000000184,-191.38000000057,4.));
#881=CARTESIAN_POINT('Origin',(83.7500000000184,-187.38000000057,4.));
#882=CARTESIAN_POINT('',(83.7500000000184,-187.38000000057,4.));
#883=CARTESIAN_POINT('',(57.915,-187.38000000057,4.));
#884=CARTESIAN_POINT('',(83.7500000000184,-187.38000000057,4.));
#885=CARTESIAN_POINT('',(57.915,-187.38000000057,5.));
#886=CARTESIAN_POINT('',(57.915,-187.38000000057,4.));
#887=CARTESIAN_POINT('',(83.7500000000184,-187.38000000057,5.));
#888=CARTESIAN_POINT('',(83.7500000000184,-187.38000000057,5.));
#889=CARTESIAN_POINT('',(83.7500000000184,-187.38000000057,4.));
#890=CARTESIAN_POINT('Origin',(70.8325000000092,-195.280000000285,5.));
#891=CARTESIAN_POINT('',(83.7500000000184,-222.98,5.));
#892=CARTESIAN_POINT('',(57.915,-187.38000000057,5.));
#893=CARTESIAN_POINT('Origin',(70.8325000000092,-195.280000000285,4.));
#894=CARTESIAN_POINT('',(83.7500000000184,-222.98,4.));
#895=CARTESIAN_POINT('',(83.7500000000184,-222.98,4.));
#896=CARTESIAN_POINT('',(57.915,-222.98,4.));
#897=CARTESIAN_POINT('',(57.915,-222.98,4.));
#898=CARTESIAN_POINT('',(57.915,-187.38000000057,4.));
#899=CARTESIAN_POINT('',(74.5500000000184,-218.98,4.));
#900=CARTESIAN_POINT('Origin',(75.7500000000184,-218.98,4.));
#901=CARTESIAN_POINT('Origin',(75.7500000000184,-218.98,4.));
#902=CARTESIAN_POINT('',(74.5500000000184,-218.98,5.));
#903=CARTESIAN_POINT('Origin',(75.7500000000184,-218.98,5.));
#904=CARTESIAN_POINT('',(74.5500000000184,-218.98,4.));
#905=CARTESIAN_POINT('Origin',(83.7500000000184,-222.98,4.));
#906=CARTESIAN_POINT('',(83.7500000000184,-222.98,5.));
#907=CARTESIAN_POINT('',(83.7500000000184,-222.98,5.));
#908=CARTESIAN_POINT('',(83.7500000000184,-222.98,4.));
#909=CARTESIAN_POINT('Origin',(57.915,-222.98,4.));
#910=CARTESIAN_POINT('',(57.915,-222.98,5.));
#911=CARTESIAN_POINT('',(57.915,-222.98,5.));
#912=CARTESIAN_POINT('',(57.915,-222.98,4.));
#913=CARTESIAN_POINT('Origin',(57.915,-203.18,4.));
#914=CARTESIAN_POINT('',(57.915,-187.38000000057,5.));
#915=CARTESIAN_POINT('Origin',(70.8325000000092,-213.08,5.));
#916=CARTESIAN_POINT('',(0.,0.,0.));
#917=CARTESIAN_POINT('',(0.,0.,0.));
#918=CARTESIAN_POINT('',(0.,0.,0.));
#919=CARTESIAN_POINT('',(0.,0.,0.));
#920=CARTESIAN_POINT('',(0.,0.,0.));
#921=CARTESIAN_POINT('',(0.,0.,0.));
#922=CARTESIAN_POINT('',(0.,0.,0.));
#923=UNCERTAINTY_MEASURE_WITH_UNIT(LENGTH_MEASURE(0.01),#939,
'DISTANCE_ACCURACY_VALUE',
'Maximum model space distance between geometric entities at asserted c
onnectivities');
#924=UNCERTAINTY_MEASURE_WITH_UNIT(LENGTH_MEASURE(0.01),#939,
'DISTANCE_ACCURACY_VALUE',
'Maximum model space distance between geometric entities at asserted c
onnectivities');
#925=UNCERTAINTY_MEASURE_WITH_UNIT(LENGTH_MEASURE(0.01),#939,
'DISTANCE_ACCURACY_VALUE',
'Maximum model space distance between geometric entities at asserted c
onnectivities');
#926=UNCERTAINTY_MEASURE_WITH_UNIT(LENGTH_MEASURE(0.01),#939,
'DISTANCE_ACCURACY_VALUE',
'Maximum model space distance between geometric entities at asserted c
onnectivities');
#927=UNCERTAINTY_MEASURE_WITH_UNIT(LENGTH_MEASURE(0.01),#939,
'DISTANCE_ACCURACY_VALUE',
'Maximum model space distance between geometric entities at asserted c
onnectivities');
#928=UNCERTAINTY_MEASURE_WITH_UNIT(LENGTH_MEASURE(0.01),#939,
'DISTANCE_ACCURACY_VALUE',
'Maximum model space distance between geometric entities at asserted c
onnectivities');
#929=UNCERTAINTY_MEASURE_WITH_UNIT(LENGTH_MEASURE(0.01),#939,
'DISTANCE_ACCURACY_VALUE',
'Maximum model space distance between geometric entities at asserted c
onnectivities');
#930=UNCERTAINTY_MEASURE_WITH_UNIT(LENGTH_MEASURE(0.01),#939,
'DISTANCE_ACCURACY_VALUE',
'Maximum model space distance between geometric entities at asserted c
onnectivities');
#931=(
GEOMETRIC_REPRESENTATION_CONTEXT(3)
GLOBAL_UNCERTAINTY_ASSIGNED_CONTEXT((#923))
GLOBAL_UNIT_ASSIGNED_CONTEXT((#939,#941,#942))
REPRESENTATION_CONTEXT('','3D')
);
#932=(
GEOMETRIC_REPRESENTATION_CONTEXT(3)
GLOBAL_UNCERTAINTY_ASSIGNED_CONTEXT((#924))
GLOBAL_UNIT_ASSIGNED_CONTEXT((#939,#941,#942))
REPRESENTATION_CONTEXT('','3D')
);
#933=(
GEOMETRIC_REPRESENTATION_CONTEXT(3)
GLOBAL_UNCERTAINTY_ASSIGNED_CONTEXT((#925))
GLOBAL_UNIT_ASSIGNED_CONTEXT((#939,#941,#942))
REPRESENTATION_CONTEXT('','3D')
);
#934=(
GEOMETRIC_REPRESENTATION_CONTEXT(3)
GLOBAL_UNCERTAINTY_ASSIGNED_CONTEXT((#926))
GLOBAL_UNIT_ASSIGNED_CONTEXT((#939,#941,#942))
REPRESENTATION_CONTEXT('','3D')
);
#935=(
GEOMETRIC_REPRESENTATION_CONTEXT(3)
GLOBAL_UNCERTAINTY_ASSIGNED_CONTEXT((#927))
GLOBAL_UNIT_ASSIGNED_CONTEXT((#939,#941,#942))
REPRESENTATION_CONTEXT('','3D')
);
#936=(
GEOMETRIC_REPRESENTATION_CONTEXT(3)
GLOBAL_UNCERTAINTY_ASSIGNED_CONTEXT((#928))
GLOBAL_UNIT_ASSIGNED_CONTEXT((#939,#941,#942))
REPRESENTATION_CONTEXT('','3D')
);
#937=(
GEOMETRIC_REPRESENTATION_CONTEXT(3)
GLOBAL_UNCERTAINTY_ASSIGNED_CONTEXT((#929))
GLOBAL_UNIT_ASSIGNED_CONTEXT((#939,#941,#942))
REPRESENTATION_CONTEXT('','3D')
);
#938=(
GEOMETRIC_REPRESENTATION_CONTEXT(3)
GLOBAL_UNCERTAINTY_ASSIGNED_CONTEXT((#930))
GLOBAL_UNIT_ASSIGNED_CONTEXT((#939,#941,#942))
REPRESENTATION_CONTEXT('','3D')
);
#939=(
LENGTH_UNIT()
NAMED_UNIT(*)
SI_UNIT(.MILLI.,.METRE.)
);
#940=(
LENGTH_UNIT()
NAMED_UNIT(*)
SI_UNIT($,.METRE.)
);
#941=(
NAMED_UNIT(*)
PLANE_ANGLE_UNIT()
SI_UNIT($,.RADIAN.)
);
#942=(
NAMED_UNIT(*)
SI_UNIT($,.STERADIAN.)
SOLID_ANGLE_UNIT()
);
#943=SHAPE_DEFINITION_REPRESENTATION(#950,#963);
#944=SHAPE_DEFINITION_REPRESENTATION(#951,#964);
#945=SHAPE_DEFINITION_REPRESENTATION(#952,#965);
#946=SHAPE_DEFINITION_REPRESENTATION(#953,#966);
#947=SHAPE_DEFINITION_REPRESENTATION(#954,#967);
#948=SHAPE_DEFINITION_REPRESENTATION(#955,#968);
#949=SHAPE_DEFINITION_REPRESENTATION(#956,#969);
#950=PRODUCT_DEFINITION_SHAPE('',$,#971);
#951=PRODUCT_DEFINITION_SHAPE('',$,#972);
#952=PRODUCT_DEFINITION_SHAPE('',$,#973);
#953=PRODUCT_DEFINITION_SHAPE('',$,#974);
#954=PRODUCT_DEFINITION_SHAPE('',$,#975);
#955=PRODUCT_DEFINITION_SHAPE('',$,#976);
#956=PRODUCT_DEFINITION_SHAPE('',$,#977);
#957=PRODUCT_DEFINITION_SHAPE($,$,#29);
#958=PRODUCT_DEFINITION_SHAPE($,$,#30);
#959=PRODUCT_DEFINITION_SHAPE($,$,#31);
#960=PRODUCT_DEFINITION_SHAPE($,$,#32);
#961=PRODUCT_DEFINITION_SHAPE($,$,#33);
#962=PRODUCT_DEFINITION_SHAPE($,$,#34);
#963=SHAPE_REPRESENTATION('',(#573,#618,#619,#620,#621,#622,#623),#931);
#964=SHAPE_REPRESENTATION('',(#574),#932);
#965=SHAPE_REPRESENTATION('',(#575),#933);
#966=SHAPE_REPRESENTATION('',(#576),#934);
#967=SHAPE_REPRESENTATION('',(#577),#935);
#968=SHAPE_REPRESENTATION('',(#578),#936);
#969=SHAPE_REPRESENTATION('',(#617),#937);
#970=PRODUCT_DEFINITION_CONTEXT('part definition',#993,'design');
#971=PRODUCT_DEFINITION('chassis-top-revB','chassis-top-revB',#978,#970);
#972=PRODUCT_DEFINITION('fingerprint-bracket','fingerprint-bracket',#979,
#970);
#973=PRODUCT_DEFINITION('touchpad-bracket','touchpad-bracket',#980,#970);
#974=PRODUCT_DEFINITION('encoder-bracket','encoder-bracket',#981,#970);
#975=PRODUCT_DEFINITION('edge-bracket','edge-bracket',#982,#970);
#976=PRODUCT_DEFINITION('touchpad-clamps','touchpad-clamps',#983,#970);
#977=PRODUCT_DEFINITION('corner-bracket','corner-bracket',#984,#970);
#978=PRODUCT_DEFINITION_FORMATION('',$,#995);
#979=PRODUCT_DEFINITION_FORMATION('',$,#996);
#980=PRODUCT_DEFINITION_FORMATION('',$,#997);
#981=PRODUCT_DEFINITION_FORMATION('',$,#998);
#982=PRODUCT_DEFINITION_FORMATION('',$,#999);
#983=PRODUCT_DEFINITION_FORMATION('',$,#1000);
#984=PRODUCT_DEFINITION_FORMATION('',$,#1001);
#985=PRODUCT_RELATED_PRODUCT_CATEGORY('chassis-top-revB',
'chassis-top-revB',(#995));
#986=PRODUCT_RELATED_PRODUCT_CATEGORY('fingerprint-bracket',
'fingerprint-bracket',(#996));
#987=PRODUCT_RELATED_PRODUCT_CATEGORY('touchpad-bracket',
'touchpad-bracket',(#997));
#988=PRODUCT_RELATED_PRODUCT_CATEGORY('encoder-bracket',
'encoder-bracket',(#998));
#989=PRODUCT_RELATED_PRODUCT_CATEGORY('edge-bracket','edge-bracket',(#999));
#990=PRODUCT_RELATED_PRODUCT_CATEGORY('touchpad-clamps',
'touchpad-clamps',(#1000));
#991=PRODUCT_RELATED_PRODUCT_CATEGORY('corner-bracket','corner-bracket',
(#1001));
#992=APPLICATION_PROTOCOL_DEFINITION('international standard',
'automotive_design',2009,#993);
#993=APPLICATION_CONTEXT(
'Core Data for Automotive Mechanical Design Process');
#994=PRODUCT_CONTEXT('part definition',#993,'mechanical');
#995=PRODUCT('chassis-top-revB','chassis-top-revB',$,(#994));
#996=PRODUCT('fingerprint-bracket','fingerprint-bracket',$,(#994));
#997=PRODUCT('touchpad-bracket','touchpad-bracket',$,(#994));
#998=PRODUCT('encoder-bracket','encoder-bracket',$,(#994));
#999=PRODUCT('edge-bracket','edge-bracket',$,(#994));
#1000=PRODUCT('touchpad-clamps','touchpad-clamps',$,(#994));
#1001=PRODUCT('corner-bracket','corner-bracket',$,(#994));
#1002=PRESENTATION_STYLE_ASSIGNMENT((#1003));
#1003=SURFACE_STYLE_USAGE(.BOTH.,#1004);
#1004=SURFACE_SIDE_STYLE('',(#1005));
#1005=SURFACE_STYLE_FILL_AREA(#1006);
#1006=FILL_AREA_STYLE('Steel - Satin',(#1007));
#1007=FILL_AREA_STYLE_COLOUR('Steel - Satin',#1008);
#1008=COLOUR_RGB('Steel - Satin',0.627450980392157,0.627450980392157,0.627450980392157);
ENDSEC;
END-ISO-10303-21;
