ISO-10303-21;
HEADER;
/* Generated by software containing ST-Developer
 * from STEP Tools, Inc. (www.steptools.com) 
 */

FILE_DESCRIPTION(
/* description */ (''),
/* implementation_level */ '2;1');

FILE_NAME(
/* name */ 'touchpad-clamp-R.step',
/* time_stamp */ '2026-09-06T15:52:49-07:00',
/* author */ (''),
/* organization */ (''),
/* preprocessor_version */ 'ST-DEVELOPER v20.2',
/* originating_system */ 'Autodesk Translation Framework v15.15.0.0',
/* authorisation */ '');

FILE_SCHEMA (('AUTOMOTIVE_DESIGN { 1 0 10303 214 3 1 1 }'));
ENDSEC;

DATA;
#10=MECHANICAL_DESIGN_GEOMETRIC_PRESENTATION_REPRESENTATION('',(#37),#1604);
#11=ITEM_DEFINED_TRANSFORMATION($,$,#899,#947);
#12=ITEM_DEFINED_TRANSFORMATION($,$,#900,#948);
#13=ITEM_DEFINED_TRANSFORMATION($,$,#901,#949);
#14=ITEM_DEFINED_TRANSFORMATION($,$,#902,#950);
#15=ITEM_DEFINED_TRANSFORMATION($,$,#903,#951);
#16=ITEM_DEFINED_TRANSFORMATION($,$,#946,#952);
#17=(
REPRESENTATION_RELATIONSHIP($,$,#1630,#1629)
REPRESENTATION_RELATIONSHIP_WITH_TRANSFORMATION(#11)
SHAPE_REPRESENTATION_RELATIONSHIP()
);
#18=(
REPRESENTATION_RELATIONSHIP($,$,#1631,#1629)
REPRESENTATION_RELATIONSHIP_WITH_TRANSFORMATION(#12)
SHAPE_REPRESENTATION_RELATIONSHIP()
);
#19=(
REPRESENTATION_RELATIONSHIP($,$,#1632,#1629)
REPRESENTATION_RELATIONSHIP_WITH_TRANSFORMATION(#13)
SHAPE_REPRESENTATION_RELATIONSHIP()
);
#20=(
REPRESENTATION_RELATIONSHIP($,$,#1633,#1629)
REPRESENTATION_RELATIONSHIP_WITH_TRANSFORMATION(#14)
SHAPE_REPRESENTATION_RELATIONSHIP()
);
#21=(
REPRESENTATION_RELATIONSHIP($,$,#1634,#1629)
REPRESENTATION_RELATIONSHIP_WITH_TRANSFORMATION(#15)
SHAPE_REPRESENTATION_RELATIONSHIP()
);
#22=(
REPRESENTATION_RELATIONSHIP($,$,#1635,#1629)
REPRESENTATION_RELATIONSHIP_WITH_TRANSFORMATION(#16)
SHAPE_REPRESENTATION_RELATIONSHIP()
);
#23=CONTEXT_DEPENDENT_SHAPE_REPRESENTATION(#17,#1623);
#24=CONTEXT_DEPENDENT_SHAPE_REPRESENTATION(#18,#1624);
#25=CONTEXT_DEPENDENT_SHAPE_REPRESENTATION(#19,#1625);
#26=CONTEXT_DEPENDENT_SHAPE_REPRESENTATION(#20,#1626);
#27=CONTEXT_DEPENDENT_SHAPE_REPRESENTATION(#21,#1627);
#28=CONTEXT_DEPENDENT_SHAPE_REPRESENTATION(#22,#1628);
#29=NEXT_ASSEMBLY_USAGE_OCCURRENCE('fingerprint-bracket:1',
'fingerprint-bracket:1','fingerprint-bracket:1',#1637,#1638,
'fingerprint-bracket:1');
#30=NEXT_ASSEMBLY_USAGE_OCCURRENCE('touchpad-bracket:1',
'touchpad-bracket:1','touchpad-bracket:1',#1637,#1639,
'touchpad-bracket:1');
#31=NEXT_ASSEMBLY_USAGE_OCCURRENCE('encoder-bracket:1',
'encoder-bracket:1','encoder-bracket:1',#1637,#1640,'encoder-bracket:1');
#32=NEXT_ASSEMBLY_USAGE_OCCURRENCE('edge-bracket:1','edge-bracket:1',
'edge-bracket:1',#1637,#1641,'edge-bracket:1');
#33=NEXT_ASSEMBLY_USAGE_OCCURRENCE('touchpad-clamps:1',
'touchpad-clamps:1','touchpad-clamps:1',#1637,#1642,'touchpad-clamps:1');
#34=NEXT_ASSEMBLY_USAGE_OCCURRENCE('corner-bracket:1',
'corner-bracket:1','corner-bracket:1',#1637,#1643,'corner-bracket:1');
#35=SHAPE_REPRESENTATION_RELATIONSHIP('SRR','None',#1634,#36);
#36=ADVANCED_BREP_SHAPE_REPRESENTATION('',(#38),#1602);
#37=STYLED_ITEM('',(#1668),#38);
#38=MANIFOLD_SOLID_BREP('Body1',#830);
#39=CYLINDRICAL_SURFACE('',#919,1.4);
#40=CYLINDRICAL_SURFACE('',#928,1.4);
#41=CYLINDRICAL_SURFACE('',#931,2.2);
#42=CYLINDRICAL_SURFACE('',#936,1.2);
#43=CYLINDRICAL_SURFACE('',#938,1.2);
#44=CIRCLE('',#917,1.2);
#45=CIRCLE('',#918,1.2);
#46=CIRCLE('',#920,1.4);
#47=CIRCLE('',#921,1.4);
#48=CIRCLE('',#925,1.4);
#49=CIRCLE('',#927,1.4);
#50=CIRCLE('',#929,1.4);
#51=CIRCLE('',#932,2.2);
#52=CIRCLE('',#933,2.2);
#53=CIRCLE('',#937,1.2);
#54=CIRCLE('',#939,1.2);
#55=FACE_BOUND('',#165,.T.);
#56=FACE_BOUND('',#167,.T.);
#57=FACE_BOUND('',#168,.T.);
#58=FACE_BOUND('',#169,.T.);
#59=FACE_BOUND('',#180,.T.);
#60=FACE_BOUND('',#188,.T.);
#61=FACE_BOUND('',#189,.T.);
#62=B_SPLINE_CURVE_WITH_KNOTS('',3,(#1167,#1168,#1169,#1170,#1171),
 .UNSPECIFIED.,.F.,.F.,(4,1,4),(0.,0.0404473101173795,0.0817666460866913),
 .UNSPECIFIED.);
#63=B_SPLINE_CURVE_WITH_KNOTS('',3,(#1174,#1175,#1176,#1177,#1178),
 .UNSPECIFIED.,.F.,.F.,(4,1,4),(0.,0.0404473101173795,0.0817666460866913),
 .UNSPECIFIED.);
#64=B_SPLINE_CURVE_WITH_KNOTS('',3,(#1190,#1191,#1192,#1193,#1194),
 .UNSPECIFIED.,.F.,.F.,(4,1,4),(0.,0.0404822812533504,0.0807410214444992),
 .UNSPECIFIED.);
#65=B_SPLINE_CURVE_WITH_KNOTS('',3,(#1197,#1198,#1199,#1200,#1201),
 .UNSPECIFIED.,.F.,.F.,(4,1,4),(0.,0.0404822812533504,0.0807410214444992),
 .UNSPECIFIED.);
#66=B_SPLINE_CURVE_WITH_KNOTS('',3,(#1213,#1214,#1215,#1216,#1217),
 .UNSPECIFIED.,.F.,.F.,(4,1,4),(0.,0.0430802072547967,0.0844145171497622),
 .UNSPECIFIED.);
#67=B_SPLINE_CURVE_WITH_KNOTS('',3,(#1220,#1221,#1222,#1223,#1224),
 .UNSPECIFIED.,.F.,.F.,(4,1,4),(0.,0.0430802072547967,0.0844145171497622),
 .UNSPECIFIED.);
#68=B_SPLINE_CURVE_WITH_KNOTS('',3,(#1236,#1237,#1238,#1239,#1240),
 .UNSPECIFIED.,.F.,.F.,(4,1,4),(0.,0.0410861549469013,0.0840777824003685),
 .UNSPECIFIED.);
#69=B_SPLINE_CURVE_WITH_KNOTS('',3,(#1243,#1244,#1245,#1246,#1247),
 .UNSPECIFIED.,.F.,.F.,(4,1,4),(0.,0.0410861549469013,0.0840777824003685),
 .UNSPECIFIED.);
#70=B_SPLINE_CURVE_WITH_KNOTS('',3,(#1259,#1260,#1261,#1262,#1263),
 .UNSPECIFIED.,.F.,.F.,(4,1,4),(0.,0.0403690851993924,0.0807089332950175),
 .UNSPECIFIED.);
#71=B_SPLINE_CURVE_WITH_KNOTS('',3,(#1266,#1267,#1268,#1269,#1270),
 .UNSPECIFIED.,.F.,.F.,(4,1,4),(0.,0.0403690851993924,0.0807089332950175),
 .UNSPECIFIED.);
#72=B_SPLINE_CURVE_WITH_KNOTS('',3,(#1282,#1283,#1284,#1285,#1286),
 .UNSPECIFIED.,.F.,.F.,(4,1,4),(0.,0.0413308142648803,0.0818835567780494),
 .UNSPECIFIED.);
#73=B_SPLINE_CURVE_WITH_KNOTS('',3,(#1289,#1290,#1291,#1292,#1293),
 .UNSPECIFIED.,.F.,.F.,(4,1,4),(0.,0.0413308142648803,0.0818835567780494),
 .UNSPECIFIED.);
#74=B_SPLINE_CURVE_WITH_KNOTS('',3,(#1347,#1348,#1349,#1350,#1351),
 .UNSPECIFIED.,.F.,.F.,(4,1,4),(0.,0.0611059375659348,0.122507066767654),
 .UNSPECIFIED.);
#75=B_SPLINE_CURVE_WITH_KNOTS('',3,(#1354,#1355,#1356,#1357,#1358),
 .UNSPECIFIED.,.F.,.F.,(4,1,4),(0.,0.0611059375659348,0.122507066767654),
 .UNSPECIFIED.);
#76=B_SPLINE_CURVE_WITH_KNOTS('',3,(#1370,#1371,#1372,#1373,#1374),
 .UNSPECIFIED.,.F.,.F.,(4,1,4),(0.,0.062019817173516,0.123307257656743),
 .UNSPECIFIED.);
#77=B_SPLINE_CURVE_WITH_KNOTS('',3,(#1377,#1378,#1379,#1380,#1381),
 .UNSPECIFIED.,.F.,.F.,(4,1,4),(0.,0.062019817173516,0.123307257656743),
 .UNSPECIFIED.);
#78=B_SPLINE_CURVE_WITH_KNOTS('',3,(#1393,#1394,#1395,#1396,#1397),
 .UNSPECIFIED.,.F.,.F.,(4,1,4),(0.,0.0672807263106227,0.131236053221584),
 .UNSPECIFIED.);
#79=B_SPLINE_CURVE_WITH_KNOTS('',3,(#1400,#1401,#1402,#1403,#1404),
 .UNSPECIFIED.,.F.,.F.,(4,1,4),(0.,0.0672807263106227,0.131236053221584),
 .UNSPECIFIED.);
#80=B_SPLINE_CURVE_WITH_KNOTS('',3,(#1416,#1417,#1418,#1419,#1420),
 .UNSPECIFIED.,.F.,.F.,(4,1,4),(0.,0.0768812402211185,0.156474552293388),
 .UNSPECIFIED.);
#81=B_SPLINE_CURVE_WITH_KNOTS('',3,(#1423,#1424,#1425,#1426,#1427),
 .UNSPECIFIED.,.F.,.F.,(4,1,4),(0.,0.0768812402211185,0.156474552293388),
 .UNSPECIFIED.);
#82=B_SPLINE_CURVE_WITH_KNOTS('',3,(#1439,#1440,#1441,#1442,#1443),
 .UNSPECIFIED.,.F.,.F.,(4,1,4),(0.,0.0748101746339845,0.150258029491352),
 .UNSPECIFIED.);
#83=B_SPLINE_CURVE_WITH_KNOTS('',3,(#1446,#1447,#1448,#1449,#1450),
 .UNSPECIFIED.,.F.,.F.,(4,1,4),(0.,0.0748101746339845,0.150258029491352),
 .UNSPECIFIED.);
#84=B_SPLINE_CURVE_WITH_KNOTS('',3,(#1462,#1463,#1464,#1465,#1466),
 .UNSPECIFIED.,.F.,.F.,(4,1,4),(0.,0.077965408291574,0.15330328216938),
 .UNSPECIFIED.);
#85=B_SPLINE_CURVE_WITH_KNOTS('',3,(#1469,#1470,#1471,#1472,#1473),
 .UNSPECIFIED.,.F.,.F.,(4,1,4),(0.,0.077965408291574,0.15330328216938),
 .UNSPECIFIED.);
#86=B_SPLINE_SURFACE_WITH_KNOTS('',3,1,((#1156,#1157),(#1158,#1159),(#1160,
#1161),(#1162,#1163),(#1164,#1165)),.UNSPECIFIED.,.F.,.F.,.F.,(4,1,4),(2,
2),(0.,0.0404473101173795,0.0817666460866913),(0.,0.01),.UNSPECIFIED.);
#87=B_SPLINE_SURFACE_WITH_KNOTS('',3,1,((#1179,#1180),(#1181,#1182),(#1183,
#1184),(#1185,#1186),(#1187,#1188)),.UNSPECIFIED.,.F.,.F.,.F.,(4,1,4),(2,
2),(0.,0.0404822812533504,0.0807410214444992),(0.,0.01),.UNSPECIFIED.);
#88=B_SPLINE_SURFACE_WITH_KNOTS('',3,1,((#1202,#1203),(#1204,#1205),(#1206,
#1207),(#1208,#1209),(#1210,#1211)),.UNSPECIFIED.,.F.,.F.,.F.,(4,1,4),(2,
2),(0.,0.0430802072547967,0.0844145171497622),(0.,0.01),.UNSPECIFIED.);
#89=B_SPLINE_SURFACE_WITH_KNOTS('',3,1,((#1225,#1226),(#1227,#1228),(#1229,
#1230),(#1231,#1232),(#1233,#1234)),.UNSPECIFIED.,.F.,.F.,.F.,(4,1,4),(2,
2),(0.,0.0410861549469013,0.0840777824003685),(0.,0.01),.UNSPECIFIED.);
#90=B_SPLINE_SURFACE_WITH_KNOTS('',3,1,((#1248,#1249),(#1250,#1251),(#1252,
#1253),(#1254,#1255),(#1256,#1257)),.UNSPECIFIED.,.F.,.F.,.F.,(4,1,4),(2,
2),(0.,0.0403690851993924,0.0807089332950175),(0.,0.01),.UNSPECIFIED.);
#91=B_SPLINE_SURFACE_WITH_KNOTS('',3,1,((#1271,#1272),(#1273,#1274),(#1275,
#1276),(#1277,#1278),(#1279,#1280)),.UNSPECIFIED.,.F.,.F.,.F.,(4,1,4),(2,
2),(0.,0.0413308142648803,0.0818835567780494),(0.,0.01),.UNSPECIFIED.);
#92=B_SPLINE_SURFACE_WITH_KNOTS('',3,1,((#1336,#1337),(#1338,#1339),(#1340,
#1341),(#1342,#1343),(#1344,#1345)),.UNSPECIFIED.,.F.,.F.,.F.,(4,1,4),(2,
2),(0.,0.0611059375659348,0.122507066767654),(0.,0.01),.UNSPECIFIED.);
#93=B_SPLINE_SURFACE_WITH_KNOTS('',3,1,((#1359,#1360),(#1361,#1362),(#1363,
#1364),(#1365,#1366),(#1367,#1368)),.UNSPECIFIED.,.F.,.F.,.F.,(4,1,4),(2,
2),(0.,0.062019817173516,0.123307257656743),(0.,0.01),.UNSPECIFIED.);
#94=B_SPLINE_SURFACE_WITH_KNOTS('',3,1,((#1382,#1383),(#1384,#1385),(#1386,
#1387),(#1388,#1389),(#1390,#1391)),.UNSPECIFIED.,.F.,.F.,.F.,(4,1,4),(2,
2),(0.,0.0672807263106227,0.131236053221584),(0.,0.01),.UNSPECIFIED.);
#95=B_SPLINE_SURFACE_WITH_KNOTS('',3,1,((#1405,#1406),(#1407,#1408),(#1409,
#1410),(#1411,#1412),(#1413,#1414)),.UNSPECIFIED.,.F.,.F.,.F.,(4,1,4),(2,
2),(0.,0.0768812402211185,0.156474552293388),(0.,0.01),.UNSPECIFIED.);
#96=B_SPLINE_SURFACE_WITH_KNOTS('',3,1,((#1428,#1429),(#1430,#1431),(#1432,
#1433),(#1434,#1435),(#1436,#1437)),.UNSPECIFIED.,.F.,.F.,.F.,(4,1,4),(2,
2),(0.,0.0748101746339845,0.150258029491352),(0.,0.01),.UNSPECIFIED.);
#97=B_SPLINE_SURFACE_WITH_KNOTS('',3,1,((#1451,#1452),(#1453,#1454),(#1455,
#1456),(#1457,#1458),(#1459,#1460)),.UNSPECIFIED.,.F.,.F.,.F.,(4,1,4),(2,
2),(0.,0.077965408291574,0.15330328216938),(0.,0.01),.UNSPECIFIED.);
#98=FACE_OUTER_BOUND('',#141,.T.);
#99=FACE_OUTER_BOUND('',#142,.T.);
#100=FACE_OUTER_BOUND('',#143,.T.);
#101=FACE_OUTER_BOUND('',#144,.T.);
#102=FACE_OUTER_BOUND('',#145,.T.);
#103=FACE_OUTER_BOUND('',#146,.T.);
#104=FACE_OUTER_BOUND('',#147,.T.);
#105=FACE_OUTER_BOUND('',#148,.T.);
#106=FACE_OUTER_BOUND('',#149,.T.);
#107=FACE_OUTER_BOUND('',#150,.T.);
#108=FACE_OUTER_BOUND('',#151,.T.);
#109=FACE_OUTER_BOUND('',#152,.T.);
#110=FACE_OUTER_BOUND('',#153,.T.);
#111=FACE_OUTER_BOUND('',#154,.T.);
#112=FACE_OUTER_BOUND('',#155,.T.);
#113=FACE_OUTER_BOUND('',#156,.T.);
#114=FACE_OUTER_BOUND('',#157,.T.);
#115=FACE_OUTER_BOUND('',#158,.T.);
#116=FACE_OUTER_BOUND('',#159,.T.);
#117=FACE_OUTER_BOUND('',#160,.T.);
#118=FACE_OUTER_BOUND('',#161,.T.);
#119=FACE_OUTER_BOUND('',#162,.T.);
#120=FACE_OUTER_BOUND('',#163,.T.);
#121=FACE_OUTER_BOUND('',#164,.T.);
#122=FACE_OUTER_BOUND('',#166,.T.);
#123=FACE_OUTER_BOUND('',#170,.T.);
#124=FACE_OUTER_BOUND('',#171,.T.);
#125=FACE_OUTER_BOUND('',#172,.T.);
#126=FACE_OUTER_BOUND('',#173,.T.);
#127=FACE_OUTER_BOUND('',#174,.T.);
#128=FACE_OUTER_BOUND('',#175,.T.);
#129=FACE_OUTER_BOUND('',#176,.T.);
#130=FACE_OUTER_BOUND('',#177,.T.);
#131=FACE_OUTER_BOUND('',#178,.T.);
#132=FACE_OUTER_BOUND('',#179,.T.);
#133=FACE_OUTER_BOUND('',#181,.T.);
#134=FACE_OUTER_BOUND('',#182,.T.);
#135=FACE_OUTER_BOUND('',#183,.T.);
#136=FACE_OUTER_BOUND('',#184,.T.);
#137=FACE_OUTER_BOUND('',#185,.T.);
#138=FACE_OUTER_BOUND('',#186,.T.);
#139=FACE_OUTER_BOUND('',#187,.T.);
#140=FACE_OUTER_BOUND('',#190,.T.);
#141=EDGE_LOOP('',(#535,#536,#537,#538));
#142=EDGE_LOOP('',(#539,#540,#541,#542));
#143=EDGE_LOOP('',(#543,#544,#545,#546));
#144=EDGE_LOOP('',(#547,#548,#549,#550));
#145=EDGE_LOOP('',(#551,#552,#553,#554));
#146=EDGE_LOOP('',(#555,#556,#557,#558));
#147=EDGE_LOOP('',(#559,#560,#561,#562));
#148=EDGE_LOOP('',(#563,#564,#565,#566));
#149=EDGE_LOOP('',(#567,#568,#569,#570));
#150=EDGE_LOOP('',(#571,#572,#573,#574));
#151=EDGE_LOOP('',(#575,#576,#577,#578));
#152=EDGE_LOOP('',(#579,#580,#581,#582));
#153=EDGE_LOOP('',(#583,#584,#585,#586));
#154=EDGE_LOOP('',(#587,#588,#589,#590));
#155=EDGE_LOOP('',(#591,#592,#593,#594));
#156=EDGE_LOOP('',(#595,#596,#597,#598));
#157=EDGE_LOOP('',(#599,#600,#601,#602));
#158=EDGE_LOOP('',(#603,#604,#605,#606));
#159=EDGE_LOOP('',(#607,#608,#609,#610));
#160=EDGE_LOOP('',(#611,#612,#613,#614));
#161=EDGE_LOOP('',(#615,#616,#617,#618));
#162=EDGE_LOOP('',(#619,#620,#621,#622));
#163=EDGE_LOOP('',(#623,#624,#625,#626));
#164=EDGE_LOOP('',(#627,#628,#629,#630,#631,#632,#633,#634,#635,#636,#637,
#638,#639,#640));
#165=EDGE_LOOP('',(#641,#642,#643,#644,#645,#646,#647,#648,#649));
#166=EDGE_LOOP('',(#650,#651,#652,#653));
#167=EDGE_LOOP('',(#654));
#168=EDGE_LOOP('',(#655));
#169=EDGE_LOOP('',(#656,#657,#658,#659,#660,#661,#662,#663,#664,#665,#666,
#667,#668,#669));
#170=EDGE_LOOP('',(#670,#671,#672,#673));
#171=EDGE_LOOP('',(#674,#675,#676,#677));
#172=EDGE_LOOP('',(#678,#679,#680,#681));
#173=EDGE_LOOP('',(#682,#683,#684,#685));
#174=EDGE_LOOP('',(#686,#687,#688,#689));
#175=EDGE_LOOP('',(#690,#691,#692,#693,#694,#695,#696));
#176=EDGE_LOOP('',(#697,#698,#699,#700));
#177=EDGE_LOOP('',(#701,#702,#703,#704));
#178=EDGE_LOOP('',(#705,#706,#707,#708));
#179=EDGE_LOOP('',(#709,#710,#711,#712));
#180=EDGE_LOOP('',(#713));
#181=EDGE_LOOP('',(#714,#715,#716,#717));
#182=EDGE_LOOP('',(#718,#719,#720,#721));
#183=EDGE_LOOP('',(#722,#723,#724,#725));
#184=EDGE_LOOP('',(#726,#727,#728,#729));
#185=EDGE_LOOP('',(#730,#731,#732,#733));
#186=EDGE_LOOP('',(#734,#735,#736,#737,#738,#739,#740,#741));
#187=EDGE_LOOP('',(#742,#743,#744,#745,#746,#747,#748,#749));
#188=EDGE_LOOP('',(#750));
#189=EDGE_LOOP('',(#751));
#190=EDGE_LOOP('',(#752,#753,#754,#755,#756,#757,#758,#759,#760));
#191=LINE('',#1150,#269);
#192=LINE('',#1152,#270);
#193=LINE('',#1154,#271);
#194=LINE('',#1155,#272);
#195=LINE('',#1173,#273);
#196=LINE('',#1196,#274);
#197=LINE('',#1219,#275);
#198=LINE('',#1242,#276);
#199=LINE('',#1265,#277);
#200=LINE('',#1288,#278);
#201=LINE('',#1296,#279);
#202=LINE('',#1298,#280);
#203=LINE('',#1299,#281);
#204=LINE('',#1301,#282);
#205=LINE('',#1302,#283);
#206=LINE('',#1306,#284);
#207=LINE('',#1308,#285);
#208=LINE('',#1310,#286);
#209=LINE('',#1311,#287);
#210=LINE('',#1314,#288);
#211=LINE('',#1316,#289);
#212=LINE('',#1317,#290);
#213=LINE('',#1320,#291);
#214=LINE('',#1322,#292);
#215=LINE('',#1323,#293);
#216=LINE('',#1326,#294);
#217=LINE('',#1328,#295);
#218=LINE('',#1329,#296);
#219=LINE('',#1332,#297);
#220=LINE('',#1334,#298);
#221=LINE('',#1335,#299);
#222=LINE('',#1353,#300);
#223=LINE('',#1376,#301);
#224=LINE('',#1399,#302);
#225=LINE('',#1422,#303);
#226=LINE('',#1445,#304);
#227=LINE('',#1468,#305);
#228=LINE('',#1476,#306);
#229=LINE('',#1478,#307);
#230=LINE('',#1479,#308);
#231=LINE('',#1482,#309);
#232=LINE('',#1484,#310);
#233=LINE('',#1485,#311);
#234=LINE('',#1487,#312);
#235=LINE('',#1488,#313);
#236=LINE('',#1493,#314);
#237=LINE('',#1495,#315);
#238=LINE('',#1497,#316);
#239=LINE('',#1498,#317);
#240=LINE('',#1508,#318);
#241=LINE('',#1511,#319);
#242=LINE('',#1514,#320);
#243=LINE('',#1516,#321);
#244=LINE('',#1517,#322);
#245=LINE('',#1520,#323);
#246=LINE('',#1522,#324);
#247=LINE('',#1523,#325);
#248=LINE('',#1530,#326);
#249=LINE('',#1535,#327);
#250=LINE('',#1537,#328);
#251=LINE('',#1539,#329);
#252=LINE('',#1540,#330);
#253=LINE('',#1545,#331);
#254=LINE('',#1549,#332);
#255=LINE('',#1551,#333);
#256=LINE('',#1552,#334);
#257=LINE('',#1554,#335);
#258=LINE('',#1558,#336);
#259=LINE('',#1562,#337);
#260=LINE('',#1565,#338);
#261=LINE('',#1567,#339);
#262=LINE('',#1568,#340);
#263=LINE('',#1571,#341);
#264=LINE('',#1572,#342);
#265=LINE('',#1575,#343);
#266=LINE('',#1576,#344);
#267=LINE('',#1578,#345);
#268=LINE('',#1579,#346);
#269=VECTOR('',#967,10.);
#270=VECTOR('',#968,10.);
#271=VECTOR('',#969,10.);
#272=VECTOR('',#970,10.);
#273=VECTOR('',#971,10.);
#274=VECTOR('',#972,10.);
#275=VECTOR('',#973,10.);
#276=VECTOR('',#974,10.);
#277=VECTOR('',#975,10.);
#278=VECTOR('',#976,10.);
#279=VECTOR('',#979,10.);
#280=VECTOR('',#980,10.);
#281=VECTOR('',#981,10.);
#282=VECTOR('',#984,10.);
#283=VECTOR('',#985,10.);
#284=VECTOR('',#988,10.);
#285=VECTOR('',#989,10.);
#286=VECTOR('',#990,10.);
#287=VECTOR('',#991,10.);
#288=VECTOR('',#994,10.);
#289=VECTOR('',#995,10.);
#290=VECTOR('',#996,10.);
#291=VECTOR('',#999,10.);
#292=VECTOR('',#1000,10.);
#293=VECTOR('',#1001,10.);
#294=VECTOR('',#1004,10.);
#295=VECTOR('',#1005,10.);
#296=VECTOR('',#1006,10.);
#297=VECTOR('',#1009,10.);
#298=VECTOR('',#1010,10.);
#299=VECTOR('',#1011,10.);
#300=VECTOR('',#1012,10.);
#301=VECTOR('',#1013,10.);
#302=VECTOR('',#1014,10.);
#303=VECTOR('',#1015,10.);
#304=VECTOR('',#1016,10.);
#305=VECTOR('',#1017,10.);
#306=VECTOR('',#1020,10.);
#307=VECTOR('',#1021,10.);
#308=VECTOR('',#1022,10.);
#309=VECTOR('',#1025,10.);
#310=VECTOR('',#1026,10.);
#311=VECTOR('',#1027,10.);
#312=VECTOR('',#1030,10.);
#313=VECTOR('',#1031,10.);
#314=VECTOR('',#1036,10.);
#315=VECTOR('',#1037,10.);
#316=VECTOR('',#1038,10.);
#317=VECTOR('',#1039,10.);
#318=VECTOR('',#1048,10.);
#319=VECTOR('',#1051,10.);
#320=VECTOR('',#1054,10.);
#321=VECTOR('',#1055,10.);
#322=VECTOR('',#1056,10.);
#323=VECTOR('',#1059,10.);
#324=VECTOR('',#1060,10.);
#325=VECTOR('',#1061,10.);
#326=VECTOR('',#1072,1.4);
#327=VECTOR('',#1077,10.);
#328=VECTOR('',#1078,10.);
#329=VECTOR('',#1079,10.);
#330=VECTOR('',#1080,10.);
#331=VECTOR('',#1085,10.);
#332=VECTOR('',#1090,10.);
#333=VECTOR('',#1091,10.);
#334=VECTOR('',#1092,10.);
#335=VECTOR('',#1095,10.);
#336=VECTOR('',#1100,1.2);
#337=VECTOR('',#1105,1.2);
#338=VECTOR('',#1108,10.);
#339=VECTOR('',#1109,10.);
#340=VECTOR('',#1110,10.);
#341=VECTOR('',#1113,10.);
#342=VECTOR('',#1114,10.);
#343=VECTOR('',#1117,10.);
#344=VECTOR('',#1118,10.);
#345=VECTOR('',#1121,10.);
#346=VECTOR('',#1122,10.);
#347=VERTEX_POINT('',#1148);
#348=VERTEX_POINT('',#1149);
#349=VERTEX_POINT('',#1151);
#350=VERTEX_POINT('',#1153);
#351=VERTEX_POINT('',#1166);
#352=VERTEX_POINT('',#1172);
#353=VERTEX_POINT('',#1189);
#354=VERTEX_POINT('',#1195);
#355=VERTEX_POINT('',#1212);
#356=VERTEX_POINT('',#1218);
#357=VERTEX_POINT('',#1235);
#358=VERTEX_POINT('',#1241);
#359=VERTEX_POINT('',#1258);
#360=VERTEX_POINT('',#1264);
#361=VERTEX_POINT('',#1281);
#362=VERTEX_POINT('',#1287);
#363=VERTEX_POINT('',#1295);
#364=VERTEX_POINT('',#1297);
#365=VERTEX_POINT('',#1304);
#366=VERTEX_POINT('',#1305);
#367=VERTEX_POINT('',#1307);
#368=VERTEX_POINT('',#1309);
#369=VERTEX_POINT('',#1313);
#370=VERTEX_POINT('',#1315);
#371=VERTEX_POINT('',#1319);
#372=VERTEX_POINT('',#1321);
#373=VERTEX_POINT('',#1325);
#374=VERTEX_POINT('',#1327);
#375=VERTEX_POINT('',#1331);
#376=VERTEX_POINT('',#1333);
#377=VERTEX_POINT('',#1346);
#378=VERTEX_POINT('',#1352);
#379=VERTEX_POINT('',#1369);
#380=VERTEX_POINT('',#1375);
#381=VERTEX_POINT('',#1392);
#382=VERTEX_POINT('',#1398);
#383=VERTEX_POINT('',#1415);
#384=VERTEX_POINT('',#1421);
#385=VERTEX_POINT('',#1438);
#386=VERTEX_POINT('',#1444);
#387=VERTEX_POINT('',#1461);
#388=VERTEX_POINT('',#1467);
#389=VERTEX_POINT('',#1475);
#390=VERTEX_POINT('',#1477);
#391=VERTEX_POINT('',#1481);
#392=VERTEX_POINT('',#1483);
#393=VERTEX_POINT('',#1491);
#394=VERTEX_POINT('',#1492);
#395=VERTEX_POINT('',#1494);
#396=VERTEX_POINT('',#1496);
#397=VERTEX_POINT('',#1499);
#398=VERTEX_POINT('',#1501);
#399=VERTEX_POINT('',#1504);
#400=VERTEX_POINT('',#1505);
#401=VERTEX_POINT('',#1507);
#402=VERTEX_POINT('',#1509);
#403=VERTEX_POINT('',#1513);
#404=VERTEX_POINT('',#1515);
#405=VERTEX_POINT('',#1519);
#406=VERTEX_POINT('',#1521);
#407=VERTEX_POINT('',#1529);
#408=VERTEX_POINT('',#1533);
#409=VERTEX_POINT('',#1534);
#410=VERTEX_POINT('',#1536);
#411=VERTEX_POINT('',#1538);
#412=VERTEX_POINT('',#1542);
#413=VERTEX_POINT('',#1544);
#414=VERTEX_POINT('',#1548);
#415=VERTEX_POINT('',#1550);
#416=VERTEX_POINT('',#1556);
#417=VERTEX_POINT('',#1560);
#418=VERTEX_POINT('',#1564);
#419=VERTEX_POINT('',#1566);
#420=VERTEX_POINT('',#1570);
#421=VERTEX_POINT('',#1574);
#422=EDGE_CURVE('',#347,#348,#191,.T.);
#423=EDGE_CURVE('',#347,#349,#192,.T.);
#424=EDGE_CURVE('',#349,#350,#193,.T.);
#425=EDGE_CURVE('',#348,#350,#194,.T.);
#426=EDGE_CURVE('',#351,#347,#62,.T.);
#427=EDGE_CURVE('',#351,#352,#195,.T.);
#428=EDGE_CURVE('',#352,#349,#63,.T.);
#429=EDGE_CURVE('',#353,#351,#64,.T.);
#430=EDGE_CURVE('',#353,#354,#196,.T.);
#431=EDGE_CURVE('',#354,#352,#65,.T.);
#432=EDGE_CURVE('',#355,#353,#66,.T.);
#433=EDGE_CURVE('',#355,#356,#197,.T.);
#434=EDGE_CURVE('',#356,#354,#67,.T.);
#435=EDGE_CURVE('',#357,#355,#68,.T.);
#436=EDGE_CURVE('',#357,#358,#198,.T.);
#437=EDGE_CURVE('',#358,#356,#69,.T.);
#438=EDGE_CURVE('',#359,#357,#70,.T.);
#439=EDGE_CURVE('',#359,#360,#199,.T.);
#440=EDGE_CURVE('',#360,#358,#71,.T.);
#441=EDGE_CURVE('',#361,#359,#72,.T.);
#442=EDGE_CURVE('',#361,#362,#200,.T.);
#443=EDGE_CURVE('',#362,#360,#73,.T.);
#444=EDGE_CURVE('',#363,#361,#201,.T.);
#445=EDGE_CURVE('',#363,#364,#202,.T.);
#446=EDGE_CURVE('',#364,#362,#203,.T.);
#447=EDGE_CURVE('',#348,#363,#204,.T.);
#448=EDGE_CURVE('',#350,#364,#205,.T.);
#449=EDGE_CURVE('',#365,#366,#206,.T.);
#450=EDGE_CURVE('',#365,#367,#207,.T.);
#451=EDGE_CURVE('',#367,#368,#208,.T.);
#452=EDGE_CURVE('',#366,#368,#209,.T.);
#453=EDGE_CURVE('',#369,#365,#210,.T.);
#454=EDGE_CURVE('',#369,#370,#211,.T.);
#455=EDGE_CURVE('',#370,#367,#212,.T.);
#456=EDGE_CURVE('',#371,#369,#213,.T.);
#457=EDGE_CURVE('',#371,#372,#214,.T.);
#458=EDGE_CURVE('',#372,#370,#215,.T.);
#459=EDGE_CURVE('',#373,#371,#216,.T.);
#460=EDGE_CURVE('',#373,#374,#217,.T.);
#461=EDGE_CURVE('',#374,#372,#218,.T.);
#462=EDGE_CURVE('',#375,#373,#219,.T.);
#463=EDGE_CURVE('',#375,#376,#220,.T.);
#464=EDGE_CURVE('',#376,#374,#221,.T.);
#465=EDGE_CURVE('',#377,#375,#74,.T.);
#466=EDGE_CURVE('',#377,#378,#222,.T.);
#467=EDGE_CURVE('',#378,#376,#75,.T.);
#468=EDGE_CURVE('',#379,#377,#76,.T.);
#469=EDGE_CURVE('',#379,#380,#223,.T.);
#470=EDGE_CURVE('',#380,#378,#77,.T.);
#471=EDGE_CURVE('',#381,#379,#78,.T.);
#472=EDGE_CURVE('',#381,#382,#224,.T.);
#473=EDGE_CURVE('',#382,#380,#79,.T.);
#474=EDGE_CURVE('',#383,#381,#80,.T.);
#475=EDGE_CURVE('',#383,#384,#225,.T.);
#476=EDGE_CURVE('',#384,#382,#81,.T.);
#477=EDGE_CURVE('',#385,#383,#82,.T.);
#478=EDGE_CURVE('',#385,#386,#226,.T.);
#479=EDGE_CURVE('',#386,#384,#83,.T.);
#480=EDGE_CURVE('',#387,#385,#84,.T.);
#481=EDGE_CURVE('',#387,#388,#227,.T.);
#482=EDGE_CURVE('',#388,#386,#85,.T.);
#483=EDGE_CURVE('',#389,#387,#228,.T.);
#484=EDGE_CURVE('',#389,#390,#229,.T.);
#485=EDGE_CURVE('',#390,#388,#230,.T.);
#486=EDGE_CURVE('',#391,#389,#231,.T.);
#487=EDGE_CURVE('',#391,#392,#232,.T.);
#488=EDGE_CURVE('',#392,#390,#233,.T.);
#489=EDGE_CURVE('',#366,#391,#234,.T.);
#490=EDGE_CURVE('',#368,#392,#235,.T.);
#491=EDGE_CURVE('',#393,#394,#236,.T.);
#492=EDGE_CURVE('',#395,#393,#237,.T.);
#493=EDGE_CURVE('',#396,#395,#238,.T.);
#494=EDGE_CURVE('',#394,#396,#239,.T.);
#495=EDGE_CURVE('',#397,#397,#44,.T.);
#496=EDGE_CURVE('',#398,#398,#45,.T.);
#497=EDGE_CURVE('',#399,#400,#46,.T.);
#498=EDGE_CURVE('',#399,#401,#240,.T.);
#499=EDGE_CURVE('',#402,#401,#47,.T.);
#500=EDGE_CURVE('',#400,#402,#241,.T.);
#501=EDGE_CURVE('',#400,#403,#242,.T.);
#502=EDGE_CURVE('',#404,#402,#243,.T.);
#503=EDGE_CURVE('',#403,#404,#244,.T.);
#504=EDGE_CURVE('',#405,#399,#245,.T.);
#505=EDGE_CURVE('',#405,#406,#246,.T.);
#506=EDGE_CURVE('',#401,#406,#247,.T.);
#507=EDGE_CURVE('',#406,#404,#48,.T.);
#508=EDGE_CURVE('',#403,#405,#49,.T.);
#509=EDGE_CURVE('',#405,#407,#248,.T.);
#510=EDGE_CURVE('',#407,#407,#50,.T.);
#511=EDGE_CURVE('',#408,#409,#249,.T.);
#512=EDGE_CURVE('',#408,#410,#250,.T.);
#513=EDGE_CURVE('',#411,#410,#251,.T.);
#514=EDGE_CURVE('',#409,#411,#252,.T.);
#515=EDGE_CURVE('',#412,#408,#51,.T.);
#516=EDGE_CURVE('',#412,#413,#253,.T.);
#517=EDGE_CURVE('',#410,#413,#52,.T.);
#518=EDGE_CURVE('',#414,#412,#254,.T.);
#519=EDGE_CURVE('',#414,#415,#255,.T.);
#520=EDGE_CURVE('',#413,#415,#256,.T.);
#521=EDGE_CURVE('',#415,#411,#257,.T.);
#522=EDGE_CURVE('',#416,#416,#53,.T.);
#523=EDGE_CURVE('',#416,#397,#258,.T.);
#524=EDGE_CURVE('',#417,#417,#54,.T.);
#525=EDGE_CURVE('',#417,#398,#259,.T.);
#526=EDGE_CURVE('',#393,#418,#260,.T.);
#527=EDGE_CURVE('',#419,#418,#261,.T.);
#528=EDGE_CURVE('',#395,#419,#262,.T.);
#529=EDGE_CURVE('',#420,#419,#263,.T.);
#530=EDGE_CURVE('',#396,#420,#264,.T.);
#531=EDGE_CURVE('',#421,#420,#265,.T.);
#532=EDGE_CURVE('',#394,#421,#266,.T.);
#533=EDGE_CURVE('',#409,#421,#267,.T.);
#534=EDGE_CURVE('',#418,#414,#268,.T.);
#535=ORIENTED_EDGE('',*,*,#422,.F.);
#536=ORIENTED_EDGE('',*,*,#423,.T.);
#537=ORIENTED_EDGE('',*,*,#424,.T.);
#538=ORIENTED_EDGE('',*,*,#425,.F.);
#539=ORIENTED_EDGE('',*,*,#426,.F.);
#540=ORIENTED_EDGE('',*,*,#427,.T.);
#541=ORIENTED_EDGE('',*,*,#428,.T.);
#542=ORIENTED_EDGE('',*,*,#423,.F.);
#543=ORIENTED_EDGE('',*,*,#429,.F.);
#544=ORIENTED_EDGE('',*,*,#430,.T.);
#545=ORIENTED_EDGE('',*,*,#431,.T.);
#546=ORIENTED_EDGE('',*,*,#427,.F.);
#547=ORIENTED_EDGE('',*,*,#432,.F.);
#548=ORIENTED_EDGE('',*,*,#433,.T.);
#549=ORIENTED_EDGE('',*,*,#434,.T.);
#550=ORIENTED_EDGE('',*,*,#430,.F.);
#551=ORIENTED_EDGE('',*,*,#435,.F.);
#552=ORIENTED_EDGE('',*,*,#436,.T.);
#553=ORIENTED_EDGE('',*,*,#437,.T.);
#554=ORIENTED_EDGE('',*,*,#433,.F.);
#555=ORIENTED_EDGE('',*,*,#438,.F.);
#556=ORIENTED_EDGE('',*,*,#439,.T.);
#557=ORIENTED_EDGE('',*,*,#440,.T.);
#558=ORIENTED_EDGE('',*,*,#436,.F.);
#559=ORIENTED_EDGE('',*,*,#441,.F.);
#560=ORIENTED_EDGE('',*,*,#442,.T.);
#561=ORIENTED_EDGE('',*,*,#443,.T.);
#562=ORIENTED_EDGE('',*,*,#439,.F.);
#563=ORIENTED_EDGE('',*,*,#444,.F.);
#564=ORIENTED_EDGE('',*,*,#445,.T.);
#565=ORIENTED_EDGE('',*,*,#446,.T.);
#566=ORIENTED_EDGE('',*,*,#442,.F.);
#567=ORIENTED_EDGE('',*,*,#447,.F.);
#568=ORIENTED_EDGE('',*,*,#425,.T.);
#569=ORIENTED_EDGE('',*,*,#448,.T.);
#570=ORIENTED_EDGE('',*,*,#445,.F.);
#571=ORIENTED_EDGE('',*,*,#449,.F.);
#572=ORIENTED_EDGE('',*,*,#450,.T.);
#573=ORIENTED_EDGE('',*,*,#451,.T.);
#574=ORIENTED_EDGE('',*,*,#452,.F.);
#575=ORIENTED_EDGE('',*,*,#453,.F.);
#576=ORIENTED_EDGE('',*,*,#454,.T.);
#577=ORIENTED_EDGE('',*,*,#455,.T.);
#578=ORIENTED_EDGE('',*,*,#450,.F.);
#579=ORIENTED_EDGE('',*,*,#456,.F.);
#580=ORIENTED_EDGE('',*,*,#457,.T.);
#581=ORIENTED_EDGE('',*,*,#458,.T.);
#582=ORIENTED_EDGE('',*,*,#454,.F.);
#583=ORIENTED_EDGE('',*,*,#459,.F.);
#584=ORIENTED_EDGE('',*,*,#460,.T.);
#585=ORIENTED_EDGE('',*,*,#461,.T.);
#586=ORIENTED_EDGE('',*,*,#457,.F.);
#587=ORIENTED_EDGE('',*,*,#462,.F.);
#588=ORIENTED_EDGE('',*,*,#463,.T.);
#589=ORIENTED_EDGE('',*,*,#464,.T.);
#590=ORIENTED_EDGE('',*,*,#460,.F.);
#591=ORIENTED_EDGE('',*,*,#465,.F.);
#592=ORIENTED_EDGE('',*,*,#466,.T.);
#593=ORIENTED_EDGE('',*,*,#467,.T.);
#594=ORIENTED_EDGE('',*,*,#463,.F.);
#595=ORIENTED_EDGE('',*,*,#468,.F.);
#596=ORIENTED_EDGE('',*,*,#469,.T.);
#597=ORIENTED_EDGE('',*,*,#470,.T.);
#598=ORIENTED_EDGE('',*,*,#466,.F.);
#599=ORIENTED_EDGE('',*,*,#471,.F.);
#600=ORIENTED_EDGE('',*,*,#472,.T.);
#601=ORIENTED_EDGE('',*,*,#473,.T.);
#602=ORIENTED_EDGE('',*,*,#469,.F.);
#603=ORIENTED_EDGE('',*,*,#474,.F.);
#604=ORIENTED_EDGE('',*,*,#475,.T.);
#605=ORIENTED_EDGE('',*,*,#476,.T.);
#606=ORIENTED_EDGE('',*,*,#472,.F.);
#607=ORIENTED_EDGE('',*,*,#477,.F.);
#608=ORIENTED_EDGE('',*,*,#478,.T.);
#609=ORIENTED_EDGE('',*,*,#479,.T.);
#610=ORIENTED_EDGE('',*,*,#475,.F.);
#611=ORIENTED_EDGE('',*,*,#480,.F.);
#612=ORIENTED_EDGE('',*,*,#481,.T.);
#613=ORIENTED_EDGE('',*,*,#482,.T.);
#614=ORIENTED_EDGE('',*,*,#478,.F.);
#615=ORIENTED_EDGE('',*,*,#483,.F.);
#616=ORIENTED_EDGE('',*,*,#484,.T.);
#617=ORIENTED_EDGE('',*,*,#485,.T.);
#618=ORIENTED_EDGE('',*,*,#481,.F.);
#619=ORIENTED_EDGE('',*,*,#486,.F.);
#620=ORIENTED_EDGE('',*,*,#487,.T.);
#621=ORIENTED_EDGE('',*,*,#488,.T.);
#622=ORIENTED_EDGE('',*,*,#484,.F.);
#623=ORIENTED_EDGE('',*,*,#489,.F.);
#624=ORIENTED_EDGE('',*,*,#452,.T.);
#625=ORIENTED_EDGE('',*,*,#490,.T.);
#626=ORIENTED_EDGE('',*,*,#487,.F.);
#627=ORIENTED_EDGE('',*,*,#490,.F.);
#628=ORIENTED_EDGE('',*,*,#451,.F.);
#629=ORIENTED_EDGE('',*,*,#455,.F.);
#630=ORIENTED_EDGE('',*,*,#458,.F.);
#631=ORIENTED_EDGE('',*,*,#461,.F.);
#632=ORIENTED_EDGE('',*,*,#464,.F.);
#633=ORIENTED_EDGE('',*,*,#467,.F.);
#634=ORIENTED_EDGE('',*,*,#470,.F.);
#635=ORIENTED_EDGE('',*,*,#473,.F.);
#636=ORIENTED_EDGE('',*,*,#476,.F.);
#637=ORIENTED_EDGE('',*,*,#479,.F.);
#638=ORIENTED_EDGE('',*,*,#482,.F.);
#639=ORIENTED_EDGE('',*,*,#485,.F.);
#640=ORIENTED_EDGE('',*,*,#488,.F.);
#641=ORIENTED_EDGE('',*,*,#448,.F.);
#642=ORIENTED_EDGE('',*,*,#424,.F.);
#643=ORIENTED_EDGE('',*,*,#428,.F.);
#644=ORIENTED_EDGE('',*,*,#431,.F.);
#645=ORIENTED_EDGE('',*,*,#434,.F.);
#646=ORIENTED_EDGE('',*,*,#437,.F.);
#647=ORIENTED_EDGE('',*,*,#440,.F.);
#648=ORIENTED_EDGE('',*,*,#443,.F.);
#649=ORIENTED_EDGE('',*,*,#446,.F.);
#650=ORIENTED_EDGE('',*,*,#491,.F.);
#651=ORIENTED_EDGE('',*,*,#492,.F.);
#652=ORIENTED_EDGE('',*,*,#493,.F.);
#653=ORIENTED_EDGE('',*,*,#494,.F.);
#654=ORIENTED_EDGE('',*,*,#495,.F.);
#655=ORIENTED_EDGE('',*,*,#496,.F.);
#656=ORIENTED_EDGE('',*,*,#449,.T.);
#657=ORIENTED_EDGE('',*,*,#489,.T.);
#658=ORIENTED_EDGE('',*,*,#486,.T.);
#659=ORIENTED_EDGE('',*,*,#483,.T.);
#660=ORIENTED_EDGE('',*,*,#480,.T.);
#661=ORIENTED_EDGE('',*,*,#477,.T.);
#662=ORIENTED_EDGE('',*,*,#474,.T.);
#663=ORIENTED_EDGE('',*,*,#471,.T.);
#664=ORIENTED_EDGE('',*,*,#468,.T.);
#665=ORIENTED_EDGE('',*,*,#465,.T.);
#666=ORIENTED_EDGE('',*,*,#462,.T.);
#667=ORIENTED_EDGE('',*,*,#459,.T.);
#668=ORIENTED_EDGE('',*,*,#456,.T.);
#669=ORIENTED_EDGE('',*,*,#453,.T.);
#670=ORIENTED_EDGE('',*,*,#497,.F.);
#671=ORIENTED_EDGE('',*,*,#498,.T.);
#672=ORIENTED_EDGE('',*,*,#499,.F.);
#673=ORIENTED_EDGE('',*,*,#500,.F.);
#674=ORIENTED_EDGE('',*,*,#501,.F.);
#675=ORIENTED_EDGE('',*,*,#500,.T.);
#676=ORIENTED_EDGE('',*,*,#502,.F.);
#677=ORIENTED_EDGE('',*,*,#503,.F.);
#678=ORIENTED_EDGE('',*,*,#504,.F.);
#679=ORIENTED_EDGE('',*,*,#505,.T.);
#680=ORIENTED_EDGE('',*,*,#506,.F.);
#681=ORIENTED_EDGE('',*,*,#498,.F.);
#682=ORIENTED_EDGE('',*,*,#506,.T.);
#683=ORIENTED_EDGE('',*,*,#507,.T.);
#684=ORIENTED_EDGE('',*,*,#502,.T.);
#685=ORIENTED_EDGE('',*,*,#499,.T.);
#686=ORIENTED_EDGE('',*,*,#508,.T.);
#687=ORIENTED_EDGE('',*,*,#504,.T.);
#688=ORIENTED_EDGE('',*,*,#497,.T.);
#689=ORIENTED_EDGE('',*,*,#501,.T.);
#690=ORIENTED_EDGE('',*,*,#508,.F.);
#691=ORIENTED_EDGE('',*,*,#503,.T.);
#692=ORIENTED_EDGE('',*,*,#507,.F.);
#693=ORIENTED_EDGE('',*,*,#505,.F.);
#694=ORIENTED_EDGE('',*,*,#509,.T.);
#695=ORIENTED_EDGE('',*,*,#510,.F.);
#696=ORIENTED_EDGE('',*,*,#509,.F.);
#697=ORIENTED_EDGE('',*,*,#511,.F.);
#698=ORIENTED_EDGE('',*,*,#512,.T.);
#699=ORIENTED_EDGE('',*,*,#513,.F.);
#700=ORIENTED_EDGE('',*,*,#514,.F.);
#701=ORIENTED_EDGE('',*,*,#515,.F.);
#702=ORIENTED_EDGE('',*,*,#516,.T.);
#703=ORIENTED_EDGE('',*,*,#517,.F.);
#704=ORIENTED_EDGE('',*,*,#512,.F.);
#705=ORIENTED_EDGE('',*,*,#518,.F.);
#706=ORIENTED_EDGE('',*,*,#519,.T.);
#707=ORIENTED_EDGE('',*,*,#520,.F.);
#708=ORIENTED_EDGE('',*,*,#516,.F.);
#709=ORIENTED_EDGE('',*,*,#520,.T.);
#710=ORIENTED_EDGE('',*,*,#521,.T.);
#711=ORIENTED_EDGE('',*,*,#513,.T.);
#712=ORIENTED_EDGE('',*,*,#517,.T.);
#713=ORIENTED_EDGE('',*,*,#510,.T.);
#714=ORIENTED_EDGE('',*,*,#522,.F.);
#715=ORIENTED_EDGE('',*,*,#523,.T.);
#716=ORIENTED_EDGE('',*,*,#495,.T.);
#717=ORIENTED_EDGE('',*,*,#523,.F.);
#718=ORIENTED_EDGE('',*,*,#524,.F.);
#719=ORIENTED_EDGE('',*,*,#525,.T.);
#720=ORIENTED_EDGE('',*,*,#496,.T.);
#721=ORIENTED_EDGE('',*,*,#525,.F.);
#722=ORIENTED_EDGE('',*,*,#492,.T.);
#723=ORIENTED_EDGE('',*,*,#526,.T.);
#724=ORIENTED_EDGE('',*,*,#527,.F.);
#725=ORIENTED_EDGE('',*,*,#528,.F.);
#726=ORIENTED_EDGE('',*,*,#493,.T.);
#727=ORIENTED_EDGE('',*,*,#528,.T.);
#728=ORIENTED_EDGE('',*,*,#529,.F.);
#729=ORIENTED_EDGE('',*,*,#530,.F.);
#730=ORIENTED_EDGE('',*,*,#494,.T.);
#731=ORIENTED_EDGE('',*,*,#530,.T.);
#732=ORIENTED_EDGE('',*,*,#531,.F.);
#733=ORIENTED_EDGE('',*,*,#532,.F.);
#734=ORIENTED_EDGE('',*,*,#491,.T.);
#735=ORIENTED_EDGE('',*,*,#532,.T.);
#736=ORIENTED_EDGE('',*,*,#533,.F.);
#737=ORIENTED_EDGE('',*,*,#514,.T.);
#738=ORIENTED_EDGE('',*,*,#521,.F.);
#739=ORIENTED_EDGE('',*,*,#519,.F.);
#740=ORIENTED_EDGE('',*,*,#534,.F.);
#741=ORIENTED_EDGE('',*,*,#526,.F.);
#742=ORIENTED_EDGE('',*,*,#515,.T.);
#743=ORIENTED_EDGE('',*,*,#511,.T.);
#744=ORIENTED_EDGE('',*,*,#533,.T.);
#745=ORIENTED_EDGE('',*,*,#531,.T.);
#746=ORIENTED_EDGE('',*,*,#529,.T.);
#747=ORIENTED_EDGE('',*,*,#527,.T.);
#748=ORIENTED_EDGE('',*,*,#534,.T.);
#749=ORIENTED_EDGE('',*,*,#518,.T.);
#750=ORIENTED_EDGE('',*,*,#524,.T.);
#751=ORIENTED_EDGE('',*,*,#522,.T.);
#752=ORIENTED_EDGE('',*,*,#422,.T.);
#753=ORIENTED_EDGE('',*,*,#447,.T.);
#754=ORIENTED_EDGE('',*,*,#444,.T.);
#755=ORIENTED_EDGE('',*,*,#441,.T.);
#756=ORIENTED_EDGE('',*,*,#438,.T.);
#757=ORIENTED_EDGE('',*,*,#435,.T.);
#758=ORIENTED_EDGE('',*,*,#432,.T.);
#759=ORIENTED_EDGE('',*,*,#429,.T.);
#760=ORIENTED_EDGE('',*,*,#426,.T.);
#761=PLANE('',#904);
#762=PLANE('',#905);
#763=PLANE('',#906);
#764=PLANE('',#907);
#765=PLANE('',#908);
#766=PLANE('',#909);
#767=PLANE('',#910);
#768=PLANE('',#911);
#769=PLANE('',#912);
#770=PLANE('',#913);
#771=PLANE('',#914);
#772=PLANE('',#915);
#773=PLANE('',#916);
#774=PLANE('',#922);
#775=PLANE('',#923);
#776=PLANE('',#924);
#777=PLANE('',#926);
#778=PLANE('',#930);
#779=PLANE('',#934);
#780=PLANE('',#935);
#781=PLANE('',#940);
#782=PLANE('',#941);
#783=PLANE('',#942);
#784=PLANE('',#943);
#785=PLANE('',#944);
#786=PLANE('',#945);
#787=ADVANCED_FACE('',(#98),#761,.F.);
#788=ADVANCED_FACE('',(#99),#86,.F.);
#789=ADVANCED_FACE('',(#100),#87,.F.);
#790=ADVANCED_FACE('',(#101),#88,.F.);
#791=ADVANCED_FACE('',(#102),#89,.F.);
#792=ADVANCED_FACE('',(#103),#90,.F.);
#793=ADVANCED_FACE('',(#104),#91,.F.);
#794=ADVANCED_FACE('',(#105),#762,.F.);
#795=ADVANCED_FACE('',(#106),#763,.F.);
#796=ADVANCED_FACE('',(#107),#764,.F.);
#797=ADVANCED_FACE('',(#108),#765,.F.);
#798=ADVANCED_FACE('',(#109),#766,.F.);
#799=ADVANCED_FACE('',(#110),#767,.F.);
#800=ADVANCED_FACE('',(#111),#768,.F.);
#801=ADVANCED_FACE('',(#112),#92,.F.);
#802=ADVANCED_FACE('',(#113),#93,.F.);
#803=ADVANCED_FACE('',(#114),#94,.F.);
#804=ADVANCED_FACE('',(#115),#95,.F.);
#805=ADVANCED_FACE('',(#116),#96,.F.);
#806=ADVANCED_FACE('',(#117),#97,.F.);
#807=ADVANCED_FACE('',(#118),#769,.F.);
#808=ADVANCED_FACE('',(#119),#770,.F.);
#809=ADVANCED_FACE('',(#120),#771,.F.);
#810=ADVANCED_FACE('',(#121,#55),#772,.T.);
#811=ADVANCED_FACE('',(#122,#56,#57,#58),#773,.F.);
#812=ADVANCED_FACE('',(#123),#39,.T.);
#813=ADVANCED_FACE('',(#124),#774,.T.);
#814=ADVANCED_FACE('',(#125),#775,.T.);
#815=ADVANCED_FACE('',(#126),#776,.T.);
#816=ADVANCED_FACE('',(#127),#777,.F.);
#817=ADVANCED_FACE('',(#128),#40,.T.);
#818=ADVANCED_FACE('',(#129),#778,.T.);
#819=ADVANCED_FACE('',(#130),#41,.T.);
#820=ADVANCED_FACE('',(#131),#779,.T.);
#821=ADVANCED_FACE('',(#132,#59),#780,.T.);
#822=ADVANCED_FACE('',(#133),#42,.F.);
#823=ADVANCED_FACE('',(#134),#43,.F.);
#824=ADVANCED_FACE('',(#135),#781,.T.);
#825=ADVANCED_FACE('',(#136),#782,.T.);
#826=ADVANCED_FACE('',(#137),#783,.T.);
#827=ADVANCED_FACE('',(#138),#784,.T.);
#828=ADVANCED_FACE('',(#139,#60,#61),#785,.T.);
#829=ADVANCED_FACE('',(#140),#786,.F.);
#830=CLOSED_SHELL('',(#787,#788,#789,#790,#791,#792,#793,#794,#795,#796,
#797,#798,#799,#800,#801,#802,#803,#804,#805,#806,#807,#808,#809,#810,#811,
#812,#813,#814,#815,#816,#817,#818,#819,#820,#821,#822,#823,#824,#825,#826,
#827,#828,#829));
#831=DERIVED_UNIT_ELEMENT(#843,1.);
#832=DERIVED_UNIT_ELEMENT(#1606,-3.);
#833=DERIVED_UNIT_ELEMENT(#843,1.);
#834=DERIVED_UNIT_ELEMENT(#1606,-3.);
#835=DERIVED_UNIT_ELEMENT(#843,1.);
#836=DERIVED_UNIT_ELEMENT(#1606,-3.);
#837=DERIVED_UNIT_ELEMENT(#843,1.);
#838=DERIVED_UNIT_ELEMENT(#1606,-3.);
#839=DERIVED_UNIT_ELEMENT(#843,1.);
#840=DERIVED_UNIT_ELEMENT(#1606,-3.);
#841=DERIVED_UNIT_ELEMENT(#843,1.);
#842=DERIVED_UNIT_ELEMENT(#1606,-3.);
#843=(
MASS_UNIT()
NAMED_UNIT(*)
SI_UNIT(.KILO.,.GRAM.)
);
#844=DERIVED_UNIT((#831,#832));
#845=DERIVED_UNIT((#833,#834));
#846=DERIVED_UNIT((#835,#836));
#847=DERIVED_UNIT((#837,#838));
#848=DERIVED_UNIT((#839,#840));
#849=DERIVED_UNIT((#841,#842));
#850=MEASURE_REPRESENTATION_ITEM('density measure',
POSITIVE_RATIO_MEASURE(7850.),#844);
#851=MEASURE_REPRESENTATION_ITEM('density measure',
POSITIVE_RATIO_MEASURE(7850.),#845);
#852=MEASURE_REPRESENTATION_ITEM('density measure',
POSITIVE_RATIO_MEASURE(7850.),#846);
#853=MEASURE_REPRESENTATION_ITEM('density measure',
POSITIVE_RATIO_MEASURE(7850.),#847);
#854=MEASURE_REPRESENTATION_ITEM('density measure',
POSITIVE_RATIO_MEASURE(7850.),#848);
#855=MEASURE_REPRESENTATION_ITEM('density measure',
POSITIVE_RATIO_MEASURE(7850.),#849);
#856=PROPERTY_DEFINITION_REPRESENTATION(#886,#868);
#857=PROPERTY_DEFINITION_REPRESENTATION(#887,#869);
#858=PROPERTY_DEFINITION_REPRESENTATION(#888,#870);
#859=PROPERTY_DEFINITION_REPRESENTATION(#889,#871);
#860=PROPERTY_DEFINITION_REPRESENTATION(#890,#872);
#861=PROPERTY_DEFINITION_REPRESENTATION(#891,#873);
#862=PROPERTY_DEFINITION_REPRESENTATION(#892,#874);
#863=PROPERTY_DEFINITION_REPRESENTATION(#893,#875);
#864=PROPERTY_DEFINITION_REPRESENTATION(#894,#876);
#865=PROPERTY_DEFINITION_REPRESENTATION(#895,#877);
#866=PROPERTY_DEFINITION_REPRESENTATION(#896,#878);
#867=PROPERTY_DEFINITION_REPRESENTATION(#897,#879);
#868=REPRESENTATION('material name',(#880),#1598);
#869=REPRESENTATION('density',(#850),#1598);
#870=REPRESENTATION('material name',(#881),#1599);
#871=REPRESENTATION('density',(#851),#1599);
#872=REPRESENTATION('material name',(#882),#1600);
#873=REPRESENTATION('density',(#852),#1600);
#874=REPRESENTATION('material name',(#883),#1601);
#875=REPRESENTATION('density',(#853),#1601);
#876=REPRESENTATION('material name',(#884),#1602);
#877=REPRESENTATION('density',(#854),#1602);
#878=REPRESENTATION('material name',(#885),#1603);
#879=REPRESENTATION('density',(#855),#1603);
#880=DESCRIPTIVE_REPRESENTATION_ITEM('Steel','Steel');
#881=DESCRIPTIVE_REPRESENTATION_ITEM('Steel','Steel');
#882=DESCRIPTIVE_REPRESENTATION_ITEM('Steel','Steel');
#883=DESCRIPTIVE_REPRESENTATION_ITEM('Steel','Steel');
#884=DESCRIPTIVE_REPRESENTATION_ITEM('Steel','Steel');
#885=DESCRIPTIVE_REPRESENTATION_ITEM('Steel','Steel');
#886=PROPERTY_DEFINITION('material property','material name',#1638);
#887=PROPERTY_DEFINITION('material property','density of part',#1638);
#888=PROPERTY_DEFINITION('material property','material name',#1639);
#889=PROPERTY_DEFINITION('material property','density of part',#1639);
#890=PROPERTY_DEFINITION('material property','material name',#1640);
#891=PROPERTY_DEFINITION('material property','density of part',#1640);
#892=PROPERTY_DEFINITION('material property','material name',#1641);
#893=PROPERTY_DEFINITION('material property','density of part',#1641);
#894=PROPERTY_DEFINITION('material property','material name',#1642);
#895=PROPERTY_DEFINITION('material property','density of part',#1642);
#896=PROPERTY_DEFINITION('material property','material name',#1643);
#897=PROPERTY_DEFINITION('material property','density of part',#1643);
#898=AXIS2_PLACEMENT_3D('',#1141,#953,#954);
#899=AXIS2_PLACEMENT_3D('',#1142,#955,#956);
#900=AXIS2_PLACEMENT_3D('',#1143,#957,#958);
#901=AXIS2_PLACEMENT_3D('',#1144,#959,#960);
#902=AXIS2_PLACEMENT_3D('',#1145,#961,#962);
#903=AXIS2_PLACEMENT_3D('',#1146,#963,#964);
#904=AXIS2_PLACEMENT_3D('',#1147,#965,#966);
#905=AXIS2_PLACEMENT_3D('',#1294,#977,#978);
#906=AXIS2_PLACEMENT_3D('',#1300,#982,#983);
#907=AXIS2_PLACEMENT_3D('',#1303,#986,#987);
#908=AXIS2_PLACEMENT_3D('',#1312,#992,#993);
#909=AXIS2_PLACEMENT_3D('',#1318,#997,#998);
#910=AXIS2_PLACEMENT_3D('',#1324,#1002,#1003);
#911=AXIS2_PLACEMENT_3D('',#1330,#1007,#1008);
#912=AXIS2_PLACEMENT_3D('',#1474,#1018,#1019);
#913=AXIS2_PLACEMENT_3D('',#1480,#1023,#1024);
#914=AXIS2_PLACEMENT_3D('',#1486,#1028,#1029);
#915=AXIS2_PLACEMENT_3D('',#1489,#1032,#1033);
#916=AXIS2_PLACEMENT_3D('',#1490,#1034,#1035);
#917=AXIS2_PLACEMENT_3D('',#1500,#1040,#1041);
#918=AXIS2_PLACEMENT_3D('',#1502,#1042,#1043);
#919=AXIS2_PLACEMENT_3D('',#1503,#1044,#1045);
#920=AXIS2_PLACEMENT_3D('',#1506,#1046,#1047);
#921=AXIS2_PLACEMENT_3D('',#1510,#1049,#1050);
#922=AXIS2_PLACEMENT_3D('',#1512,#1052,#1053);
#923=AXIS2_PLACEMENT_3D('',#1518,#1057,#1058);
#924=AXIS2_PLACEMENT_3D('',#1524,#1062,#1063);
#925=AXIS2_PLACEMENT_3D('',#1525,#1064,#1065);
#926=AXIS2_PLACEMENT_3D('',#1526,#1066,#1067);
#927=AXIS2_PLACEMENT_3D('',#1527,#1068,#1069);
#928=AXIS2_PLACEMENT_3D('',#1528,#1070,#1071);
#929=AXIS2_PLACEMENT_3D('',#1531,#1073,#1074);
#930=AXIS2_PLACEMENT_3D('',#1532,#1075,#1076);
#931=AXIS2_PLACEMENT_3D('',#1541,#1081,#1082);
#932=AXIS2_PLACEMENT_3D('',#1543,#1083,#1084);
#933=AXIS2_PLACEMENT_3D('',#1546,#1086,#1087);
#934=AXIS2_PLACEMENT_3D('',#1547,#1088,#1089);
#935=AXIS2_PLACEMENT_3D('',#1553,#1093,#1094);
#936=AXIS2_PLACEMENT_3D('',#1555,#1096,#1097);
#937=AXIS2_PLACEMENT_3D('',#1557,#1098,#1099);
#938=AXIS2_PLACEMENT_3D('',#1559,#1101,#1102);
#939=AXIS2_PLACEMENT_3D('',#1561,#1103,#1104);
#940=AXIS2_PLACEMENT_3D('',#1563,#1106,#1107);
#941=AXIS2_PLACEMENT_3D('',#1569,#1111,#1112);
#942=AXIS2_PLACEMENT_3D('',#1573,#1115,#1116);
#943=AXIS2_PLACEMENT_3D('',#1577,#1119,#1120);
#944=AXIS2_PLACEMENT_3D('',#1580,#1123,#1124);
#945=AXIS2_PLACEMENT_3D('',#1581,#1125,#1126);
#946=AXIS2_PLACEMENT_3D('',#1582,#1127,#1128);
#947=AXIS2_PLACEMENT_3D('',#1583,#1129,#1130);
#948=AXIS2_PLACEMENT_3D('',#1584,#1131,#1132);
#949=AXIS2_PLACEMENT_3D('',#1585,#1133,#1134);
#950=AXIS2_PLACEMENT_3D('',#1586,#1135,#1136);
#951=AXIS2_PLACEMENT_3D('',#1587,#1137,#1138);
#952=AXIS2_PLACEMENT_3D('',#1588,#1139,#1140);
#953=DIRECTION('axis',(0.,0.,1.));
#954=DIRECTION('refdir',(1.,0.,0.));
#955=DIRECTION('axis',(0.,0.,1.));
#956=DIRECTION('refdir',(1.,0.,0.));
#957=DIRECTION('axis',(0.,0.,1.));
#958=DIRECTION('refdir',(1.,0.,0.));
#959=DIRECTION('axis',(0.,0.,1.));
#960=DIRECTION('refdir',(1.,0.,0.));
#961=DIRECTION('axis',(0.,0.,1.));
#962=DIRECTION('refdir',(1.,0.,0.));
#963=DIRECTION('axis',(0.,0.,1.));
#964=DIRECTION('refdir',(1.,0.,0.));
#965=DIRECTION('center_axis',(0.000126262007896234,-0.999999992028953,0.));
#966=DIRECTION('ref_axis',(0.999999992028953,0.000126262007896234,0.));
#967=DIRECTION('',(0.999999992028953,0.000126262007896234,0.));
#968=DIRECTION('',(0.,0.,1.));
#969=DIRECTION('',(0.999999992028953,0.000126262007896234,0.));
#970=DIRECTION('',(0.,0.,1.));
#971=DIRECTION('',(0.,0.,1.));
#972=DIRECTION('',(0.,0.,1.));
#973=DIRECTION('',(0.,0.,1.));
#974=DIRECTION('',(0.,0.,1.));
#975=DIRECTION('',(0.,0.,1.));
#976=DIRECTION('',(0.,0.,1.));
#977=DIRECTION('center_axis',(-0.000126262007896234,0.999999992028953,0.));
#978=DIRECTION('ref_axis',(-0.999999992028953,-0.000126262007896234,0.));
#979=DIRECTION('',(-0.999999992028953,-0.000126262007896234,0.));
#980=DIRECTION('',(0.,0.,1.));
#981=DIRECTION('',(-0.999999992028953,-0.000126262007896234,0.));
#982=DIRECTION('center_axis',(-0.999999992028953,-0.00012626200685683,0.));
#983=DIRECTION('ref_axis',(0.00012626200685683,-0.999999992028953,0.));
#984=DIRECTION('',(0.00012626200685683,-0.999999992028953,0.));
#985=DIRECTION('',(0.00012626200685683,-0.999999992028953,0.));
#986=DIRECTION('center_axis',(-0.999999992028953,-0.000126262006857642,
0.));
#987=DIRECTION('ref_axis',(0.000126262006857642,-0.999999992028953,0.));
#988=DIRECTION('',(0.000126262006857642,-0.999999992028953,0.));
#989=DIRECTION('',(0.,0.,1.));
#990=DIRECTION('',(0.000126262006857642,-0.999999992028953,0.));
#991=DIRECTION('',(0.,0.,1.));
#992=DIRECTION('center_axis',(0.000126262007900705,-0.999999992028953,0.));
#993=DIRECTION('ref_axis',(0.999999992028953,0.000126262007900705,0.));
#994=DIRECTION('',(0.999999992028953,0.000126262007900705,0.));
#995=DIRECTION('',(0.,0.,1.));
#996=DIRECTION('',(0.999999992028953,0.000126262007900705,0.));
#997=DIRECTION('center_axis',(0.864895216068798,-0.501952453148013,0.));
#998=DIRECTION('ref_axis',(0.501952453148013,0.864895216068798,0.));
#999=DIRECTION('',(0.501952453148013,0.864895216068798,0.));
#1000=DIRECTION('',(0.,0.,1.));
#1001=DIRECTION('',(0.501952453148013,0.864895216068798,0.));
#1002=DIRECTION('center_axis',(0.000126262007905023,-0.999999992028953,
0.));
#1003=DIRECTION('ref_axis',(0.999999992028953,0.000126262007905023,0.));
#1004=DIRECTION('',(0.999999992028953,0.000126262007905023,0.));
#1005=DIRECTION('',(0.,0.,1.));
#1006=DIRECTION('',(0.999999992028953,0.000126262007905023,0.));
#1007=DIRECTION('center_axis',(-0.865557182698435,0.500810107205464,0.));
#1008=DIRECTION('ref_axis',(-0.500810107205463,-0.865557182698435,0.));
#1009=DIRECTION('',(-0.500810107205463,-0.865557182698435,0.));
#1010=DIRECTION('',(0.,0.,1.));
#1011=DIRECTION('',(-0.500810107205463,-0.865557182698435,0.));
#1012=DIRECTION('',(0.,0.,1.));
#1013=DIRECTION('',(0.,0.,1.));
#1014=DIRECTION('',(0.,0.,1.));
#1015=DIRECTION('',(0.,0.,1.));
#1016=DIRECTION('',(0.,0.,1.));
#1017=DIRECTION('',(0.,0.,1.));
#1018=DIRECTION('center_axis',(-0.000126262007895822,0.999999992028953,
0.));
#1019=DIRECTION('ref_axis',(-0.999999992028953,-0.000126262007895822,0.));
#1020=DIRECTION('',(-0.999999992028953,-0.000126262007895822,0.));
#1021=DIRECTION('',(0.,0.,1.));
#1022=DIRECTION('',(-0.999999992028953,-0.000126262007895822,0.));
#1023=DIRECTION('center_axis',(0.999999992028953,0.000126262006856947,0.));
#1024=DIRECTION('ref_axis',(-0.000126262006856947,0.999999992028953,0.));
#1025=DIRECTION('',(-0.000126262006856947,0.999999992028953,0.));
#1026=DIRECTION('',(0.,0.,1.));
#1027=DIRECTION('',(-0.000126262006856947,0.999999992028953,0.));
#1028=DIRECTION('center_axis',(0.000126262007898362,-0.999999992028953,
0.));
#1029=DIRECTION('ref_axis',(0.999999992028953,0.000126262007898362,0.));
#1030=DIRECTION('',(0.999999992028953,0.000126262007898362,0.));
#1031=DIRECTION('',(0.999999992028953,0.000126262007898362,0.));
#1032=DIRECTION('center_axis',(0.,0.,-1.));
#1033=DIRECTION('ref_axis',(1.,0.,0.));
#1034=DIRECTION('center_axis',(0.,0.,1.));
#1035=DIRECTION('ref_axis',(1.,0.,0.));
#1036=DIRECTION('',(-1.24744160067401E-15,-1.,0.));
#1037=DIRECTION('',(-1.,0.,0.));
#1038=DIRECTION('',(0.,1.,0.));
#1039=DIRECTION('',(1.,0.,0.));
#1040=DIRECTION('center_axis',(0.,0.,-1.));
#1041=DIRECTION('ref_axis',(1.,0.,0.));
#1042=DIRECTION('center_axis',(0.,0.,-1.));
#1043=DIRECTION('ref_axis',(1.,0.,0.));
#1044=DIRECTION('center_axis',(0.,0.,1.));
#1045=DIRECTION('ref_axis',(1.,0.,0.));
#1046=DIRECTION('center_axis',(0.,0.,-1.));
#1047=DIRECTION('ref_axis',(1.,0.,0.));
#1048=DIRECTION('',(0.,0.,1.));
#1049=DIRECTION('center_axis',(0.,0.,1.));
#1050=DIRECTION('ref_axis',(1.,0.,0.));
#1051=DIRECTION('',(0.,0.,1.));
#1052=DIRECTION('center_axis',(1.,0.,0.));
#1053=DIRECTION('ref_axis',(0.,1.,0.));
#1054=DIRECTION('',(0.,-1.,0.));
#1055=DIRECTION('',(0.,1.,0.));
#1056=DIRECTION('',(0.,0.,1.));
#1057=DIRECTION('center_axis',(-1.,0.,0.));
#1058=DIRECTION('ref_axis',(0.,-1.,0.));
#1059=DIRECTION('',(0.,1.,0.));
#1060=DIRECTION('',(0.,0.,1.));
#1061=DIRECTION('',(0.,-1.,0.));
#1062=DIRECTION('center_axis',(0.,0.,1.));
#1063=DIRECTION('ref_axis',(1.,0.,0.));
#1064=DIRECTION('center_axis',(0.,0.,1.));
#1065=DIRECTION('ref_axis',(1.,0.,0.));
#1066=DIRECTION('center_axis',(0.,0.,1.));
#1067=DIRECTION('ref_axis',(1.,0.,0.));
#1068=DIRECTION('center_axis',(0.,0.,1.));
#1069=DIRECTION('ref_axis',(1.,0.,0.));
#1070=DIRECTION('center_axis',(0.,0.,1.));
#1071=DIRECTION('ref_axis',(1.,0.,0.));
#1072=DIRECTION('',(0.,0.,-1.));
#1073=DIRECTION('center_axis',(0.,0.,-1.));
#1074=DIRECTION('ref_axis',(1.,0.,0.));
#1075=DIRECTION('center_axis',(0.,-1.,0.));
#1076=DIRECTION('ref_axis',(1.,0.,0.));
#1077=DIRECTION('',(-1.,0.,0.));
#1078=DIRECTION('',(0.,0.,1.));
#1079=DIRECTION('',(1.,0.,0.));
#1080=DIRECTION('',(0.,0.,1.));
#1081=DIRECTION('center_axis',(0.,0.,1.));
#1082=DIRECTION('ref_axis',(1.,0.,0.));
#1083=DIRECTION('center_axis',(0.,0.,-1.));
#1084=DIRECTION('ref_axis',(1.,0.,0.));
#1085=DIRECTION('',(0.,0.,1.));
#1086=DIRECTION('center_axis',(0.,0.,1.));
#1087=DIRECTION('ref_axis',(1.,0.,0.));
#1088=DIRECTION('center_axis',(0.,1.,0.));
#1089=DIRECTION('ref_axis',(-1.,0.,0.));
#1090=DIRECTION('',(1.,0.,0.));
#1091=DIRECTION('',(0.,0.,1.));
#1092=DIRECTION('',(-1.,0.,0.));
#1093=DIRECTION('center_axis',(0.,0.,1.));
#1094=DIRECTION('ref_axis',(1.,0.,0.));
#1095=DIRECTION('',(-1.24744160067401E-15,-1.,0.));
#1096=DIRECTION('center_axis',(0.,0.,1.));
#1097=DIRECTION('ref_axis',(1.,0.,0.));
#1098=DIRECTION('center_axis',(0.,0.,-1.));
#1099=DIRECTION('ref_axis',(1.,0.,0.));
#1100=DIRECTION('',(0.,0.,-1.));
#1101=DIRECTION('center_axis',(0.,0.,1.));
#1102=DIRECTION('ref_axis',(1.,0.,0.));
#1103=DIRECTION('center_axis',(0.,0.,-1.));
#1104=DIRECTION('ref_axis',(1.,0.,0.));
#1105=DIRECTION('',(0.,0.,-1.));
#1106=DIRECTION('center_axis',(0.,1.,0.));
#1107=DIRECTION('ref_axis',(-1.,0.,0.));
#1108=DIRECTION('',(0.,0.,1.));
#1109=DIRECTION('',(-1.,0.,0.));
#1110=DIRECTION('',(0.,0.,1.));
#1111=DIRECTION('center_axis',(1.,0.,0.));
#1112=DIRECTION('ref_axis',(0.,1.,0.));
#1113=DIRECTION('',(0.,1.,0.));
#1114=DIRECTION('',(0.,0.,1.));
#1115=DIRECTION('center_axis',(0.,-1.,0.));
#1116=DIRECTION('ref_axis',(1.,0.,0.));
#1117=DIRECTION('',(1.,0.,0.));
#1118=DIRECTION('',(0.,0.,1.));
#1119=DIRECTION('center_axis',(-1.,1.24744160067401E-15,0.));
#1120=DIRECTION('ref_axis',(-1.24744160067401E-15,-1.,0.));
#1121=DIRECTION('',(-1.24744160067401E-15,-1.,0.));
#1122=DIRECTION('',(-1.24744160067401E-15,-1.,0.));
#1123=DIRECTION('center_axis',(0.,0.,1.));
#1124=DIRECTION('ref_axis',(1.,0.,0.));
#1125=DIRECTION('center_axis',(0.,0.,1.));
#1126=DIRECTION('ref_axis',(1.,0.,0.));
#1127=DIRECTION('axis',(0.,0.,1.));
#1128=DIRECTION('refdir',(1.,0.,0.));
#1129=DIRECTION('',(0.,0.,1.));
#1130=DIRECTION('',(1.,0.,0.));
#1131=DIRECTION('',(0.,0.,1.));
#1132=DIRECTION('',(1.,0.,0.));
#1133=DIRECTION('',(0.,0.,1.));
#1134=DIRECTION('',(1.,0.,0.));
#1135=DIRECTION('',(0.,0.,1.));
#1136=DIRECTION('',(1.,0.,0.));
#1137=DIRECTION('',(0.,0.,1.));
#1138=DIRECTION('',(1.,0.,0.));
#1139=DIRECTION('',(0.,0.,1.));
#1140=DIRECTION('',(1.,0.,0.));
#1141=CARTESIAN_POINT('',(0.,0.,0.));
#1142=CARTESIAN_POINT('',(0.,0.,0.));
#1143=CARTESIAN_POINT('',(0.,0.,0.));
#1144=CARTESIAN_POINT('',(0.,0.,0.));
#1145=CARTESIAN_POINT('',(0.,0.,0.));
#1146=CARTESIAN_POINT('',(0.,0.,0.));
#1147=CARTESIAN_POINT('Origin',(-60.5212659143013,-201.293305120257,4.));
#1148=CARTESIAN_POINT('',(-60.5212659143013,-201.293305120257,4.));
#1149=CARTESIAN_POINT('',(-58.4855518406576,-201.293048086908,4.));
#1150=CARTESIAN_POINT('',(-60.4896283286008,-201.293301125632,4.));
#1151=CARTESIAN_POINT('',(-60.5212659143013,-201.293305120257,4.1));
#1152=CARTESIAN_POINT('',(-60.5212659143013,-201.293305120257,4.));
#1153=CARTESIAN_POINT('',(-58.4855518406576,-201.293048086908,4.1));
#1154=CARTESIAN_POINT('',(-60.5212659143013,-201.293305120257,4.1));
#1155=CARTESIAN_POINT('',(-58.4855518406576,-201.293048086908,4.));
#1156=CARTESIAN_POINT('Ctrl Pts',(-61.3033824785285,-201.504117617708,4.));
#1157=CARTESIAN_POINT('Ctrl Pts',(-61.3033824785285,-201.504117617708,4.1));
#1158=CARTESIAN_POINT('Ctrl Pts',(-61.1816616352428,-201.44264612321,4.));
#1159=CARTESIAN_POINT('Ctrl Pts',(-61.1816616352428,-201.44264612321,4.1));
#1160=CARTESIAN_POINT('Ctrl Pts',(-60.9355957019227,-201.318377836381,4.));
#1161=CARTESIAN_POINT('Ctrl Pts',(-60.9355957019227,-201.318377836381,4.1));
#1162=CARTESIAN_POINT('Ctrl Pts',(-60.6603543093472,-201.301721903093,4.));
#1163=CARTESIAN_POINT('Ctrl Pts',(-60.6603543093472,-201.301721903093,4.1));
#1164=CARTESIAN_POINT('Ctrl Pts',(-60.5212659143013,-201.293305120257,4.));
#1165=CARTESIAN_POINT('Ctrl Pts',(-60.5212659143013,-201.293305120257,4.1));
#1166=CARTESIAN_POINT('',(-61.3033824785285,-201.504117617708,4.));
#1167=CARTESIAN_POINT('Ctrl Pts',(-61.3033824785285,-201.504117617708,4.));
#1168=CARTESIAN_POINT('Ctrl Pts',(-61.1816616352428,-201.44264612321,4.));
#1169=CARTESIAN_POINT('Ctrl Pts',(-60.9355957019227,-201.318377836381,4.));
#1170=CARTESIAN_POINT('Ctrl Pts',(-60.6603543093472,-201.301721903093,4.));
#1171=CARTESIAN_POINT('Ctrl Pts',(-60.5212659143013,-201.293305120257,4.));
#1172=CARTESIAN_POINT('',(-61.3033824785285,-201.504117617708,4.1));
#1173=CARTESIAN_POINT('',(-61.3033824785285,-201.504117617708,4.));
#1174=CARTESIAN_POINT('Ctrl Pts',(-61.3033824785285,-201.504117617708,4.1));
#1175=CARTESIAN_POINT('Ctrl Pts',(-61.1816616352428,-201.44264612321,4.1));
#1176=CARTESIAN_POINT('Ctrl Pts',(-60.9355957019227,-201.318377836381,4.1));
#1177=CARTESIAN_POINT('Ctrl Pts',(-60.6603543093472,-201.301721903093,4.1));
#1178=CARTESIAN_POINT('Ctrl Pts',(-60.5212659143013,-201.293305120257,4.1));
#1179=CARTESIAN_POINT('Ctrl Pts',(-61.8640243307691,-202.075616947399,4.));
#1180=CARTESIAN_POINT('Ctrl Pts',(-61.8640243307691,-202.075616947399,4.1));
#1181=CARTESIAN_POINT('Ctrl Pts',(-61.7890540323214,-201.961717126851,4.));
#1182=CARTESIAN_POINT('Ctrl Pts',(-61.7890540323214,-201.961717126851,4.1));
#1183=CARTESIAN_POINT('Ctrl Pts',(-61.6395274175346,-201.734546434672,4.));
#1184=CARTESIAN_POINT('Ctrl Pts',(-61.6395274175346,-201.734546434672,4.1));
#1185=CARTESIAN_POINT('Ctrl Pts',(-61.415223787826,-201.580785321424,4.));
#1186=CARTESIAN_POINT('Ctrl Pts',(-61.415223787826,-201.580785321424,4.1));
#1187=CARTESIAN_POINT('Ctrl Pts',(-61.3033824785285,-201.504117617708,4.));
#1188=CARTESIAN_POINT('Ctrl Pts',(-61.3033824785285,-201.504117617708,4.1));
#1189=CARTESIAN_POINT('',(-61.8640243307691,-202.075616947399,4.));
#1190=CARTESIAN_POINT('Ctrl Pts',(-61.8640243307691,-202.075616947399,4.));
#1191=CARTESIAN_POINT('Ctrl Pts',(-61.7890540323214,-201.961717126851,4.));
#1192=CARTESIAN_POINT('Ctrl Pts',(-61.6395274175346,-201.734546434672,4.));
#1193=CARTESIAN_POINT('Ctrl Pts',(-61.415223787826,-201.580785321424,4.));
#1194=CARTESIAN_POINT('Ctrl Pts',(-61.3033824785285,-201.504117617708,4.));
#1195=CARTESIAN_POINT('',(-61.8640243307691,-202.075616947399,4.1));
#1196=CARTESIAN_POINT('',(-61.8640243307691,-202.075616947399,4.));
#1197=CARTESIAN_POINT('Ctrl Pts',(-61.8640243307691,-202.075616947399,4.1));
#1198=CARTESIAN_POINT('Ctrl Pts',(-61.7890540323214,-201.961717126851,4.1));
#1199=CARTESIAN_POINT('Ctrl Pts',(-61.6395274175346,-201.734546434672,4.1));
#1200=CARTESIAN_POINT('Ctrl Pts',(-61.415223787826,-201.580785321424,4.1));
#1201=CARTESIAN_POINT('Ctrl Pts',(-61.3033824785285,-201.504117617708,4.1));
#1202=CARTESIAN_POINT('Ctrl Pts',(-62.0710647965904,-202.886357459258,4.));
#1203=CARTESIAN_POINT('Ctrl Pts',(-62.0710647965904,-202.886357459258,4.1));
#1204=CARTESIAN_POINT('Ctrl Pts',(-62.0631888069501,-202.741376060744,4.));
#1205=CARTESIAN_POINT('Ctrl Pts',(-62.0631888069501,-202.741376060744,4.1));
#1206=CARTESIAN_POINT('Ctrl Pts',(-62.0477560153059,-202.457288877066,4.));
#1207=CARTESIAN_POINT('Ctrl Pts',(-62.0477560153059,-202.457288877066,4.1));
#1208=CARTESIAN_POINT('Ctrl Pts',(-61.9244179150644,-202.201074545611,4.));
#1209=CARTESIAN_POINT('Ctrl Pts',(-61.9244179150644,-202.201074545611,4.1));
#1210=CARTESIAN_POINT('Ctrl Pts',(-61.8640243307691,-202.075616947399,4.));
#1211=CARTESIAN_POINT('Ctrl Pts',(-61.8640243307691,-202.075616947399,4.1));
#1212=CARTESIAN_POINT('',(-62.0710647965904,-202.886357459258,4.));
#1213=CARTESIAN_POINT('Ctrl Pts',(-62.0710647965904,-202.886357459258,4.));
#1214=CARTESIAN_POINT('Ctrl Pts',(-62.0631888069501,-202.741376060744,4.));
#1215=CARTESIAN_POINT('Ctrl Pts',(-62.0477560153059,-202.457288877066,4.));
#1216=CARTESIAN_POINT('Ctrl Pts',(-61.9244179150644,-202.201074545611,4.));
#1217=CARTESIAN_POINT('Ctrl Pts',(-61.8640243307691,-202.075616947399,4.));
#1218=CARTESIAN_POINT('',(-62.0710647965904,-202.886357459258,4.1));
#1219=CARTESIAN_POINT('',(-62.0710647965904,-202.886357459258,4.));
#1220=CARTESIAN_POINT('Ctrl Pts',(-62.0710647965904,-202.886357459258,4.1));
#1221=CARTESIAN_POINT('Ctrl Pts',(-62.0631888069501,-202.741376060744,4.1));
#1222=CARTESIAN_POINT('Ctrl Pts',(-62.0477560153059,-202.457288877066,4.1));
#1223=CARTESIAN_POINT('Ctrl Pts',(-61.9244179150644,-202.201074545611,4.1));
#1224=CARTESIAN_POINT('Ctrl Pts',(-61.8640243307691,-202.075616947399,4.1));
#1225=CARTESIAN_POINT('Ctrl Pts',(-61.8638200568699,-203.693474152291,4.));
#1226=CARTESIAN_POINT('Ctrl Pts',(-61.8638200568699,-203.693474152291,4.1));
#1227=CARTESIAN_POINT('Ctrl Pts',(-61.9242437707927,-203.568936937992,4.));
#1228=CARTESIAN_POINT('Ctrl Pts',(-61.9242437707927,-203.568936937992,4.1));
#1229=CARTESIAN_POINT('Ctrl Pts',(-62.0478934984829,-203.31408678669,4.));
#1230=CARTESIAN_POINT('Ctrl Pts',(-62.0478934984829,-203.31408678669,4.1));
#1231=CARTESIAN_POINT('Ctrl Pts',(-62.0632252086282,-203.031071910336,4.));
#1232=CARTESIAN_POINT('Ctrl Pts',(-62.0632252086282,-203.031071910336,4.1));
#1233=CARTESIAN_POINT('Ctrl Pts',(-62.0710647965904,-202.886357459258,4.));
#1234=CARTESIAN_POINT('Ctrl Pts',(-62.0710647965904,-202.886357459258,4.1));
#1235=CARTESIAN_POINT('',(-61.8638200568699,-203.693474152291,4.));
#1236=CARTESIAN_POINT('Ctrl Pts',(-61.8638200568699,-203.693474152291,4.));
#1237=CARTESIAN_POINT('Ctrl Pts',(-61.9242437707927,-203.568936937992,4.));
#1238=CARTESIAN_POINT('Ctrl Pts',(-62.0478934984829,-203.31408678669,4.));
#1239=CARTESIAN_POINT('Ctrl Pts',(-62.0632252086282,-203.031071910336,4.));
#1240=CARTESIAN_POINT('Ctrl Pts',(-62.0710647965904,-202.886357459258,4.));
#1241=CARTESIAN_POINT('',(-61.8638200568699,-203.693474152291,4.1));
#1242=CARTESIAN_POINT('',(-61.8638200568699,-203.693474152291,4.));
#1243=CARTESIAN_POINT('Ctrl Pts',(-61.8638200568699,-203.693474152291,4.1));
#1244=CARTESIAN_POINT('Ctrl Pts',(-61.9242437707927,-203.568936937992,4.1));
#1245=CARTESIAN_POINT('Ctrl Pts',(-62.0478934984829,-203.31408678669,4.1));
#1246=CARTESIAN_POINT('Ctrl Pts',(-62.0632252086282,-203.031071910336,4.1));
#1247=CARTESIAN_POINT('Ctrl Pts',(-62.0710647965904,-202.886357459258,4.1));
#1248=CARTESIAN_POINT('Ctrl Pts',(-61.3030339052016,-204.264831888229,4.));
#1249=CARTESIAN_POINT('Ctrl Pts',(-61.3030339052016,-204.264831888229,4.1));
#1250=CARTESIAN_POINT('Ctrl Pts',(-61.4147871815874,-204.187486738602,4.));
#1251=CARTESIAN_POINT('Ctrl Pts',(-61.4147871815874,-204.187486738602,4.1));
#1252=CARTESIAN_POINT('Ctrl Pts',(-61.6382127976193,-204.032852456178,4.));
#1253=CARTESIAN_POINT('Ctrl Pts',(-61.6382127976193,-204.032852456178,4.1));
#1254=CARTESIAN_POINT('Ctrl Pts',(-61.7886358008792,-203.806572930061,4.));
#1255=CARTESIAN_POINT('Ctrl Pts',(-61.7886358008792,-203.806572930061,4.1));
#1256=CARTESIAN_POINT('Ctrl Pts',(-61.8638200568699,-203.693474152291,4.));
#1257=CARTESIAN_POINT('Ctrl Pts',(-61.8638200568699,-203.693474152291,4.1));
#1258=CARTESIAN_POINT('',(-61.3030339052016,-204.264831888229,4.));
#1259=CARTESIAN_POINT('Ctrl Pts',(-61.3030339052016,-204.264831888229,4.));
#1260=CARTESIAN_POINT('Ctrl Pts',(-61.4147871815874,-204.187486738602,4.));
#1261=CARTESIAN_POINT('Ctrl Pts',(-61.6382127976193,-204.032852456178,4.));
#1262=CARTESIAN_POINT('Ctrl Pts',(-61.7886358008792,-203.806572930061,4.));
#1263=CARTESIAN_POINT('Ctrl Pts',(-61.8638200568699,-203.693474152291,4.));
#1264=CARTESIAN_POINT('',(-61.3030339052016,-204.264831888229,4.1));
#1265=CARTESIAN_POINT('',(-61.3030339052016,-204.264831888229,4.));
#1266=CARTESIAN_POINT('Ctrl Pts',(-61.3030339052016,-204.264831888229,4.1));
#1267=CARTESIAN_POINT('Ctrl Pts',(-61.4147871815874,-204.187486738602,4.1));
#1268=CARTESIAN_POINT('Ctrl Pts',(-61.6382127976193,-204.032852456178,4.1));
#1269=CARTESIAN_POINT('Ctrl Pts',(-61.7886358008792,-203.806572930061,4.1));
#1270=CARTESIAN_POINT('Ctrl Pts',(-61.8638200568699,-203.693474152291,4.1));
#1271=CARTESIAN_POINT('Ctrl Pts',(-60.5208636796726,-204.479018982078,4.));
#1272=CARTESIAN_POINT('Ctrl Pts',(-60.5208636796726,-204.479018982078,4.1));
#1273=CARTESIAN_POINT('Ctrl Pts',(-60.6600256863194,-204.470452222769,4.));
#1274=CARTESIAN_POINT('Ctrl Pts',(-60.6600256863194,-204.470452222769,4.1));
#1275=CARTESIAN_POINT('Ctrl Pts',(-60.9357299102812,-204.453479977369,4.));
#1276=CARTESIAN_POINT('Ctrl Pts',(-60.9357299102812,-204.453479977369,4.1));
#1277=CARTESIAN_POINT('Ctrl Pts',(-61.1813773015939,-204.327314970687,4.));
#1278=CARTESIAN_POINT('Ctrl Pts',(-61.1813773015939,-204.327314970687,4.1));
#1279=CARTESIAN_POINT('Ctrl Pts',(-61.3030339052016,-204.264831888229,4.));
#1280=CARTESIAN_POINT('Ctrl Pts',(-61.3030339052016,-204.264831888229,4.1));
#1281=CARTESIAN_POINT('',(-60.5208636796726,-204.479018982078,4.));
#1282=CARTESIAN_POINT('Ctrl Pts',(-60.5208636796726,-204.479018982078,4.));
#1283=CARTESIAN_POINT('Ctrl Pts',(-60.6600256863194,-204.470452222769,4.));
#1284=CARTESIAN_POINT('Ctrl Pts',(-60.9357299102812,-204.453479977369,4.));
#1285=CARTESIAN_POINT('Ctrl Pts',(-61.1813773015939,-204.327314970687,4.));
#1286=CARTESIAN_POINT('Ctrl Pts',(-61.3030339052016,-204.264831888229,4.));
#1287=CARTESIAN_POINT('',(-60.5208636796726,-204.479018982078,4.1));
#1288=CARTESIAN_POINT('',(-60.5208636796726,-204.479018982078,4.));
#1289=CARTESIAN_POINT('Ctrl Pts',(-60.5208636796726,-204.479018982078,4.1));
#1290=CARTESIAN_POINT('Ctrl Pts',(-60.6600256863194,-204.470452222769,4.1));
#1291=CARTESIAN_POINT('Ctrl Pts',(-60.9357299102812,-204.453479977369,4.1));
#1292=CARTESIAN_POINT('Ctrl Pts',(-61.1813773015939,-204.327314970687,4.1));
#1293=CARTESIAN_POINT('Ctrl Pts',(-61.3030339052016,-204.264831888229,4.1));
#1294=CARTESIAN_POINT('Origin',(-58.4851496060289,-204.478761948729,4.));
#1295=CARTESIAN_POINT('',(-58.4851496060289,-204.478761948729,4.));
#1296=CARTESIAN_POINT('',(-59.4713690571486,-204.478886470778,4.));
#1297=CARTESIAN_POINT('',(-58.4851496060289,-204.478761948729,4.1));
#1298=CARTESIAN_POINT('',(-58.4851496060289,-204.478761948729,4.));
#1299=CARTESIAN_POINT('',(-58.4851496060289,-204.478761948729,4.1));
#1300=CARTESIAN_POINT('Origin',(-58.4855518406576,-201.293048086908,4.));
#1301=CARTESIAN_POINT('',(-58.4853064692035,-203.236399521203,4.));
#1302=CARTESIAN_POINT('',(-58.4855518406576,-201.293048086908,4.1));
#1303=CARTESIAN_POINT('Origin',(-58.484962016833,-205.964475657208,4.));
#1304=CARTESIAN_POINT('',(-58.484962016833,-205.964475657208,4.));
#1305=CARTESIAN_POINT('',(-58.484452459375,-210.00019048977,4.));
#1306=CARTESIAN_POINT('',(-58.4850115572912,-205.572113306353,4.));
#1307=CARTESIAN_POINT('',(-58.484962016833,-205.964475657208,4.1));
#1308=CARTESIAN_POINT('',(-58.484962016833,-205.964475657208,4.));
#1309=CARTESIAN_POINT('',(-58.484452459375,-210.00019048977,4.1));
#1310=CARTESIAN_POINT('',(-58.484962016833,-205.964475657208,4.1));
#1311=CARTESIAN_POINT('',(-58.484452459375,-210.00019048977,4.));
#1312=CARTESIAN_POINT('Origin',(-59.8492476538273,-205.964647914654,4.));
#1313=CARTESIAN_POINT('',(-59.8492476538273,-205.964647914654,4.));
#1314=CARTESIAN_POINT('',(-60.1533242864491,-205.96468630798,4.));
#1315=CARTESIAN_POINT('',(-59.8492476538273,-205.964647914654,4.1));
#1316=CARTESIAN_POINT('',(-59.8492476538273,-205.964647914654,4.));
#1317=CARTESIAN_POINT('',(-59.8492476538273,-205.964647914654,4.1));
#1318=CARTESIAN_POINT('Origin',(-62.1915954981388,-210.000658561098,4.));
#1319=CARTESIAN_POINT('',(-62.1915954981388,-210.000658561098,4.));
#1320=CARTESIAN_POINT('',(-60.9267260090279,-207.821209963481,4.));
#1321=CARTESIAN_POINT('',(-62.1915954981388,-210.000658561098,4.1));
#1322=CARTESIAN_POINT('',(-62.1915954981388,-210.000658561098,4.));
#1323=CARTESIAN_POINT('',(-62.1915954981388,-210.000658561098,4.1));
#1324=CARTESIAN_POINT('Origin',(-63.913023521107,-210.000875912058,4.));
#1325=CARTESIAN_POINT('',(-63.913023521107,-210.000875912058,4.));
#1326=CARTESIAN_POINT('',(-62.1849574413578,-210.000657722963,4.));
#1327=CARTESIAN_POINT('',(-63.913023521107,-210.000875912058,4.1));
#1328=CARTESIAN_POINT('',(-63.913023521107,-210.000875912058,4.));
#1329=CARTESIAN_POINT('',(-63.913023521107,-210.000875912058,4.1));
#1330=CARTESIAN_POINT('Origin',(-61.4992646927273,-205.829142432349,4.));
#1331=CARTESIAN_POINT('',(-61.4992646927273,-205.829142432349,4.));
#1332=CARTESIAN_POINT('',(-61.22792673251,-205.360185202801,4.));
#1333=CARTESIAN_POINT('',(-61.4992646927273,-205.829142432349,4.1));
#1334=CARTESIAN_POINT('',(-61.4992646927273,-205.829142432349,4.));
#1335=CARTESIAN_POINT('',(-61.4992646927273,-205.829142432349,4.1));
#1336=CARTESIAN_POINT('Ctrl Pts',(-62.5671957839766,-205.243562688176,4.));
#1337=CARTESIAN_POINT('Ctrl Pts',(-62.5671957839766,-205.243562688176,4.1));
#1338=CARTESIAN_POINT('Ctrl Pts',(-62.4054815762532,-205.369803815003,4.));
#1339=CARTESIAN_POINT('Ctrl Pts',(-62.4054815762532,-205.369803815003,4.1));
#1340=CARTESIAN_POINT('Ctrl Pts',(-62.0812719489732,-205.622895916506,4.));
#1341=CARTESIAN_POINT('Ctrl Pts',(-62.0812719489732,-205.622895916506,4.1));
#1342=CARTESIAN_POINT('Ctrl Pts',(-61.6935785053811,-205.760283244753,4.));
#1343=CARTESIAN_POINT('Ctrl Pts',(-61.6935785053811,-205.760283244753,4.1));
#1344=CARTESIAN_POINT('Ctrl Pts',(-61.4992646927273,-205.829142432349,4.));
#1345=CARTESIAN_POINT('Ctrl Pts',(-61.4992646927273,-205.829142432349,4.1));
#1346=CARTESIAN_POINT('',(-62.5671957839766,-205.243562688176,4.));
#1347=CARTESIAN_POINT('Ctrl Pts',(-62.5671957839766,-205.243562688176,4.));
#1348=CARTESIAN_POINT('Ctrl Pts',(-62.4054815762532,-205.369803815003,4.));
#1349=CARTESIAN_POINT('Ctrl Pts',(-62.0812719489732,-205.622895916506,4.));
#1350=CARTESIAN_POINT('Ctrl Pts',(-61.6935785053811,-205.760283244753,4.));
#1351=CARTESIAN_POINT('Ctrl Pts',(-61.4992646927273,-205.829142432349,4.));
#1352=CARTESIAN_POINT('',(-62.5671957839766,-205.243562688176,4.1));
#1353=CARTESIAN_POINT('',(-62.5671957839766,-205.243562688176,4.));
#1354=CARTESIAN_POINT('Ctrl Pts',(-62.5671957839766,-205.243562688176,4.1));
#1355=CARTESIAN_POINT('Ctrl Pts',(-62.4054815762532,-205.369803815003,4.1));
#1356=CARTESIAN_POINT('Ctrl Pts',(-62.0812719489732,-205.622895916506,4.1));
#1357=CARTESIAN_POINT('Ctrl Pts',(-61.6935785053811,-205.760283244753,4.1));
#1358=CARTESIAN_POINT('Ctrl Pts',(-61.4992646927273,-205.829142432349,4.1));
#1359=CARTESIAN_POINT('Ctrl Pts',(-63.2958916512941,-204.257941085811,4.));
#1360=CARTESIAN_POINT('Ctrl Pts',(-63.2958916512941,-204.257941085811,4.1));
#1361=CARTESIAN_POINT('Ctrl Pts',(-63.2008005966432,-204.443234939512,4.));
#1362=CARTESIAN_POINT('Ctrl Pts',(-63.2008005966432,-204.443234939512,4.1));
#1363=CARTESIAN_POINT('Ctrl Pts',(-63.0117413941001,-204.8116345576,4.));
#1364=CARTESIAN_POINT('Ctrl Pts',(-63.0117413941001,-204.8116345576,4.1));
#1365=CARTESIAN_POINT('Ctrl Pts',(-62.7147897446756,-205.100157867439,4.));
#1366=CARTESIAN_POINT('Ctrl Pts',(-62.7147897446756,-205.100157867439,4.1));
#1367=CARTESIAN_POINT('Ctrl Pts',(-62.5671957839766,-205.243562688176,4.));
#1368=CARTESIAN_POINT('Ctrl Pts',(-62.5671957839766,-205.243562688176,4.1));
#1369=CARTESIAN_POINT('',(-63.2958916512941,-204.257941085811,4.));
#1370=CARTESIAN_POINT('Ctrl Pts',(-63.2958916512941,-204.257941085811,4.));
#1371=CARTESIAN_POINT('Ctrl Pts',(-63.2008005966432,-204.443234939512,4.));
#1372=CARTESIAN_POINT('Ctrl Pts',(-63.0117413941001,-204.8116345576,4.));
#1373=CARTESIAN_POINT('Ctrl Pts',(-62.7147897446756,-205.100157867439,4.));
#1374=CARTESIAN_POINT('Ctrl Pts',(-62.5671957839766,-205.243562688176,4.));
#1375=CARTESIAN_POINT('',(-63.2958916512941,-204.257941085811,4.1));
#1376=CARTESIAN_POINT('',(-63.2958916512941,-204.257941085811,4.));
#1377=CARTESIAN_POINT('Ctrl Pts',(-63.2958916512941,-204.257941085811,4.1));
#1378=CARTESIAN_POINT('Ctrl Pts',(-63.2008005966432,-204.443234939512,4.1));
#1379=CARTESIAN_POINT('Ctrl Pts',(-63.0117413941001,-204.8116345576,4.1));
#1380=CARTESIAN_POINT('Ctrl Pts',(-62.7147897446756,-205.100157867439,4.1));
#1381=CARTESIAN_POINT('Ctrl Pts',(-62.5671957839766,-205.243562688176,4.1));
#1382=CARTESIAN_POINT('Ctrl Pts',(-63.556767376744,-202.979402527839,4.));
#1383=CARTESIAN_POINT('Ctrl Pts',(-63.556767376744,-202.979402527839,4.1));
#1384=CARTESIAN_POINT('Ctrl Pts',(-63.5470196127945,-203.205097893584,4.));
#1385=CARTESIAN_POINT('Ctrl Pts',(-63.5470196127945,-203.205097893584,4.1));
#1386=CARTESIAN_POINT('Ctrl Pts',(-63.5280058753005,-203.645333465565,4.));
#1387=CARTESIAN_POINT('Ctrl Pts',(-63.5280058753005,-203.645333465565,4.1));
#1388=CARTESIAN_POINT('Ctrl Pts',(-63.3719449128005,-204.057217464745,4.));
#1389=CARTESIAN_POINT('Ctrl Pts',(-63.3719449128005,-204.057217464745,4.1));
#1390=CARTESIAN_POINT('Ctrl Pts',(-63.2958916512941,-204.257941085811,4.));
#1391=CARTESIAN_POINT('Ctrl Pts',(-63.2958916512941,-204.257941085811,4.1));
#1392=CARTESIAN_POINT('',(-63.556767376744,-202.979402527839,4.));
#1393=CARTESIAN_POINT('Ctrl Pts',(-63.556767376744,-202.979402527839,4.));
#1394=CARTESIAN_POINT('Ctrl Pts',(-63.5470196127945,-203.205097893584,4.));
#1395=CARTESIAN_POINT('Ctrl Pts',(-63.5280058753005,-203.645333465565,4.));
#1396=CARTESIAN_POINT('Ctrl Pts',(-63.3719449128005,-204.057217464745,4.));
#1397=CARTESIAN_POINT('Ctrl Pts',(-63.2958916512941,-204.257941085811,4.));
#1398=CARTESIAN_POINT('',(-63.556767376744,-202.979402527839,4.1));
#1399=CARTESIAN_POINT('',(-63.556767376744,-202.979402527839,4.));
#1400=CARTESIAN_POINT('Ctrl Pts',(-63.556767376744,-202.979402527839,4.1));
#1401=CARTESIAN_POINT('Ctrl Pts',(-63.5470196127945,-203.205097893584,4.1));
#1402=CARTESIAN_POINT('Ctrl Pts',(-63.5280058753005,-203.645333465565,4.1));
#1403=CARTESIAN_POINT('Ctrl Pts',(-63.3719449128005,-204.057217464745,4.1));
#1404=CARTESIAN_POINT('Ctrl Pts',(-63.2958916512941,-204.257941085811,4.1));
#1405=CARTESIAN_POINT('Ctrl Pts',(-63.1748145607143,-201.475783017828,4.));
#1406=CARTESIAN_POINT('Ctrl Pts',(-63.1748145607143,-201.475783017828,4.1));
#1407=CARTESIAN_POINT('Ctrl Pts',(-63.2862339972995,-201.709511468434,4.));
#1408=CARTESIAN_POINT('Ctrl Pts',(-63.2862339972995,-201.709511468434,4.1));
#1409=CARTESIAN_POINT('Ctrl Pts',(-63.5130033158785,-202.185213402501,4.));
#1410=CARTESIAN_POINT('Ctrl Pts',(-63.5130033158785,-202.185213402501,4.1));
#1411=CARTESIAN_POINT('Ctrl Pts',(-63.5420117616018,-202.711631465195,4.));
#1412=CARTESIAN_POINT('Ctrl Pts',(-63.5420117616018,-202.711631465195,4.1));
#1413=CARTESIAN_POINT('Ctrl Pts',(-63.556767376744,-202.979402527839,4.));
#1414=CARTESIAN_POINT('Ctrl Pts',(-63.556767376744,-202.979402527839,4.1));
#1415=CARTESIAN_POINT('',(-63.1748145607143,-201.475783017828,4.));
#1416=CARTESIAN_POINT('Ctrl Pts',(-63.1748145607143,-201.475783017828,4.));
#1417=CARTESIAN_POINT('Ctrl Pts',(-63.2862339972995,-201.709511468434,4.));
#1418=CARTESIAN_POINT('Ctrl Pts',(-63.5130033158785,-202.185213402501,4.));
#1419=CARTESIAN_POINT('Ctrl Pts',(-63.5420117616018,-202.711631465195,4.));
#1420=CARTESIAN_POINT('Ctrl Pts',(-63.556767376744,-202.979402527839,4.));
#1421=CARTESIAN_POINT('',(-63.1748145607143,-201.475783017828,4.1));
#1422=CARTESIAN_POINT('',(-63.1748145607143,-201.475783017828,4.));
#1423=CARTESIAN_POINT('Ctrl Pts',(-63.1748145607143,-201.475783017828,4.1));
#1424=CARTESIAN_POINT('Ctrl Pts',(-63.2862339972995,-201.709511468434,4.1));
#1425=CARTESIAN_POINT('Ctrl Pts',(-63.5130033158785,-202.185213402501,4.1));
#1426=CARTESIAN_POINT('Ctrl Pts',(-63.5420117616018,-202.711631465195,4.1));
#1427=CARTESIAN_POINT('Ctrl Pts',(-63.556767376744,-202.979402527839,4.1));
#1428=CARTESIAN_POINT('Ctrl Pts',(-62.1428070654134,-200.400652539027,4.));
#1429=CARTESIAN_POINT('Ctrl Pts',(-62.1428070654134,-200.400652539027,4.1));
#1430=CARTESIAN_POINT('Ctrl Pts',(-62.348562073104,-200.545943689575,4.));
#1431=CARTESIAN_POINT('Ctrl Pts',(-62.348562073104,-200.545943689575,4.1));
#1432=CARTESIAN_POINT('Ctrl Pts',(-62.7618259394809,-200.837764449127,4.));
#1433=CARTESIAN_POINT('Ctrl Pts',(-62.7618259394809,-200.837764449127,4.1));
#1434=CARTESIAN_POINT('Ctrl Pts',(-63.0367627520852,-201.262509303204,4.));
#1435=CARTESIAN_POINT('Ctrl Pts',(-63.0367627520852,-201.262509303204,4.1));
#1436=CARTESIAN_POINT('Ctrl Pts',(-63.1748145607143,-201.475783017828,4.));
#1437=CARTESIAN_POINT('Ctrl Pts',(-63.1748145607143,-201.475783017828,4.1));
#1438=CARTESIAN_POINT('',(-62.1428070654134,-200.400652539027,4.));
#1439=CARTESIAN_POINT('Ctrl Pts',(-62.1428070654134,-200.400652539027,4.));
#1440=CARTESIAN_POINT('Ctrl Pts',(-62.348562073104,-200.545943689575,4.));
#1441=CARTESIAN_POINT('Ctrl Pts',(-62.7618259394809,-200.837764449127,4.));
#1442=CARTESIAN_POINT('Ctrl Pts',(-63.0367627520852,-201.262509303204,4.));
#1443=CARTESIAN_POINT('Ctrl Pts',(-63.1748145607143,-201.475783017828,4.));
#1444=CARTESIAN_POINT('',(-62.1428070654134,-200.400652539027,4.1));
#1445=CARTESIAN_POINT('',(-62.1428070654134,-200.400652539027,4.));
#1446=CARTESIAN_POINT('Ctrl Pts',(-62.1428070654134,-200.400652539027,4.1));
#1447=CARTESIAN_POINT('Ctrl Pts',(-62.348562073104,-200.545943689575,4.1));
#1448=CARTESIAN_POINT('Ctrl Pts',(-62.7618259394809,-200.837764449127,4.1));
#1449=CARTESIAN_POINT('Ctrl Pts',(-63.0367627520852,-201.262509303204,4.1));
#1450=CARTESIAN_POINT('Ctrl Pts',(-63.1748145607143,-201.475783017828,4.1));
#1451=CARTESIAN_POINT('Ctrl Pts',(-60.6785720294134,-200.000467444004,4.));
#1452=CARTESIAN_POINT('Ctrl Pts',(-60.6785720294134,-200.000467444004,4.1));
#1453=CARTESIAN_POINT('Ctrl Pts',(-60.9412278521977,-200.015994688625,4.));
#1454=CARTESIAN_POINT('Ctrl Pts',(-60.9412278521977,-200.015994688625,4.1));
#1455=CARTESIAN_POINT('Ctrl Pts',(-61.4576876591308,-200.046525889775,4.));
#1456=CARTESIAN_POINT('Ctrl Pts',(-61.4576876591308,-200.046525889775,4.1));
#1457=CARTESIAN_POINT('Ctrl Pts',(-61.9170583843181,-200.283966858726,4.));
#1458=CARTESIAN_POINT('Ctrl Pts',(-61.9170583843181,-200.283966858726,4.1));
#1459=CARTESIAN_POINT('Ctrl Pts',(-62.1428070654134,-200.400652539027,4.));
#1460=CARTESIAN_POINT('Ctrl Pts',(-62.1428070654134,-200.400652539027,4.1));
#1461=CARTESIAN_POINT('',(-60.6785720294134,-200.000467444004,4.));
#1462=CARTESIAN_POINT('Ctrl Pts',(-60.6785720294134,-200.000467444004,4.));
#1463=CARTESIAN_POINT('Ctrl Pts',(-60.9412278521977,-200.015994688625,4.));
#1464=CARTESIAN_POINT('Ctrl Pts',(-61.4576876591308,-200.046525889775,4.));
#1465=CARTESIAN_POINT('Ctrl Pts',(-61.9170583843181,-200.283966858726,4.));
#1466=CARTESIAN_POINT('Ctrl Pts',(-62.1428070654134,-200.400652539027,4.));
#1467=CARTESIAN_POINT('',(-60.6785720294134,-200.000467444004,4.1));
#1468=CARTESIAN_POINT('',(-60.6785720294134,-200.000467444004,4.));
#1469=CARTESIAN_POINT('Ctrl Pts',(-60.6785720294134,-200.000467444004,4.1));
#1470=CARTESIAN_POINT('Ctrl Pts',(-60.9412278521977,-200.015994688625,4.1));
#1471=CARTESIAN_POINT('Ctrl Pts',(-61.4576876591308,-200.046525889775,4.1));
#1472=CARTESIAN_POINT('Ctrl Pts',(-61.9170583843181,-200.283966858726,4.1));
#1473=CARTESIAN_POINT('Ctrl Pts',(-62.1428070654134,-200.400652539027,4.1));
#1474=CARTESIAN_POINT('Origin',(-57.000000849424,-200.000002980217,4.));
#1475=CARTESIAN_POINT('',(-57.000000849424,-200.000002980217,4.));
#1476=CARTESIAN_POINT('',(-58.7290774155558,-200.000221296898,4.));
#1477=CARTESIAN_POINT('',(-57.000000849424,-200.000002980217,4.1));
#1478=CARTESIAN_POINT('',(-57.000000849424,-200.000002980217,4.));
#1479=CARTESIAN_POINT('',(-57.000000849424,-200.000002980217,4.1));
#1480=CARTESIAN_POINT('Origin',(-56.9987382293554,-210.000002900507,4.));
#1481=CARTESIAN_POINT('',(-56.9987382293554,-210.000002900507,4.));
#1482=CARTESIAN_POINT('',(-56.9990425485426,-207.589783133372,4.));
#1483=CARTESIAN_POINT('',(-56.9987382293554,-210.000002900507,4.1));
#1484=CARTESIAN_POINT('',(-56.9987382293554,-210.000002900507,4.));
#1485=CARTESIAN_POINT('',(-56.9987382293554,-210.000002900507,4.1));
#1486=CARTESIAN_POINT('Origin',(-58.484452459375,-210.00019048977,4.));
#1487=CARTESIAN_POINT('',(-59.4706719104919,-210.000315011819,4.));
#1488=CARTESIAN_POINT('',(-58.484452459375,-210.00019048977,4.1));
#1489=CARTESIAN_POINT('Origin',(-60.4558808752312,-205.000439446138,4.1));
#1490=CARTESIAN_POINT('Origin',(-60.4574999999881,-205.179999999594,4.));
#1491=CARTESIAN_POINT('',(-73.815,-187.379999999189,4.));
#1492=CARTESIAN_POINT('',(-73.815,-222.98,4.));
#1493=CARTESIAN_POINT('',(-73.815,-187.379999999189,4.));
#1494=CARTESIAN_POINT('',(-47.0999999999762,-187.379999999189,4.));
#1495=CARTESIAN_POINT('',(-47.0999999999762,-187.379999999189,4.));
#1496=CARTESIAN_POINT('',(-47.0999999999762,-222.98,4.));
#1497=CARTESIAN_POINT('',(-47.0999999999762,-222.98,4.));
#1498=CARTESIAN_POINT('',(-73.815,-222.98,4.));
#1499=CARTESIAN_POINT('',(-54.4499999999762,-218.98,4.));
#1500=CARTESIAN_POINT('Origin',(-53.2499999999762,-218.98,4.));
#1501=CARTESIAN_POINT('',(-54.4499999999762,-191.379999999189,4.));
#1502=CARTESIAN_POINT('Origin',(-53.2499999999762,-191.379999999189,4.));
#1503=CARTESIAN_POINT('Origin',(-60.115,-202.380001338745,10.9));
#1504=CARTESIAN_POINT('',(-61.515,-202.380001338745,10.9));
#1505=CARTESIAN_POINT('',(-58.715,-202.380001338745,10.9));
#1506=CARTESIAN_POINT('Origin',(-60.115,-202.380001338745,10.9));
#1507=CARTESIAN_POINT('',(-61.515,-202.380001338745,12.1));
#1508=CARTESIAN_POINT('',(-61.515,-202.380001338745,10.9));
#1509=CARTESIAN_POINT('',(-58.715,-202.380001338745,12.1));
#1510=CARTESIAN_POINT('Origin',(-60.115,-202.380001338745,12.1));
#1511=CARTESIAN_POINT('',(-58.715,-202.380001338745,10.9));
#1512=CARTESIAN_POINT('Origin',(-58.715,-203.18,10.9));
#1513=CARTESIAN_POINT('',(-58.715,-203.18,10.9));
#1514=CARTESIAN_POINT('',(-58.715,-202.98,10.9));
#1515=CARTESIAN_POINT('',(-58.715,-203.18,12.1));
#1516=CARTESIAN_POINT('',(-58.715,-202.98,12.1));
#1517=CARTESIAN_POINT('',(-58.715,-203.18,10.9));
#1518=CARTESIAN_POINT('Origin',(-61.515,-202.380001338745,10.9));
#1519=CARTESIAN_POINT('',(-61.515,-203.18,10.9));
#1520=CARTESIAN_POINT('',(-61.515,-202.580000669372,10.9));
#1521=CARTESIAN_POINT('',(-61.515,-203.180001338745,12.1));
#1522=CARTESIAN_POINT('',(-61.515,-203.180001338745,10.9));
#1523=CARTESIAN_POINT('',(-61.515,-202.580000669372,12.1));
#1524=CARTESIAN_POINT('Origin',(0.,-202.779999999999,12.1));
#1525=CARTESIAN_POINT('Origin',(-60.115,-203.18,12.1));
#1526=CARTESIAN_POINT('Origin',(0.,-202.779999999999,10.9));
#1527=CARTESIAN_POINT('Origin',(-60.115,-203.18,10.9));
#1528=CARTESIAN_POINT('Origin',(-60.115,-203.18,4.));
#1529=CARTESIAN_POINT('',(-61.515,-203.18,6.3));
#1530=CARTESIAN_POINT('',(-61.515,-203.18,4.));
#1531=CARTESIAN_POINT('Origin',(-60.115,-203.18,6.3));
#1532=CARTESIAN_POINT('Origin',(-73.815,-204.38,4.));
#1533=CARTESIAN_POINT('',(-61.9589088914586,-204.38,5.));
#1534=CARTESIAN_POINT('',(-73.815,-204.38,5.));
#1535=CARTESIAN_POINT('',(-61.9589088914586,-204.38,5.));
#1536=CARTESIAN_POINT('',(-61.9589088914586,-204.38,6.3));
#1537=CARTESIAN_POINT('',(-61.9589088914586,-204.38,4.));
#1538=CARTESIAN_POINT('',(-73.815,-204.38,6.3));
#1539=CARTESIAN_POINT('',(-61.9589088914586,-204.38,6.3));
#1540=CARTESIAN_POINT('',(-73.815,-204.38,4.));
#1541=CARTESIAN_POINT('Origin',(-60.115,-203.18,4.));
#1542=CARTESIAN_POINT('',(-60.115,-200.980001338745,5.));
#1543=CARTESIAN_POINT('Origin',(-60.115,-203.18,5.));
#1544=CARTESIAN_POINT('',(-60.115,-200.980001338745,6.3));
#1545=CARTESIAN_POINT('',(-60.115,-200.980001338745,4.));
#1546=CARTESIAN_POINT('Origin',(-60.115,-203.18,6.3));
#1547=CARTESIAN_POINT('Origin',(-60.115,-200.980001338745,4.));
#1548=CARTESIAN_POINT('',(-73.815,-200.980001338745,5.));
#1549=CARTESIAN_POINT('',(-60.115,-200.980001338745,5.));
#1550=CARTESIAN_POINT('',(-73.815,-200.980001338745,6.3));
#1551=CARTESIAN_POINT('',(-73.815,-200.980001338745,4.));
#1552=CARTESIAN_POINT('',(-60.115,-200.980001338745,6.3));
#1553=CARTESIAN_POINT('Origin',(-65.865,-203.18,6.3));
#1554=CARTESIAN_POINT('',(-73.815,-187.379999999189,6.3));
#1555=CARTESIAN_POINT('Origin',(-53.2499999999762,-218.98,4.));
#1556=CARTESIAN_POINT('',(-54.4499999999762,-218.98,5.));
#1557=CARTESIAN_POINT('Origin',(-53.2499999999762,-218.98,5.));
#1558=CARTESIAN_POINT('',(-54.4499999999762,-218.98,4.));
#1559=CARTESIAN_POINT('Origin',(-53.2499999999762,-191.379999999189,4.));
#1560=CARTESIAN_POINT('',(-54.4499999999762,-191.379999999189,5.));
#1561=CARTESIAN_POINT('Origin',(-53.2499999999762,-191.379999999189,5.));
#1562=CARTESIAN_POINT('',(-54.4499999999762,-191.379999999189,4.));
#1563=CARTESIAN_POINT('Origin',(-47.0999999999762,-187.379999999189,4.));
#1564=CARTESIAN_POINT('',(-73.815,-187.379999999189,5.));
#1565=CARTESIAN_POINT('',(-73.815,-187.379999999189,4.));
#1566=CARTESIAN_POINT('',(-47.0999999999762,-187.379999999189,5.));
#1567=CARTESIAN_POINT('',(-47.0999999999762,-187.379999999189,5.));
#1568=CARTESIAN_POINT('',(-47.0999999999762,-187.379999999189,4.));
#1569=CARTESIAN_POINT('Origin',(-47.0999999999762,-222.98,4.));
#1570=CARTESIAN_POINT('',(-47.0999999999762,-222.98,5.));
#1571=CARTESIAN_POINT('',(-47.0999999999762,-222.98,5.));
#1572=CARTESIAN_POINT('',(-47.0999999999762,-222.98,4.));
#1573=CARTESIAN_POINT('Origin',(-73.815,-222.98,4.));
#1574=CARTESIAN_POINT('',(-73.815,-222.98,5.));
#1575=CARTESIAN_POINT('',(-73.815,-222.98,5.));
#1576=CARTESIAN_POINT('',(-73.815,-222.98,4.));
#1577=CARTESIAN_POINT('Origin',(-73.815,-204.38,4.));
#1578=CARTESIAN_POINT('',(-73.815,-187.379999999189,5.));
#1579=CARTESIAN_POINT('',(-73.815,-187.379999999189,5.));
#1580=CARTESIAN_POINT('Origin',(-60.4574999999881,-205.179999999594,5.));
#1581=CARTESIAN_POINT('Origin',(-60.4574999999881,-205.179999999594,4.));
#1582=CARTESIAN_POINT('',(0.,0.,0.));
#1583=CARTESIAN_POINT('',(0.,0.,0.));
#1584=CARTESIAN_POINT('',(0.,0.,0.));
#1585=CARTESIAN_POINT('',(0.,0.,0.));
#1586=CARTESIAN_POINT('',(0.,0.,0.));
#1587=CARTESIAN_POINT('',(0.,0.,0.));
#1588=CARTESIAN_POINT('',(0.,0.,0.));
#1589=UNCERTAINTY_MEASURE_WITH_UNIT(LENGTH_MEASURE(0.01),#1605,
'DISTANCE_ACCURACY_VALUE',
'Maximum model space distance between geometric entities at asserted c
onnectivities');
#1590=UNCERTAINTY_MEASURE_WITH_UNIT(LENGTH_MEASURE(0.01),#1605,
'DISTANCE_ACCURACY_VALUE',
'Maximum model space distance between geometric entities at asserted c
onnectivities');
#1591=UNCERTAINTY_MEASURE_WITH_UNIT(LENGTH_MEASURE(0.01),#1605,
'DISTANCE_ACCURACY_VALUE',
'Maximum model space distance between geometric entities at asserted c
onnectivities');
#1592=UNCERTAINTY_MEASURE_WITH_UNIT(LENGTH_MEASURE(0.01),#1605,
'DISTANCE_ACCURACY_VALUE',
'Maximum model space distance between geometric entities at asserted c
onnectivities');
#1593=UNCERTAINTY_MEASURE_WITH_UNIT(LENGTH_MEASURE(0.01),#1605,
'DISTANCE_ACCURACY_VALUE',
'Maximum model space distance between geometric entities at asserted c
onnectivities');
#1594=UNCERTAINTY_MEASURE_WITH_UNIT(LENGTH_MEASURE(0.01),#1605,
'DISTANCE_ACCURACY_VALUE',
'Maximum model space distance between geometric entities at asserted c
onnectivities');
#1595=UNCERTAINTY_MEASURE_WITH_UNIT(LENGTH_MEASURE(0.01),#1605,
'DISTANCE_ACCURACY_VALUE',
'Maximum model space distance between geometric entities at asserted c
onnectivities');
#1596=UNCERTAINTY_MEASURE_WITH_UNIT(LENGTH_MEASURE(0.01),#1605,
'DISTANCE_ACCURACY_VALUE',
'Maximum model space distance between geometric entities at asserted c
onnectivities');
#1597=(
GEOMETRIC_REPRESENTATION_CONTEXT(3)
GLOBAL_UNCERTAINTY_ASSIGNED_CONTEXT((#1589))
GLOBAL_UNIT_ASSIGNED_CONTEXT((#1605,#1607,#1608))
REPRESENTATION_CONTEXT('','3D')
);
#1598=(
GEOMETRIC_REPRESENTATION_CONTEXT(3)
GLOBAL_UNCERTAINTY_ASSIGNED_CONTEXT((#1590))
GLOBAL_UNIT_ASSIGNED_CONTEXT((#1605,#1607,#1608))
REPRESENTATION_CONTEXT('','3D')
);
#1599=(
GEOMETRIC_REPRESENTATION_CONTEXT(3)
GLOBAL_UNCERTAINTY_ASSIGNED_CONTEXT((#1591))
GLOBAL_UNIT_ASSIGNED_CONTEXT((#1605,#1607,#1608))
REPRESENTATION_CONTEXT('','3D')
);
#1600=(
GEOMETRIC_REPRESENTATION_CONTEXT(3)
GLOBAL_UNCERTAINTY_ASSIGNED_CONTEXT((#1592))
GLOBAL_UNIT_ASSIGNED_CONTEXT((#1605,#1607,#1608))
REPRESENTATION_CONTEXT('','3D')
);
#1601=(
GEOMETRIC_REPRESENTATION_CONTEXT(3)
GLOBAL_UNCERTAINTY_ASSIGNED_CONTEXT((#1593))
GLOBAL_UNIT_ASSIGNED_CONTEXT((#1605,#1607,#1608))
REPRESENTATION_CONTEXT('','3D')
);
#1602=(
GEOMETRIC_REPRESENTATION_CONTEXT(3)
GLOBAL_UNCERTAINTY_ASSIGNED_CONTEXT((#1594))
GLOBAL_UNIT_ASSIGNED_CONTEXT((#1605,#1607,#1608))
REPRESENTATION_CONTEXT('','3D')
);
#1603=(
GEOMETRIC_REPRESENTATION_CONTEXT(3)
GLOBAL_UNCERTAINTY_ASSIGNED_CONTEXT((#1595))
GLOBAL_UNIT_ASSIGNED_CONTEXT((#1605,#1607,#1608))
REPRESENTATION_CONTEXT('','3D')
);
#1604=(
GEOMETRIC_REPRESENTATION_CONTEXT(3)
GLOBAL_UNCERTAINTY_ASSIGNED_CONTEXT((#1596))
GLOBAL_UNIT_ASSIGNED_CONTEXT((#1605,#1607,#1608))
REPRESENTATION_CONTEXT('','3D')
);
#1605=(
LENGTH_UNIT()
NAMED_UNIT(*)
SI_UNIT(.MILLI.,.METRE.)
);
#1606=(
LENGTH_UNIT()
NAMED_UNIT(*)
SI_UNIT($,.METRE.)
);
#1607=(
NAMED_UNIT(*)
PLANE_ANGLE_UNIT()
SI_UNIT($,.RADIAN.)
);
#1608=(
NAMED_UNIT(*)
SI_UNIT($,.STERADIAN.)
SOLID_ANGLE_UNIT()
);
#1609=SHAPE_DEFINITION_REPRESENTATION(#1616,#1629);
#1610=SHAPE_DEFINITION_REPRESENTATION(#1617,#1630);
#1611=SHAPE_DEFINITION_REPRESENTATION(#1618,#1631);
#1612=SHAPE_DEFINITION_REPRESENTATION(#1619,#1632);
#1613=SHAPE_DEFINITION_REPRESENTATION(#1620,#1633);
#1614=SHAPE_DEFINITION_REPRESENTATION(#1621,#1634);
#1615=SHAPE_DEFINITION_REPRESENTATION(#1622,#1635);
#1616=PRODUCT_DEFINITION_SHAPE('',$,#1637);
#1617=PRODUCT_DEFINITION_SHAPE('',$,#1638);
#1618=PRODUCT_DEFINITION_SHAPE('',$,#1639);
#1619=PRODUCT_DEFINITION_SHAPE('',$,#1640);
#1620=PRODUCT_DEFINITION_SHAPE('',$,#1641);
#1621=PRODUCT_DEFINITION_SHAPE('',$,#1642);
#1622=PRODUCT_DEFINITION_SHAPE('',$,#1643);
#1623=PRODUCT_DEFINITION_SHAPE($,$,#29);
#1624=PRODUCT_DEFINITION_SHAPE($,$,#30);
#1625=PRODUCT_DEFINITION_SHAPE($,$,#31);
#1626=PRODUCT_DEFINITION_SHAPE($,$,#32);
#1627=PRODUCT_DEFINITION_SHAPE($,$,#33);
#1628=PRODUCT_DEFINITION_SHAPE($,$,#34);
#1629=SHAPE_REPRESENTATION('',(#898,#947,#948,#949,#950,#951,#952),#1597);
#1630=SHAPE_REPRESENTATION('',(#899),#1598);
#1631=SHAPE_REPRESENTATION('',(#900),#1599);
#1632=SHAPE_REPRESENTATION('',(#901),#1600);
#1633=SHAPE_REPRESENTATION('',(#902),#1601);
#1634=SHAPE_REPRESENTATION('',(#903),#1602);
#1635=SHAPE_REPRESENTATION('',(#946),#1603);
#1636=PRODUCT_DEFINITION_CONTEXT('part definition',#1659,'design');
#1637=PRODUCT_DEFINITION('chassis-top-revB','chassis-top-revB',#1644,#1636);
#1638=PRODUCT_DEFINITION('fingerprint-bracket','fingerprint-bracket',#1645,
#1636);
#1639=PRODUCT_DEFINITION('touchpad-bracket','touchpad-bracket',#1646,#1636);
#1640=PRODUCT_DEFINITION('encoder-bracket','encoder-bracket',#1647,#1636);
#1641=PRODUCT_DEFINITION('edge-bracket','edge-bracket',#1648,#1636);
#1642=PRODUCT_DEFINITION('touchpad-clamps','touchpad-clamps',#1649,#1636);
#1643=PRODUCT_DEFINITION('corner-bracket','corner-bracket',#1650,#1636);
#1644=PRODUCT_DEFINITION_FORMATION('',$,#1661);
#1645=PRODUCT_DEFINITION_FORMATION('',$,#1662);
#1646=PRODUCT_DEFINITION_FORMATION('',$,#1663);
#1647=PRODUCT_DEFINITION_FORMATION('',$,#1664);
#1648=PRODUCT_DEFINITION_FORMATION('',$,#1665);
#1649=PRODUCT_DEFINITION_FORMATION('',$,#1666);
#1650=PRODUCT_DEFINITION_FORMATION('',$,#1667);
#1651=PRODUCT_RELATED_PRODUCT_CATEGORY('chassis-top-revB',
'chassis-top-revB',(#1661));
#1652=PRODUCT_RELATED_PRODUCT_CATEGORY('fingerprint-bracket',
'fingerprint-bracket',(#1662));
#1653=PRODUCT_RELATED_PRODUCT_CATEGORY('touchpad-bracket',
'touchpad-bracket',(#1663));
#1654=PRODUCT_RELATED_PRODUCT_CATEGORY('encoder-bracket',
'encoder-bracket',(#1664));
#1655=PRODUCT_RELATED_PRODUCT_CATEGORY('edge-bracket','edge-bracket',(#1665));
#1656=PRODUCT_RELATED_PRODUCT_CATEGORY('touchpad-clamps',
'touchpad-clamps',(#1666));
#1657=PRODUCT_RELATED_PRODUCT_CATEGORY('corner-bracket',
'corner-bracket',(#1667));
#1658=APPLICATION_PROTOCOL_DEFINITION('international standard',
'automotive_design',2009,#1659);
#1659=APPLICATION_CONTEXT(
'Core Data for Automotive Mechanical Design Process');
#1660=PRODUCT_CONTEXT('part definition',#1659,'mechanical');
#1661=PRODUCT('chassis-top-revB','chassis-top-revB',$,(#1660));
#1662=PRODUCT('fingerprint-bracket','fingerprint-bracket',$,(#1660));
#1663=PRODUCT('touchpad-bracket','touchpad-bracket',$,(#1660));
#1664=PRODUCT('encoder-bracket','encoder-bracket',$,(#1660));
#1665=PRODUCT('edge-bracket','edge-bracket',$,(#1660));
#1666=PRODUCT('touchpad-clamps','touchpad-clamps',$,(#1660));
#1667=PRODUCT('corner-bracket','corner-bracket',$,(#1660));
#1668=PRESENTATION_STYLE_ASSIGNMENT((#1669));
#1669=SURFACE_STYLE_USAGE(.BOTH.,#1670);
#1670=SURFACE_SIDE_STYLE('',(#1671));
#1671=SURFACE_STYLE_FILL_AREA(#1672);
#1672=FILL_AREA_STYLE('Steel - Satin',(#1673));
#1673=FILL_AREA_STYLE_COLOUR('Steel - Satin',#1674);
#1674=COLOUR_RGB('Steel - Satin',0.627450980392157,0.627450980392157,0.627450980392157);
ENDSEC;
END-ISO-10303-21;
