ISO-10303-21;
HEADER;
/* Generated by software containing ST-Developer
 * from STEP Tools, Inc. (www.steptools.com) 
 */

FILE_DESCRIPTION(
/* description */ (''),
/* implementation_level */ '2;1');

FILE_NAME(
/* name */ 'bottom-bracket-M.step',
/* time_stamp */ '2026-09-06T15:51:03-07:00',
/* author */ (''),
/* organization */ (''),
/* preprocessor_version */ 'ST-DEVELOPER v20.2',
/* originating_system */ 'Autodesk Translation Framework v15.15.0.0',
/* authorisation */ '');

FILE_SCHEMA (('AUTOMOTIVE_DESIGN { 1 0 10303 214 3 1 1 }'));
ENDSEC;

DATA;
#10=MECHANICAL_DESIGN_GEOMETRIC_PRESENTATION_REPRESENTATION('',(#17),#431);
#11=ITEM_DEFINED_TRANSFORMATION($,$,#263,#286);
#12=(
REPRESENTATION_RELATIONSHIP($,$,#442,#441)
REPRESENTATION_RELATIONSHIP_WITH_TRANSFORMATION(#11)
SHAPE_REPRESENTATION_RELATIONSHIP()
);
#13=CONTEXT_DEPENDENT_SHAPE_REPRESENTATION(#12,#440);
#14=NEXT_ASSEMBLY_USAGE_OCCURRENCE('bottom-bracket-M:1',
'bottom-bracket-M:1','bottom-bracket-M:1',#444,#445,
'bottom-bracket-M:1');
#15=SHAPE_REPRESENTATION_RELATIONSHIP('SRR','None',#442,#16);
#16=ADVANCED_BREP_SHAPE_REPRESENTATION('',(#18),#430);
#17=STYLED_ITEM('',(#455),#18);
#18=MANIFOLD_SOLID_BREP('Body1',#249);
#19=FACE_BOUND('',#52,.T.);
#20=FACE_BOUND('',#56,.T.);
#21=FACE_BOUND('',#59,.T.);
#22=FACE_BOUND('',#65,.T.);
#23=FACE_BOUND('',#66,.T.);
#24=FACE_BOUND('',#68,.T.);
#25=PLANE('',#270);
#26=PLANE('',#277);
#27=PLANE('',#278);
#28=PLANE('',#279);
#29=PLANE('',#280);
#30=PLANE('',#281);
#31=PLANE('',#282);
#32=PLANE('',#283);
#33=PLANE('',#284);
#34=PLANE('',#285);
#35=FACE_OUTER_BOUND('',#49,.T.);
#36=FACE_OUTER_BOUND('',#50,.T.);
#37=FACE_OUTER_BOUND('',#51,.T.);
#38=FACE_OUTER_BOUND('',#53,.T.);
#39=FACE_OUTER_BOUND('',#54,.T.);
#40=FACE_OUTER_BOUND('',#55,.T.);
#41=FACE_OUTER_BOUND('',#57,.T.);
#42=FACE_OUTER_BOUND('',#58,.T.);
#43=FACE_OUTER_BOUND('',#60,.T.);
#44=FACE_OUTER_BOUND('',#61,.T.);
#45=FACE_OUTER_BOUND('',#62,.T.);
#46=FACE_OUTER_BOUND('',#63,.T.);
#47=FACE_OUTER_BOUND('',#64,.T.);
#48=FACE_OUTER_BOUND('',#67,.T.);
#49=EDGE_LOOP('',(#171,#172,#173,#174));
#50=EDGE_LOOP('',(#175,#176,#177,#178));
#51=EDGE_LOOP('',(#179));
#52=EDGE_LOOP('',(#180));
#53=EDGE_LOOP('',(#181,#182,#183,#184));
#54=EDGE_LOOP('',(#185,#186,#187,#188));
#55=EDGE_LOOP('',(#189));
#56=EDGE_LOOP('',(#190));
#57=EDGE_LOOP('',(#191,#192,#193,#194));
#58=EDGE_LOOP('',(#195,#196,#197,#198));
#59=EDGE_LOOP('',(#199));
#60=EDGE_LOOP('',(#200,#201,#202,#203));
#61=EDGE_LOOP('',(#204,#205,#206,#207,#208,#209));
#62=EDGE_LOOP('',(#210,#211,#212,#213));
#63=EDGE_LOOP('',(#214,#215,#216,#217,#218,#219));
#64=EDGE_LOOP('',(#220,#221,#222,#223));
#65=EDGE_LOOP('',(#224));
#66=EDGE_LOOP('',(#225));
#67=EDGE_LOOP('',(#226,#227,#228,#229));
#68=EDGE_LOOP('',(#230));
#69=LINE('',#365,#91);
#70=LINE('',#371,#92);
#71=LINE('',#378,#93);
#72=LINE('',#384,#94);
#73=LINE('',#390,#95);
#74=LINE('',#392,#96);
#75=LINE('',#394,#97);
#76=LINE('',#395,#98);
#77=LINE('',#398,#99);
#78=LINE('',#400,#100);
#79=LINE('',#401,#101);
#80=LINE('',#405,#102);
#81=LINE('',#407,#103);
#82=LINE('',#409,#104);
#83=LINE('',#410,#105);
#84=LINE('',#413,#106);
#85=LINE('',#414,#107);
#86=LINE('',#415,#108);
#87=LINE('',#418,#109);
#88=LINE('',#419,#110);
#89=LINE('',#421,#111);
#90=LINE('',#422,#112);
#91=VECTOR('',#295,2.85);
#92=VECTOR('',#302,1.65);
#93=VECTOR('',#311,1.9);
#94=VECTOR('',#318,1.1);
#95=VECTOR('',#325,10.);
#96=VECTOR('',#326,10.);
#97=VECTOR('',#327,10.);
#98=VECTOR('',#328,10.);
#99=VECTOR('',#331,10.);
#100=VECTOR('',#332,10.);
#101=VECTOR('',#333,10.);
#102=VECTOR('',#336,10.);
#103=VECTOR('',#337,10.);
#104=VECTOR('',#338,10.);
#105=VECTOR('',#339,10.);
#106=VECTOR('',#342,10.);
#107=VECTOR('',#343,10.);
#108=VECTOR('',#344,10.);
#109=VECTOR('',#347,10.);
#110=VECTOR('',#348,10.);
#111=VECTOR('',#351,10.);
#112=VECTOR('',#352,10.);
#113=CIRCLE('',#265,2.85);
#114=CIRCLE('',#266,2.85);
#115=CIRCLE('',#268,1.65);
#116=CIRCLE('',#269,1.65);
#117=CIRCLE('',#272,1.9);
#118=CIRCLE('',#273,1.9);
#119=CIRCLE('',#275,1.1);
#120=CIRCLE('',#276,1.1);
#121=VERTEX_POINT('',#362);
#122=VERTEX_POINT('',#364);
#123=VERTEX_POINT('',#368);
#124=VERTEX_POINT('',#370);
#125=VERTEX_POINT('',#375);
#126=VERTEX_POINT('',#377);
#127=VERTEX_POINT('',#381);
#128=VERTEX_POINT('',#383);
#129=VERTEX_POINT('',#388);
#130=VERTEX_POINT('',#389);
#131=VERTEX_POINT('',#391);
#132=VERTEX_POINT('',#393);
#133=VERTEX_POINT('',#397);
#134=VERTEX_POINT('',#399);
#135=VERTEX_POINT('',#403);
#136=VERTEX_POINT('',#404);
#137=VERTEX_POINT('',#406);
#138=VERTEX_POINT('',#408);
#139=VERTEX_POINT('',#412);
#140=VERTEX_POINT('',#417);
#141=EDGE_CURVE('',#121,#121,#113,.T.);
#142=EDGE_CURVE('',#121,#122,#69,.T.);
#143=EDGE_CURVE('',#122,#122,#114,.T.);
#144=EDGE_CURVE('',#123,#123,#115,.T.);
#145=EDGE_CURVE('',#123,#124,#70,.T.);
#146=EDGE_CURVE('',#124,#124,#116,.T.);
#147=EDGE_CURVE('',#125,#125,#117,.T.);
#148=EDGE_CURVE('',#125,#126,#71,.T.);
#149=EDGE_CURVE('',#126,#126,#118,.T.);
#150=EDGE_CURVE('',#127,#127,#119,.T.);
#151=EDGE_CURVE('',#127,#128,#72,.T.);
#152=EDGE_CURVE('',#128,#128,#120,.T.);
#153=EDGE_CURVE('',#129,#130,#73,.T.);
#154=EDGE_CURVE('',#131,#130,#74,.T.);
#155=EDGE_CURVE('',#132,#131,#75,.T.);
#156=EDGE_CURVE('',#132,#129,#76,.T.);
#157=EDGE_CURVE('',#133,#129,#77,.T.);
#158=EDGE_CURVE('',#134,#133,#78,.T.);
#159=EDGE_CURVE('',#130,#134,#79,.T.);
#160=EDGE_CURVE('',#135,#136,#80,.T.);
#161=EDGE_CURVE('',#137,#136,#81,.T.);
#162=EDGE_CURVE('',#138,#137,#82,.T.);
#163=EDGE_CURVE('',#138,#135,#83,.T.);
#164=EDGE_CURVE('',#136,#139,#84,.T.);
#165=EDGE_CURVE('',#133,#139,#85,.T.);
#166=EDGE_CURVE('',#137,#132,#86,.T.);
#167=EDGE_CURVE('',#139,#140,#87,.T.);
#168=EDGE_CURVE('',#134,#140,#88,.T.);
#169=EDGE_CURVE('',#140,#135,#89,.T.);
#170=EDGE_CURVE('',#131,#138,#90,.T.);
#171=ORIENTED_EDGE('',*,*,#141,.T.);
#172=ORIENTED_EDGE('',*,*,#142,.T.);
#173=ORIENTED_EDGE('',*,*,#143,.T.);
#174=ORIENTED_EDGE('',*,*,#142,.F.);
#175=ORIENTED_EDGE('',*,*,#144,.T.);
#176=ORIENTED_EDGE('',*,*,#145,.T.);
#177=ORIENTED_EDGE('',*,*,#146,.T.);
#178=ORIENTED_EDGE('',*,*,#145,.F.);
#179=ORIENTED_EDGE('',*,*,#141,.F.);
#180=ORIENTED_EDGE('',*,*,#144,.F.);
#181=ORIENTED_EDGE('',*,*,#147,.T.);
#182=ORIENTED_EDGE('',*,*,#148,.T.);
#183=ORIENTED_EDGE('',*,*,#149,.T.);
#184=ORIENTED_EDGE('',*,*,#148,.F.);
#185=ORIENTED_EDGE('',*,*,#150,.T.);
#186=ORIENTED_EDGE('',*,*,#151,.T.);
#187=ORIENTED_EDGE('',*,*,#152,.T.);
#188=ORIENTED_EDGE('',*,*,#151,.F.);
#189=ORIENTED_EDGE('',*,*,#147,.F.);
#190=ORIENTED_EDGE('',*,*,#150,.F.);
#191=ORIENTED_EDGE('',*,*,#153,.T.);
#192=ORIENTED_EDGE('',*,*,#154,.F.);
#193=ORIENTED_EDGE('',*,*,#155,.F.);
#194=ORIENTED_EDGE('',*,*,#156,.T.);
#195=ORIENTED_EDGE('',*,*,#153,.F.);
#196=ORIENTED_EDGE('',*,*,#157,.F.);
#197=ORIENTED_EDGE('',*,*,#158,.F.);
#198=ORIENTED_EDGE('',*,*,#159,.F.);
#199=ORIENTED_EDGE('',*,*,#143,.F.);
#200=ORIENTED_EDGE('',*,*,#160,.T.);
#201=ORIENTED_EDGE('',*,*,#161,.F.);
#202=ORIENTED_EDGE('',*,*,#162,.F.);
#203=ORIENTED_EDGE('',*,*,#163,.T.);
#204=ORIENTED_EDGE('',*,*,#164,.T.);
#205=ORIENTED_EDGE('',*,*,#165,.F.);
#206=ORIENTED_EDGE('',*,*,#157,.T.);
#207=ORIENTED_EDGE('',*,*,#156,.F.);
#208=ORIENTED_EDGE('',*,*,#166,.F.);
#209=ORIENTED_EDGE('',*,*,#161,.T.);
#210=ORIENTED_EDGE('',*,*,#158,.T.);
#211=ORIENTED_EDGE('',*,*,#165,.T.);
#212=ORIENTED_EDGE('',*,*,#167,.T.);
#213=ORIENTED_EDGE('',*,*,#168,.F.);
#214=ORIENTED_EDGE('',*,*,#169,.T.);
#215=ORIENTED_EDGE('',*,*,#163,.F.);
#216=ORIENTED_EDGE('',*,*,#170,.F.);
#217=ORIENTED_EDGE('',*,*,#154,.T.);
#218=ORIENTED_EDGE('',*,*,#159,.T.);
#219=ORIENTED_EDGE('',*,*,#168,.T.);
#220=ORIENTED_EDGE('',*,*,#166,.T.);
#221=ORIENTED_EDGE('',*,*,#155,.T.);
#222=ORIENTED_EDGE('',*,*,#170,.T.);
#223=ORIENTED_EDGE('',*,*,#162,.T.);
#224=ORIENTED_EDGE('',*,*,#146,.F.);
#225=ORIENTED_EDGE('',*,*,#152,.F.);
#226=ORIENTED_EDGE('',*,*,#167,.F.);
#227=ORIENTED_EDGE('',*,*,#164,.F.);
#228=ORIENTED_EDGE('',*,*,#160,.F.);
#229=ORIENTED_EDGE('',*,*,#169,.F.);
#230=ORIENTED_EDGE('',*,*,#149,.F.);
#231=CYLINDRICAL_SURFACE('',#264,2.85);
#232=CYLINDRICAL_SURFACE('',#267,1.65);
#233=CYLINDRICAL_SURFACE('',#271,1.9);
#234=CYLINDRICAL_SURFACE('',#274,1.1);
#235=ADVANCED_FACE('',(#35),#231,.T.);
#236=ADVANCED_FACE('',(#36),#232,.F.);
#237=ADVANCED_FACE('',(#37,#19),#25,.T.);
#238=ADVANCED_FACE('',(#38),#233,.T.);
#239=ADVANCED_FACE('',(#39),#234,.F.);
#240=ADVANCED_FACE('',(#40,#20),#26,.T.);
#241=ADVANCED_FACE('',(#41),#27,.T.);
#242=ADVANCED_FACE('',(#42,#21),#28,.T.);
#243=ADVANCED_FACE('',(#43),#29,.T.);
#244=ADVANCED_FACE('',(#44),#30,.T.);
#245=ADVANCED_FACE('',(#45),#31,.T.);
#246=ADVANCED_FACE('',(#46),#32,.T.);
#247=ADVANCED_FACE('',(#47,#22,#23),#33,.F.);
#248=ADVANCED_FACE('',(#48,#24),#34,.T.);
#249=CLOSED_SHELL('',(#235,#236,#237,#238,#239,#240,#241,#242,#243,#244,
#245,#246,#247,#248));
#250=DERIVED_UNIT_ELEMENT(#252,1.);
#251=DERIVED_UNIT_ELEMENT(#433,-3.);
#252=(
MASS_UNIT()
NAMED_UNIT(*)
SI_UNIT(.KILO.,.GRAM.)
);
#253=DERIVED_UNIT((#250,#251));
#254=MEASURE_REPRESENTATION_ITEM('density measure',
POSITIVE_RATIO_MEASURE(7850.),#253);
#255=PROPERTY_DEFINITION_REPRESENTATION(#260,#257);
#256=PROPERTY_DEFINITION_REPRESENTATION(#261,#258);
#257=REPRESENTATION('material name',(#259),#430);
#258=REPRESENTATION('density',(#254),#430);
#259=DESCRIPTIVE_REPRESENTATION_ITEM('Steel','Steel');
#260=PROPERTY_DEFINITION('material property','material name',#445);
#261=PROPERTY_DEFINITION('material property','density of part',#445);
#262=AXIS2_PLACEMENT_3D('',#359,#287,#288);
#263=AXIS2_PLACEMENT_3D('',#360,#289,#290);
#264=AXIS2_PLACEMENT_3D('',#361,#291,#292);
#265=AXIS2_PLACEMENT_3D('',#363,#293,#294);
#266=AXIS2_PLACEMENT_3D('',#366,#296,#297);
#267=AXIS2_PLACEMENT_3D('',#367,#298,#299);
#268=AXIS2_PLACEMENT_3D('',#369,#300,#301);
#269=AXIS2_PLACEMENT_3D('',#372,#303,#304);
#270=AXIS2_PLACEMENT_3D('',#373,#305,#306);
#271=AXIS2_PLACEMENT_3D('',#374,#307,#308);
#272=AXIS2_PLACEMENT_3D('',#376,#309,#310);
#273=AXIS2_PLACEMENT_3D('',#379,#312,#313);
#274=AXIS2_PLACEMENT_3D('',#380,#314,#315);
#275=AXIS2_PLACEMENT_3D('',#382,#316,#317);
#276=AXIS2_PLACEMENT_3D('',#385,#319,#320);
#277=AXIS2_PLACEMENT_3D('',#386,#321,#322);
#278=AXIS2_PLACEMENT_3D('',#387,#323,#324);
#279=AXIS2_PLACEMENT_3D('',#396,#329,#330);
#280=AXIS2_PLACEMENT_3D('',#402,#334,#335);
#281=AXIS2_PLACEMENT_3D('',#411,#340,#341);
#282=AXIS2_PLACEMENT_3D('',#416,#345,#346);
#283=AXIS2_PLACEMENT_3D('',#420,#349,#350);
#284=AXIS2_PLACEMENT_3D('',#423,#353,#354);
#285=AXIS2_PLACEMENT_3D('',#424,#355,#356);
#286=AXIS2_PLACEMENT_3D('',#425,#357,#358);
#287=DIRECTION('axis',(0.,0.,1.));
#288=DIRECTION('refdir',(1.,0.,0.));
#289=DIRECTION('axis',(0.,0.,1.));
#290=DIRECTION('refdir',(1.,0.,0.));
#291=DIRECTION('center_axis',(0.,0.,1.));
#292=DIRECTION('ref_axis',(1.,0.,0.));
#293=DIRECTION('center_axis',(0.,0.,-1.));
#294=DIRECTION('ref_axis',(1.,0.,0.));
#295=DIRECTION('',(0.,0.,-1.));
#296=DIRECTION('center_axis',(0.,0.,1.));
#297=DIRECTION('ref_axis',(1.,0.,0.));
#298=DIRECTION('center_axis',(0.,0.,1.));
#299=DIRECTION('ref_axis',(1.,0.,0.));
#300=DIRECTION('center_axis',(0.,0.,1.));
#301=DIRECTION('ref_axis',(1.,0.,0.));
#302=DIRECTION('',(0.,0.,-1.));
#303=DIRECTION('center_axis',(0.,0.,-1.));
#304=DIRECTION('ref_axis',(1.,0.,0.));
#305=DIRECTION('center_axis',(0.,0.,1.));
#306=DIRECTION('ref_axis',(1.,0.,0.));
#307=DIRECTION('center_axis',(0.,0.,1.));
#308=DIRECTION('ref_axis',(1.,0.,0.));
#309=DIRECTION('center_axis',(0.,0.,-1.));
#310=DIRECTION('ref_axis',(1.,0.,0.));
#311=DIRECTION('',(0.,0.,-1.));
#312=DIRECTION('center_axis',(0.,0.,1.));
#313=DIRECTION('ref_axis',(1.,0.,0.));
#314=DIRECTION('center_axis',(0.,0.,1.));
#315=DIRECTION('ref_axis',(1.,0.,0.));
#316=DIRECTION('center_axis',(0.,0.,1.));
#317=DIRECTION('ref_axis',(1.,0.,0.));
#318=DIRECTION('',(0.,0.,-1.));
#319=DIRECTION('center_axis',(0.,0.,-1.));
#320=DIRECTION('ref_axis',(1.,0.,0.));
#321=DIRECTION('center_axis',(0.,0.,1.));
#322=DIRECTION('ref_axis',(1.,0.,0.));
#323=DIRECTION('center_axis',(0.,-1.,0.));
#324=DIRECTION('ref_axis',(1.,0.,0.));
#325=DIRECTION('',(-1.,0.,0.));
#326=DIRECTION('',(0.,0.,1.));
#327=DIRECTION('',(-1.,0.,0.));
#328=DIRECTION('',(0.,0.,1.));
#329=DIRECTION('center_axis',(0.,0.,1.));
#330=DIRECTION('ref_axis',(1.,0.,0.));
#331=DIRECTION('',(0.,-1.,0.));
#332=DIRECTION('',(1.,0.,0.));
#333=DIRECTION('',(0.,1.,0.));
#334=DIRECTION('center_axis',(0.,1.,0.));
#335=DIRECTION('ref_axis',(-1.,0.,0.));
#336=DIRECTION('',(1.,0.,0.));
#337=DIRECTION('',(0.,0.,1.));
#338=DIRECTION('',(1.,0.,0.));
#339=DIRECTION('',(0.,0.,1.));
#340=DIRECTION('center_axis',(1.,0.,0.));
#341=DIRECTION('ref_axis',(0.,1.,0.));
#342=DIRECTION('',(0.,-1.,0.));
#343=DIRECTION('',(0.,0.,1.));
#344=DIRECTION('',(0.,-1.,0.));
#345=DIRECTION('center_axis',(0.,-1.,0.));
#346=DIRECTION('ref_axis',(1.,0.,0.));
#347=DIRECTION('',(-1.,0.,0.));
#348=DIRECTION('',(0.,0.,1.));
#349=DIRECTION('center_axis',(-1.,0.,0.));
#350=DIRECTION('ref_axis',(0.,-1.,0.));
#351=DIRECTION('',(0.,1.,0.));
#352=DIRECTION('',(0.,1.,0.));
#353=DIRECTION('center_axis',(0.,0.,1.));
#354=DIRECTION('ref_axis',(1.,0.,0.));
#355=DIRECTION('center_axis',(0.,0.,1.));
#356=DIRECTION('ref_axis',(1.,0.,0.));
#357=DIRECTION('',(0.,0.,1.));
#358=DIRECTION('',(1.,0.,0.));
#359=CARTESIAN_POINT('',(0.,0.,0.));
#360=CARTESIAN_POINT('',(0.,0.,0.));
#361=CARTESIAN_POINT('Origin',(3.8596636035253E-14,-34.5999999999998,0.));
#362=CARTESIAN_POINT('',(-2.84999999999996,-34.5999999999998,4.6));
#363=CARTESIAN_POINT('Origin',(3.8596636035253E-14,-34.5999999999998,4.6));
#364=CARTESIAN_POINT('',(-2.84999999999996,-34.5999999999998,1.2));
#365=CARTESIAN_POINT('',(-2.84999999999996,-34.5999999999998,0.));
#366=CARTESIAN_POINT('Origin',(3.8596636035253E-14,-34.5999999999998,1.2));
#367=CARTESIAN_POINT('Origin',(3.8596636035253E-14,-34.5999999999998,0.));
#368=CARTESIAN_POINT('',(-1.64999999999996,-34.5999999999998,4.6));
#369=CARTESIAN_POINT('Origin',(3.8596636035253E-14,-34.5999999999998,4.6));
#370=CARTESIAN_POINT('',(-1.64999999999996,-34.5999999999998,0.));
#371=CARTESIAN_POINT('',(-1.64999999999996,-34.5999999999998,0.));
#372=CARTESIAN_POINT('Origin',(3.8596636035253E-14,-34.5999999999998,0.));
#373=CARTESIAN_POINT('Origin',(3.88578058618805E-14,-34.5999999999998,4.6));
#374=CARTESIAN_POINT('Origin',(28.5,-24.45,0.));
#375=CARTESIAN_POINT('',(26.6,-24.45,3.));
#376=CARTESIAN_POINT('Origin',(28.5,-24.45,3.));
#377=CARTESIAN_POINT('',(26.6,-24.45,2.4));
#378=CARTESIAN_POINT('',(26.6,-24.45,0.));
#379=CARTESIAN_POINT('Origin',(28.5,-24.45,2.4));
#380=CARTESIAN_POINT('Origin',(28.5,-24.45,0.));
#381=CARTESIAN_POINT('',(27.4,-24.45,3.));
#382=CARTESIAN_POINT('Origin',(28.5,-24.45,3.));
#383=CARTESIAN_POINT('',(27.4,-24.45,0.));
#384=CARTESIAN_POINT('',(27.4,-24.45,0.));
#385=CARTESIAN_POINT('Origin',(28.5,-24.45,0.));
#386=CARTESIAN_POINT('Origin',(28.5,-24.45,3.));
#387=CARTESIAN_POINT('Origin',(-4.04999999999996,-38.6499999999998,0.));
#388=CARTESIAN_POINT('',(31.6,-38.6499999999998,1.2));
#389=CARTESIAN_POINT('',(-4.04999999999996,-38.6499999999998,1.2));
#390=CARTESIAN_POINT('',(4.86250000000003,-38.6499999999998,1.2));
#391=CARTESIAN_POINT('',(-4.04999999999996,-38.6499999999998,0.));
#392=CARTESIAN_POINT('',(-4.04999999999996,-38.6499999999998,0.));
#393=CARTESIAN_POINT('',(31.6,-38.6499999999998,0.));
#394=CARTESIAN_POINT('',(31.6,-38.6499999999998,0.));
#395=CARTESIAN_POINT('',(31.6,-38.6499999999998,0.));
#396=CARTESIAN_POINT('Origin',(13.775,-33.8249999999999,1.2));
#397=CARTESIAN_POINT('',(31.6,-29.,1.2));
#398=CARTESIAN_POINT('',(31.6,-36.2374999999999,1.2));
#399=CARTESIAN_POINT('',(-4.04999999999996,-29.,1.2));
#400=CARTESIAN_POINT('',(4.86250000000003,-29.,1.2));
#401=CARTESIAN_POINT('',(-4.04999999999996,-31.4125,1.2));
#402=CARTESIAN_POINT('Origin',(31.6,-21.35,0.));
#403=CARTESIAN_POINT('',(-4.04999999999996,-21.35,2.4));
#404=CARTESIAN_POINT('',(31.6,-21.35,2.4));
#405=CARTESIAN_POINT('',(22.6875,-21.35,2.4));
#406=CARTESIAN_POINT('',(31.6,-21.35,0.));
#407=CARTESIAN_POINT('',(31.6,-21.35,0.));
#408=CARTESIAN_POINT('',(-4.04999999999996,-21.35,0.));
#409=CARTESIAN_POINT('',(-4.04999999999996,-21.35,0.));
#410=CARTESIAN_POINT('',(-4.04999999999996,-21.35,0.));
#411=CARTESIAN_POINT('Origin',(31.6,-29.,0.));
#412=CARTESIAN_POINT('',(31.6,-29.,2.4));
#413=CARTESIAN_POINT('',(31.6,-27.0875,2.4));
#414=CARTESIAN_POINT('',(31.6,-29.,0.));
#415=CARTESIAN_POINT('',(31.6,-21.35,0.));
#416=CARTESIAN_POINT('Origin',(-4.04999999999996,-29.,0.));
#417=CARTESIAN_POINT('',(-4.04999999999996,-29.,2.4));
#418=CARTESIAN_POINT('',(4.86250000000003,-29.,2.4));
#419=CARTESIAN_POINT('',(-4.04999999999996,-29.,0.));
#420=CARTESIAN_POINT('Origin',(-4.04999999999996,-21.35,0.));
#421=CARTESIAN_POINT('',(-4.04999999999996,-23.2625,2.4));
#422=CARTESIAN_POINT('',(-4.04999999999996,-38.6499999999998,0.));
#423=CARTESIAN_POINT('Origin',(13.775,-25.175,0.));
#424=CARTESIAN_POINT('Origin',(13.775,-25.175,2.4));
#425=CARTESIAN_POINT('',(0.,0.,0.));
#426=UNCERTAINTY_MEASURE_WITH_UNIT(LENGTH_MEASURE(0.01),#432,
'DISTANCE_ACCURACY_VALUE',
'Maximum model space distance between geometric entities at asserted c
onnectivities');
#427=UNCERTAINTY_MEASURE_WITH_UNIT(LENGTH_MEASURE(0.01),#432,
'DISTANCE_ACCURACY_VALUE',
'Maximum model space distance between geometric entities at asserted c
onnectivities');
#428=UNCERTAINTY_MEASURE_WITH_UNIT(LENGTH_MEASURE(0.01),#432,
'DISTANCE_ACCURACY_VALUE',
'Maximum model space distance between geometric entities at asserted c
onnectivities');
#429=(
GEOMETRIC_REPRESENTATION_CONTEXT(3)
GLOBAL_UNCERTAINTY_ASSIGNED_CONTEXT((#426))
GLOBAL_UNIT_ASSIGNED_CONTEXT((#432,#434,#435))
REPRESENTATION_CONTEXT('','3D')
);
#430=(
GEOMETRIC_REPRESENTATION_CONTEXT(3)
GLOBAL_UNCERTAINTY_ASSIGNED_CONTEXT((#427))
GLOBAL_UNIT_ASSIGNED_CONTEXT((#432,#434,#435))
REPRESENTATION_CONTEXT('','3D')
);
#431=(
GEOMETRIC_REPRESENTATION_CONTEXT(3)
GLOBAL_UNCERTAINTY_ASSIGNED_CONTEXT((#428))
GLOBAL_UNIT_ASSIGNED_CONTEXT((#432,#434,#435))
REPRESENTATION_CONTEXT('','3D')
);
#432=(
LENGTH_UNIT()
NAMED_UNIT(*)
SI_UNIT(.MILLI.,.METRE.)
);
#433=(
LENGTH_UNIT()
NAMED_UNIT(*)
SI_UNIT($,.METRE.)
);
#434=(
NAMED_UNIT(*)
PLANE_ANGLE_UNIT()
SI_UNIT($,.RADIAN.)
);
#435=(
NAMED_UNIT(*)
SI_UNIT($,.STERADIAN.)
SOLID_ANGLE_UNIT()
);
#436=SHAPE_DEFINITION_REPRESENTATION(#438,#441);
#437=SHAPE_DEFINITION_REPRESENTATION(#439,#442);
#438=PRODUCT_DEFINITION_SHAPE('',$,#444);
#439=PRODUCT_DEFINITION_SHAPE('',$,#445);
#440=PRODUCT_DEFINITION_SHAPE($,$,#14);
#441=SHAPE_REPRESENTATION('',(#262,#286),#429);
#442=SHAPE_REPRESENTATION('',(#263),#430);
#443=PRODUCT_DEFINITION_CONTEXT('part definition',#451,'design');
#444=PRODUCT_DEFINITION('chassis-bottom-revB','chassis-bottom-revB',#446,
#443);
#445=PRODUCT_DEFINITION('bottom-bracket-M','bottom-bracket-M',#447,#443);
#446=PRODUCT_DEFINITION_FORMATION('',$,#453);
#447=PRODUCT_DEFINITION_FORMATION('',$,#454);
#448=PRODUCT_RELATED_PRODUCT_CATEGORY('chassis-bottom-revB',
'chassis-bottom-revB',(#453));
#449=PRODUCT_RELATED_PRODUCT_CATEGORY('bottom-bracket-M',
'bottom-bracket-M',(#454));
#450=APPLICATION_PROTOCOL_DEFINITION('international standard',
'automotive_design',2009,#451);
#451=APPLICATION_CONTEXT(
'Core Data for Automotive Mechanical Design Process');
#452=PRODUCT_CONTEXT('part definition',#451,'mechanical');
#453=PRODUCT('chassis-bottom-revB','chassis-bottom-revB',$,(#452));
#454=PRODUCT('bottom-bracket-M','bottom-bracket-M',$,(#452));
#455=PRESENTATION_STYLE_ASSIGNMENT((#456));
#456=SURFACE_STYLE_USAGE(.BOTH.,#457);
#457=SURFACE_SIDE_STYLE('',(#458));
#458=SURFACE_STYLE_FILL_AREA(#459);
#459=FILL_AREA_STYLE('Steel - Satin',(#460));
#460=FILL_AREA_STYLE_COLOUR('Steel - Satin',#461);
#461=COLOUR_RGB('Steel - Satin',0.627450980392157,0.627450980392157,0.627450980392157);
ENDSEC;
END-ISO-10303-21;
