ISO-10303-21;
HEADER;
/* Generated by software containing ST-Developer
 * from STEP Tools, Inc. (www.steptools.com) 
 */

FILE_DESCRIPTION(
/* description */ (''),
/* implementation_level */ '2;1');

FILE_NAME(
/* name */ 'knob.step',
/* time_stamp */ '2026-09-06T16:00:11-07:00',
/* author */ (''),
/* organization */ (''),
/* preprocessor_version */ 'ST-DEVELOPER v20.2',
/* originating_system */ 'Autodesk Translation Framework v15.15.0.0',
/* authorisation */ '');

FILE_SCHEMA (('AUTOMOTIVE_DESIGN { 1 0 10303 214 3 1 1 }'));
ENDSEC;

DATA;
#10=MECHANICAL_DESIGN_GEOMETRIC_PRESENTATION_REPRESENTATION('',(#13),#403);
#11=SHAPE_REPRESENTATION_RELATIONSHIP('SRR','None',#410,#12);
#12=ADVANCED_BREP_SHAPE_REPRESENTATION('',(#14),#402);
#13=STYLED_ITEM('',(#419),#14);
#14=MANIFOLD_SOLID_BREP('Body1',#204);
#15=SPHERICAL_SURFACE('',#235,4.);
#16=PLANE('',#223);
#17=PLANE('',#234);
#18=PLANE('',#242);
#19=PLANE('',#243);
#20=PLANE('',#244);
#21=FACE_BOUND('',#48,.T.);
#22=FACE_BOUND('',#50,.T.);
#23=FACE_BOUND('',#59,.T.);
#24=FACE_BOUND('',#61,.T.);
#25=FACE_BOUND('',#63,.T.);
#26=B_SPLINE_CURVE_WITH_KNOTS('',3,(#323,#324,#325,#326,#327,#328,#329,
#330,#331,#332,#333,#334,#335,#336,#337,#338,#339,#340,#341,#342,#343,#344,
#345,#346,#347,#348,#349,#350,#351,#352,#353,#354,#355,#356),
 .UNSPECIFIED.,.T.,.F.,(4,2,2,2,2,2,2,2,2,2,2,2,2,2,2,2,4),(0.,0.0301463692986489,
0.0602927385972978,0.0904390793158526,0.120585420034407,0.150731760752962,
0.180878101471517,0.211024470770166,0.241170840068815,0.271317209367464,
0.301463578666113,0.331609919384668,0.361756260103222,0.391902600821777,
0.422048941540332,0.452195310838981,0.48234168013763),.UNSPECIFIED.);
#27=CYLINDRICAL_SURFACE('',#221,11.);
#28=CYLINDRICAL_SURFACE('',#225,0.5);
#29=CYLINDRICAL_SURFACE('',#228,3.1);
#30=CYLINDRICAL_SURFACE('',#231,0.5);
#31=CYLINDRICAL_SURFACE('',#237,0.8);
#32=CYLINDRICAL_SURFACE('',#239,9.8);
#33=FACE_OUTER_BOUND('',#46,.T.);
#34=FACE_OUTER_BOUND('',#47,.T.);
#35=FACE_OUTER_BOUND('',#49,.T.);
#36=FACE_OUTER_BOUND('',#51,.T.);
#37=FACE_OUTER_BOUND('',#52,.T.);
#38=FACE_OUTER_BOUND('',#53,.T.);
#39=FACE_OUTER_BOUND('',#54,.T.);
#40=FACE_OUTER_BOUND('',#55,.T.);
#41=FACE_OUTER_BOUND('',#56,.T.);
#42=FACE_OUTER_BOUND('',#57,.T.);
#43=FACE_OUTER_BOUND('',#58,.T.);
#44=FACE_OUTER_BOUND('',#60,.T.);
#45=FACE_OUTER_BOUND('',#62,.T.);
#46=EDGE_LOOP('',(#140,#141,#142,#143));
#47=EDGE_LOOP('',(#144,#145,#146,#147));
#48=EDGE_LOOP('',(#148));
#49=EDGE_LOOP('',(#149));
#50=EDGE_LOOP('',(#150));
#51=EDGE_LOOP('',(#151,#152,#153,#154));
#52=EDGE_LOOP('',(#155,#156,#157,#158));
#53=EDGE_LOOP('',(#159,#160,#161,#162));
#54=EDGE_LOOP('',(#163,#164,#165,#166));
#55=EDGE_LOOP('',(#167,#168,#169));
#56=EDGE_LOOP('',(#170,#171,#172,#173));
#57=EDGE_LOOP('',(#174,#175,#176,#177));
#58=EDGE_LOOP('',(#178));
#59=EDGE_LOOP('',(#179));
#60=EDGE_LOOP('',(#180,#181,#182,#183));
#61=EDGE_LOOP('',(#184));
#62=EDGE_LOOP('',(#185));
#63=EDGE_LOOP('',(#186,#187,#188,#189));
#64=LINE('',#316,#74);
#65=LINE('',#321,#75);
#66=LINE('',#365,#76);
#67=LINE('',#368,#77);
#68=LINE('',#373,#78);
#69=LINE('',#379,#79);
#70=LINE('',#382,#80);
#71=LINE('',#389,#81);
#72=LINE('',#394,#82);
#73=LINE('',#398,#83);
#74=VECTOR('',#251,10.9);
#75=VECTOR('',#258,11.);
#76=VECTOR('',#267,10.);
#77=VECTOR('',#270,10.);
#78=VECTOR('',#275,10.);
#79=VECTOR('',#282,10.);
#80=VECTOR('',#287,10.);
#81=VECTOR('',#296,0.8);
#82=VECTOR('',#301,9.8);
#83=VECTOR('',#308,10.);
#84=CIRCLE('',#219,11.);
#85=CIRCLE('',#220,10.8);
#86=CIRCLE('',#222,11.);
#87=CIRCLE('',#224,1.93649167310371);
#88=CIRCLE('',#226,0.5);
#89=CIRCLE('',#227,0.5);
#90=CIRCLE('',#229,3.1);
#91=CIRCLE('',#230,3.1);
#92=CIRCLE('',#232,0.5);
#93=CIRCLE('',#233,0.5);
#94=CIRCLE('',#236,4.);
#95=CIRCLE('',#238,0.8);
#96=CIRCLE('',#240,9.8);
#97=CIRCLE('',#241,9.8);
#98=VERTEX_POINT('',#313);
#99=VERTEX_POINT('',#315);
#100=VERTEX_POINT('',#319);
#101=VERTEX_POINT('',#322);
#102=VERTEX_POINT('',#358);
#103=VERTEX_POINT('',#361);
#104=VERTEX_POINT('',#362);
#105=VERTEX_POINT('',#364);
#106=VERTEX_POINT('',#366);
#107=VERTEX_POINT('',#370);
#108=VERTEX_POINT('',#372);
#109=VERTEX_POINT('',#376);
#110=VERTEX_POINT('',#378);
#111=VERTEX_POINT('',#384);
#112=VERTEX_POINT('',#387);
#113=VERTEX_POINT('',#391);
#114=VERTEX_POINT('',#393);
#115=EDGE_CURVE('',#98,#98,#84,.T.);
#116=EDGE_CURVE('',#98,#99,#64,.T.);
#117=EDGE_CURVE('',#99,#99,#85,.T.);
#118=EDGE_CURVE('',#100,#100,#86,.T.);
#119=EDGE_CURVE('',#100,#98,#65,.T.);
#120=EDGE_CURVE('',#101,#101,#26,.T.);
#121=EDGE_CURVE('',#102,#102,#87,.T.);
#122=EDGE_CURVE('',#103,#104,#88,.T.);
#123=EDGE_CURVE('',#103,#105,#66,.T.);
#124=EDGE_CURVE('',#105,#106,#89,.T.);
#125=EDGE_CURVE('',#106,#104,#67,.T.);
#126=EDGE_CURVE('',#107,#103,#90,.T.);
#127=EDGE_CURVE('',#108,#107,#68,.T.);
#128=EDGE_CURVE('',#105,#108,#91,.T.);
#129=EDGE_CURVE('',#109,#107,#92,.T.);
#130=EDGE_CURVE('',#109,#110,#69,.T.);
#131=EDGE_CURVE('',#110,#108,#93,.T.);
#132=EDGE_CURVE('',#104,#109,#70,.T.);
#133=EDGE_CURVE('',#102,#111,#94,.T.);
#134=EDGE_CURVE('',#112,#112,#95,.T.);
#135=EDGE_CURVE('',#112,#101,#71,.T.);
#136=EDGE_CURVE('',#113,#113,#96,.T.);
#137=EDGE_CURVE('',#113,#114,#72,.T.);
#138=EDGE_CURVE('',#114,#114,#97,.T.);
#139=EDGE_CURVE('',#110,#106,#73,.T.);
#140=ORIENTED_EDGE('',*,*,#115,.T.);
#141=ORIENTED_EDGE('',*,*,#116,.T.);
#142=ORIENTED_EDGE('',*,*,#117,.T.);
#143=ORIENTED_EDGE('',*,*,#116,.F.);
#144=ORIENTED_EDGE('',*,*,#118,.F.);
#145=ORIENTED_EDGE('',*,*,#119,.T.);
#146=ORIENTED_EDGE('',*,*,#115,.F.);
#147=ORIENTED_EDGE('',*,*,#119,.F.);
#148=ORIENTED_EDGE('',*,*,#120,.T.);
#149=ORIENTED_EDGE('',*,*,#117,.F.);
#150=ORIENTED_EDGE('',*,*,#121,.T.);
#151=ORIENTED_EDGE('',*,*,#122,.F.);
#152=ORIENTED_EDGE('',*,*,#123,.T.);
#153=ORIENTED_EDGE('',*,*,#124,.T.);
#154=ORIENTED_EDGE('',*,*,#125,.T.);
#155=ORIENTED_EDGE('',*,*,#123,.F.);
#156=ORIENTED_EDGE('',*,*,#126,.F.);
#157=ORIENTED_EDGE('',*,*,#127,.F.);
#158=ORIENTED_EDGE('',*,*,#128,.F.);
#159=ORIENTED_EDGE('',*,*,#129,.F.);
#160=ORIENTED_EDGE('',*,*,#130,.T.);
#161=ORIENTED_EDGE('',*,*,#131,.T.);
#162=ORIENTED_EDGE('',*,*,#127,.T.);
#163=ORIENTED_EDGE('',*,*,#122,.T.);
#164=ORIENTED_EDGE('',*,*,#132,.T.);
#165=ORIENTED_EDGE('',*,*,#129,.T.);
#166=ORIENTED_EDGE('',*,*,#126,.T.);
#167=ORIENTED_EDGE('',*,*,#121,.F.);
#168=ORIENTED_EDGE('',*,*,#133,.T.);
#169=ORIENTED_EDGE('',*,*,#133,.F.);
#170=ORIENTED_EDGE('',*,*,#134,.F.);
#171=ORIENTED_EDGE('',*,*,#135,.T.);
#172=ORIENTED_EDGE('',*,*,#120,.F.);
#173=ORIENTED_EDGE('',*,*,#135,.F.);
#174=ORIENTED_EDGE('',*,*,#136,.F.);
#175=ORIENTED_EDGE('',*,*,#137,.T.);
#176=ORIENTED_EDGE('',*,*,#138,.F.);
#177=ORIENTED_EDGE('',*,*,#137,.F.);
#178=ORIENTED_EDGE('',*,*,#118,.T.);
#179=ORIENTED_EDGE('',*,*,#136,.T.);
#180=ORIENTED_EDGE('',*,*,#125,.F.);
#181=ORIENTED_EDGE('',*,*,#139,.F.);
#182=ORIENTED_EDGE('',*,*,#130,.F.);
#183=ORIENTED_EDGE('',*,*,#132,.F.);
#184=ORIENTED_EDGE('',*,*,#134,.T.);
#185=ORIENTED_EDGE('',*,*,#138,.T.);
#186=ORIENTED_EDGE('',*,*,#139,.T.);
#187=ORIENTED_EDGE('',*,*,#124,.F.);
#188=ORIENTED_EDGE('',*,*,#128,.T.);
#189=ORIENTED_EDGE('',*,*,#131,.F.);
#190=CONICAL_SURFACE('',#218,10.9,0.785398163397449);
#191=ADVANCED_FACE('',(#33),#190,.T.);
#192=ADVANCED_FACE('',(#34,#21),#27,.T.);
#193=ADVANCED_FACE('',(#35,#22),#16,.F.);
#194=ADVANCED_FACE('',(#36),#28,.F.);
#195=ADVANCED_FACE('',(#37),#29,.F.);
#196=ADVANCED_FACE('',(#38),#30,.F.);
#197=ADVANCED_FACE('',(#39),#17,.T.);
#198=ADVANCED_FACE('',(#40),#15,.F.);
#199=ADVANCED_FACE('',(#41),#31,.F.);
#200=ADVANCED_FACE('',(#42),#32,.F.);
#201=ADVANCED_FACE('',(#43,#23),#18,.T.);
#202=ADVANCED_FACE('',(#44,#24),#19,.T.);
#203=ADVANCED_FACE('',(#45,#25),#20,.T.);
#204=CLOSED_SHELL('',(#191,#192,#193,#194,#195,#196,#197,#198,#199,#200,
#201,#202,#203));
#205=DERIVED_UNIT_ELEMENT(#207,1.);
#206=DERIVED_UNIT_ELEMENT(#405,-3.);
#207=(
MASS_UNIT()
NAMED_UNIT(*)
SI_UNIT(.KILO.,.GRAM.)
);
#208=DERIVED_UNIT((#205,#206));
#209=MEASURE_REPRESENTATION_ITEM('density measure',
POSITIVE_RATIO_MEASURE(7850.),#208);
#210=PROPERTY_DEFINITION_REPRESENTATION(#215,#212);
#211=PROPERTY_DEFINITION_REPRESENTATION(#216,#213);
#212=REPRESENTATION('material name',(#214),#402);
#213=REPRESENTATION('density',(#209),#402);
#214=DESCRIPTIVE_REPRESENTATION_ITEM('Steel','Steel');
#215=PROPERTY_DEFINITION('material property','material name',#412);
#216=PROPERTY_DEFINITION('material property','density of part',#412);
#217=AXIS2_PLACEMENT_3D('',#311,#245,#246);
#218=AXIS2_PLACEMENT_3D('',#312,#247,#248);
#219=AXIS2_PLACEMENT_3D('',#314,#249,#250);
#220=AXIS2_PLACEMENT_3D('',#317,#252,#253);
#221=AXIS2_PLACEMENT_3D('',#318,#254,#255);
#222=AXIS2_PLACEMENT_3D('',#320,#256,#257);
#223=AXIS2_PLACEMENT_3D('',#357,#259,#260);
#224=AXIS2_PLACEMENT_3D('',#359,#261,#262);
#225=AXIS2_PLACEMENT_3D('',#360,#263,#264);
#226=AXIS2_PLACEMENT_3D('',#363,#265,#266);
#227=AXIS2_PLACEMENT_3D('',#367,#268,#269);
#228=AXIS2_PLACEMENT_3D('',#369,#271,#272);
#229=AXIS2_PLACEMENT_3D('',#371,#273,#274);
#230=AXIS2_PLACEMENT_3D('',#374,#276,#277);
#231=AXIS2_PLACEMENT_3D('',#375,#278,#279);
#232=AXIS2_PLACEMENT_3D('',#377,#280,#281);
#233=AXIS2_PLACEMENT_3D('',#380,#283,#284);
#234=AXIS2_PLACEMENT_3D('',#381,#285,#286);
#235=AXIS2_PLACEMENT_3D('',#383,#288,#289);
#236=AXIS2_PLACEMENT_3D('',#385,#290,#291);
#237=AXIS2_PLACEMENT_3D('',#386,#292,#293);
#238=AXIS2_PLACEMENT_3D('',#388,#294,#295);
#239=AXIS2_PLACEMENT_3D('',#390,#297,#298);
#240=AXIS2_PLACEMENT_3D('',#392,#299,#300);
#241=AXIS2_PLACEMENT_3D('',#395,#302,#303);
#242=AXIS2_PLACEMENT_3D('',#396,#304,#305);
#243=AXIS2_PLACEMENT_3D('',#397,#306,#307);
#244=AXIS2_PLACEMENT_3D('',#399,#309,#310);
#245=DIRECTION('axis',(0.,0.,1.));
#246=DIRECTION('refdir',(1.,0.,0.));
#247=DIRECTION('center_axis',(0.,0.,1.));
#248=DIRECTION('ref_axis',(1.,0.,0.));
#249=DIRECTION('center_axis',(0.,0.,-1.));
#250=DIRECTION('ref_axis',(1.,0.,0.));
#251=DIRECTION('',(0.707106781186548,8.65956056235494E-17,-0.707106781186547));
#252=DIRECTION('center_axis',(0.,0.,1.));
#253=DIRECTION('ref_axis',(1.,0.,0.));
#254=DIRECTION('center_axis',(0.,0.,1.));
#255=DIRECTION('ref_axis',(1.,0.,0.));
#256=DIRECTION('center_axis',(0.,0.,1.));
#257=DIRECTION('ref_axis',(1.,0.,0.));
#258=DIRECTION('',(0.,0.,-1.));
#259=DIRECTION('center_axis',(0.,0.,1.));
#260=DIRECTION('ref_axis',(1.,0.,0.));
#261=DIRECTION('center_axis',(0.,0.,1.));
#262=DIRECTION('ref_axis',(0.,-1.,0.));
#263=DIRECTION('center_axis',(0.,0.,1.));
#264=DIRECTION('ref_axis',(0.392232281235211,0.919866206334933,0.));
#265=DIRECTION('center_axis',(0.,0.,1.));
#266=DIRECTION('ref_axis',(0.392232281235211,0.919866206334933,0.));
#267=DIRECTION('',(0.,0.,1.));
#268=DIRECTION('center_axis',(0.,0.,1.));
#269=DIRECTION('ref_axis',(0.392232281235211,0.919866206334933,0.));
#270=DIRECTION('',(0.,0.,-1.));
#271=DIRECTION('center_axis',(0.,0.,1.));
#272=DIRECTION('ref_axis',(-1.79068229778251E-16,-1.,0.));
#273=DIRECTION('center_axis',(0.,0.,1.));
#274=DIRECTION('ref_axis',(-0.670471296306771,0.741935469450489,0.));
#275=DIRECTION('',(0.,0.,-1.));
#276=DIRECTION('center_axis',(0.,0.,-1.));
#277=DIRECTION('ref_axis',(-0.670471296306771,0.741935469450489,0.));
#278=DIRECTION('center_axis',(0.,0.,1.));
#279=DIRECTION('ref_axis',(-0.392232281235211,0.919866206334933,0.));
#280=DIRECTION('center_axis',(0.,0.,1.));
#281=DIRECTION('ref_axis',(-0.392232281235211,0.919866206334933,0.));
#282=DIRECTION('',(0.,0.,1.));
#283=DIRECTION('center_axis',(0.,0.,1.));
#284=DIRECTION('ref_axis',(-0.392232281235211,0.919866206334933,0.));
#285=DIRECTION('center_axis',(0.,0.,1.));
#286=DIRECTION('ref_axis',(1.,0.,0.));
#287=DIRECTION('',(-1.,2.67078144530022E-16,0.));
#288=DIRECTION('center_axis',(6.12323399573677E-17,0.,1.));
#289=DIRECTION('ref_axis',(1.,0.,0.));
#290=DIRECTION('center_axis',(0.,1.,0.));
#291=DIRECTION('ref_axis',(-1.,0.,0.));
#292=DIRECTION('center_axis',(0.,1.,0.));
#293=DIRECTION('ref_axis',(1.,0.,0.));
#294=DIRECTION('center_axis',(2.67078144530022E-16,1.,0.));
#295=DIRECTION('ref_axis',(1.,0.,0.));
#296=DIRECTION('',(0.,1.,0.));
#297=DIRECTION('center_axis',(0.,0.,1.));
#298=DIRECTION('ref_axis',(1.,0.,0.));
#299=DIRECTION('center_axis',(0.,0.,-1.));
#300=DIRECTION('ref_axis',(1.,0.,0.));
#301=DIRECTION('',(0.,0.,-1.));
#302=DIRECTION('center_axis',(0.,0.,1.));
#303=DIRECTION('ref_axis',(1.,0.,0.));
#304=DIRECTION('center_axis',(0.,0.,1.));
#305=DIRECTION('ref_axis',(1.,0.,0.));
#306=DIRECTION('center_axis',(-2.67078144530022E-16,-1.,0.));
#307=DIRECTION('ref_axis',(1.,-2.67078144530022E-16,0.));
#308=DIRECTION('',(1.,-2.67078144530022E-16,0.));
#309=DIRECTION('center_axis',(0.,0.,1.));
#310=DIRECTION('ref_axis',(1.,0.,0.));
#311=CARTESIAN_POINT('',(0.,0.,0.));
#312=CARTESIAN_POINT('Origin',(0.,0.,0.1));
#313=CARTESIAN_POINT('',(-11.,1.34711147906209E-15,0.2));
#314=CARTESIAN_POINT('Origin',(0.,0.,0.2));
#315=CARTESIAN_POINT('',(-10.8,-1.32261854307914E-15,0.));
#316=CARTESIAN_POINT('',(-10.9,-1.33486501107061E-15,0.1));
#317=CARTESIAN_POINT('Origin',(0.,0.,0.));
#318=CARTESIAN_POINT('Origin',(0.,0.,0.));
#319=CARTESIAN_POINT('',(-11.,-1.34711147906209E-15,9.));
#320=CARTESIAN_POINT('Origin',(0.,0.,9.));
#321=CARTESIAN_POINT('',(-11.,-1.34711147906209E-15,0.));
#322=CARTESIAN_POINT('',(-0.8,10.970870521522,2.4));
#323=CARTESIAN_POINT('Ctrl Pts',(-0.8,10.970870521522,2.4));
#324=CARTESIAN_POINT('Ctrl Pts',(-0.8,10.970870521522,2.29951210233784));
#325=CARTESIAN_POINT('Ctrl Pts',(-0.779910204156541,10.9723932884445,2.19235048624695));
#326=CARTESIAN_POINT('Ctrl Pts',(-0.698256251477323,10.9778919928323,1.99525754006395));
#327=CARTESIAN_POINT('Ctrl Pts',(-0.636694042070514,10.981788392182,1.90532319217204));
#328=CARTESIAN_POINT('Ctrl Pts',(-0.494676875147278,10.9891014361266,1.7633060252488));
#329=CARTESIAN_POINT('Ctrl Pts',(-0.404742497323772,10.9929933347843,1.7017437639546));
#330=CARTESIAN_POINT('Ctrl Pts',(-0.207649452874225,10.9984817430574,1.62008977067937));
#331=CARTESIAN_POINT('Ctrl Pts',(-0.100487802395183,11.,1.6));
#332=CARTESIAN_POINT('Ctrl Pts',(0.100487802395183,11.,1.6));
#333=CARTESIAN_POINT('Ctrl Pts',(0.207649452874225,10.9984817430574,1.62008977067937));
#334=CARTESIAN_POINT('Ctrl Pts',(0.404742497323772,10.9929933347843,1.7017437639546));
#335=CARTESIAN_POINT('Ctrl Pts',(0.494676875147278,10.9891014361266,1.7633060252488));
#336=CARTESIAN_POINT('Ctrl Pts',(0.636694042070514,10.981788392182,1.90532319217204));
#337=CARTESIAN_POINT('Ctrl Pts',(0.698256251477323,10.9778919928323,1.99525754006395));
#338=CARTESIAN_POINT('Ctrl Pts',(0.77991020415654,10.9723932884445,2.19235048624695));
#339=CARTESIAN_POINT('Ctrl Pts',(0.8,10.970870521522,2.29951210233784));
#340=CARTESIAN_POINT('Ctrl Pts',(0.8,10.970870521522,2.50048789766216));
#341=CARTESIAN_POINT('Ctrl Pts',(0.779910204156541,10.9723932884445,2.60764951375305));
#342=CARTESIAN_POINT('Ctrl Pts',(0.698256251477323,10.9778919928323,2.80474245993605));
#343=CARTESIAN_POINT('Ctrl Pts',(0.636694042070514,10.981788392182,2.89467680782796));
#344=CARTESIAN_POINT('Ctrl Pts',(0.494676875147278,10.9891014361266,3.0366939747512));
#345=CARTESIAN_POINT('Ctrl Pts',(0.404742497323772,10.9929933347843,3.09825623604539));
#346=CARTESIAN_POINT('Ctrl Pts',(0.207649452874225,10.9984817430574,3.17991022932063));
#347=CARTESIAN_POINT('Ctrl Pts',(0.100487802395183,11.,3.2));
#348=CARTESIAN_POINT('Ctrl Pts',(-0.100487802395183,11.,3.2));
#349=CARTESIAN_POINT('Ctrl Pts',(-0.207649452874225,10.9984817430574,3.17991022932063));
#350=CARTESIAN_POINT('Ctrl Pts',(-0.404742497323772,10.9929933347843,3.09825623604539));
#351=CARTESIAN_POINT('Ctrl Pts',(-0.494676875147278,10.9891014361266,3.0366939747512));
#352=CARTESIAN_POINT('Ctrl Pts',(-0.636694042070514,10.981788392182,2.89467680782796));
#353=CARTESIAN_POINT('Ctrl Pts',(-0.698256251477323,10.9778919928323,2.80474245993605));
#354=CARTESIAN_POINT('Ctrl Pts',(-0.779910204156541,10.9723932884445,2.60764951375305));
#355=CARTESIAN_POINT('Ctrl Pts',(-0.8,10.970870521522,2.50048789766216));
#356=CARTESIAN_POINT('Ctrl Pts',(-0.8,10.970870521522,2.4));
#357=CARTESIAN_POINT('Origin',(0.,0.,0.));
#358=CARTESIAN_POINT('',(-1.93649167310371,-8.,0.));
#359=CARTESIAN_POINT('Origin',(0.,-8.,0.));
#360=CARTESIAN_POINT('Origin',(1.87616634681804,1.79999995529652,1.2));
#361=CARTESIAN_POINT('',(2.23696756735997,2.14615379285354,1.2));
#362=CARTESIAN_POINT('',(1.87616634681804,2.29999995529652,1.2));
#363=CARTESIAN_POINT('Origin',(1.87616634681804,1.79999995529652,1.2));
#364=CARTESIAN_POINT('',(2.23696756735997,2.14615379285354,3.6));
#365=CARTESIAN_POINT('',(2.23696756735997,2.14615379285354,1.2));
#366=CARTESIAN_POINT('',(1.87616634681804,2.29999995529652,3.6));
#367=CARTESIAN_POINT('Origin',(1.87616634681804,1.79999995529652,3.6));
#368=CARTESIAN_POINT('',(1.87616634681804,2.29999995529652,1.2));
#369=CARTESIAN_POINT('Origin',(0.,0.,1.2));
#370=CARTESIAN_POINT('',(-2.23696756735997,2.14615379285354,1.2));
#371=CARTESIAN_POINT('Origin',(0.,0.,1.2));
#372=CARTESIAN_POINT('',(-2.23696756735997,2.14615379285354,3.6));
#373=CARTESIAN_POINT('',(-2.23696756735997,2.14615379285354,1.2));
#374=CARTESIAN_POINT('Origin',(0.,0.,3.6));
#375=CARTESIAN_POINT('Origin',(-1.87616634681804,1.79999995529652,1.2));
#376=CARTESIAN_POINT('',(-1.87616634681804,2.29999995529652,1.2));
#377=CARTESIAN_POINT('Origin',(-1.87616634681804,1.79999995529652,1.2));
#378=CARTESIAN_POINT('',(-1.87616634681804,2.29999995529652,3.6));
#379=CARTESIAN_POINT('',(-1.87616634681804,2.29999995529652,1.2));
#380=CARTESIAN_POINT('Origin',(-1.87616634681804,1.79999995529652,3.6));
#381=CARTESIAN_POINT('Origin',(0.,0.,1.2));
#382=CARTESIAN_POINT('',(-1.0392305092755,2.29999995529652,1.2));
#383=CARTESIAN_POINT('Origin',(0.,-8.,-3.5));
#384=CARTESIAN_POINT('',(-2.44929359829471E-16,-8.,0.5));
#385=CARTESIAN_POINT('Origin',(0.,-8.,-3.5));
#386=CARTESIAN_POINT('Origin',(0.,0.,2.4));
#387=CARTESIAN_POINT('',(-0.8,2.29999995529652,2.4));
#388=CARTESIAN_POINT('Origin',(0.,2.29999995529652,2.4));
#389=CARTESIAN_POINT('',(-0.8,0.,2.4));
#390=CARTESIAN_POINT('Origin',(0.,0.,0.));
#391=CARTESIAN_POINT('',(-9.8,-1.20015386316441E-15,9.));
#392=CARTESIAN_POINT('Origin',(0.,0.,9.));
#393=CARTESIAN_POINT('',(-9.8,1.11022302462516E-15,3.6));
#394=CARTESIAN_POINT('',(-9.8,-1.20015386316441E-15,0.));
#395=CARTESIAN_POINT('Origin',(0.,0.,3.6));
#396=CARTESIAN_POINT('Origin',(0.,0.,9.));
#397=CARTESIAN_POINT('Origin',(-2.07846101855099,2.29999995529652,1.2));
#398=CARTESIAN_POINT('',(-1.0392305092755,2.29999995529652,3.6));
#399=CARTESIAN_POINT('Origin',(0.,0.,3.6));
#400=UNCERTAINTY_MEASURE_WITH_UNIT(LENGTH_MEASURE(0.01),#404,
'DISTANCE_ACCURACY_VALUE',
'Maximum model space distance between geometric entities at asserted c
onnectivities');
#401=UNCERTAINTY_MEASURE_WITH_UNIT(LENGTH_MEASURE(0.01),#404,
'DISTANCE_ACCURACY_VALUE',
'Maximum model space distance between geometric entities at asserted c
onnectivities');
#402=(
GEOMETRIC_REPRESENTATION_CONTEXT(3)
GLOBAL_UNCERTAINTY_ASSIGNED_CONTEXT((#400))
GLOBAL_UNIT_ASSIGNED_CONTEXT((#404,#406,#407))
REPRESENTATION_CONTEXT('','3D')
);
#403=(
GEOMETRIC_REPRESENTATION_CONTEXT(3)
GLOBAL_UNCERTAINTY_ASSIGNED_CONTEXT((#401))
GLOBAL_UNIT_ASSIGNED_CONTEXT((#404,#406,#407))
REPRESENTATION_CONTEXT('','3D')
);
#404=(
LENGTH_UNIT()
NAMED_UNIT(*)
SI_UNIT(.MILLI.,.METRE.)
);
#405=(
LENGTH_UNIT()
NAMED_UNIT(*)
SI_UNIT($,.METRE.)
);
#406=(
NAMED_UNIT(*)
PLANE_ANGLE_UNIT()
SI_UNIT($,.RADIAN.)
);
#407=(
NAMED_UNIT(*)
SI_UNIT($,.STERADIAN.)
SOLID_ANGLE_UNIT()
);
#408=SHAPE_DEFINITION_REPRESENTATION(#409,#410);
#409=PRODUCT_DEFINITION_SHAPE('',$,#412);
#410=SHAPE_REPRESENTATION('',(#217),#402);
#411=PRODUCT_DEFINITION_CONTEXT('part definition',#416,'design');
#412=PRODUCT_DEFINITION('knob','knob',#413,#411);
#413=PRODUCT_DEFINITION_FORMATION('',$,#418);
#414=PRODUCT_RELATED_PRODUCT_CATEGORY('knob','knob',(#418));
#415=APPLICATION_PROTOCOL_DEFINITION('international standard',
'automotive_design',2009,#416);
#416=APPLICATION_CONTEXT(
'Core Data for Automotive Mechanical Design Process');
#417=PRODUCT_CONTEXT('part definition',#416,'mechanical');
#418=PRODUCT('knob','knob',$,(#417));
#419=PRESENTATION_STYLE_ASSIGNMENT((#420));
#420=SURFACE_STYLE_USAGE(.BOTH.,#421);
#421=SURFACE_SIDE_STYLE('',(#422));
#422=SURFACE_STYLE_FILL_AREA(#423);
#423=FILL_AREA_STYLE('Steel - Satin',(#424));
#424=FILL_AREA_STYLE_COLOUR('Steel - Satin',#425);
#425=COLOUR_RGB('Steel - Satin',0.627450980392157,0.627450980392157,0.627450980392157);
ENDSEC;
END-ISO-10303-21;
