ISO-10303-21;
HEADER;
/* Generated by software containing ST-Developer
 * from STEP Tools, Inc. (www.steptools.com) 
 */

FILE_DESCRIPTION(
/* description */ (''),
/* implementation_level */ '2;1');

FILE_NAME(
/* name */ 'touchpad-clamp-top.step',
/* time_stamp */ '2026-09-06T15:53:38-07:00',
/* author */ (''),
/* organization */ (''),
/* preprocessor_version */ 'ST-DEVELOPER v20.2',
/* originating_system */ 'Autodesk Translation Framework v15.15.0.0',
/* authorisation */ '');

FILE_SCHEMA (('AUTOMOTIVE_DESIGN { 1 0 10303 214 3 1 1 }'));
ENDSEC;

DATA;
#10=MECHANICAL_DESIGN_GEOMETRIC_PRESENTATION_REPRESENTATION('',(#37),#400);
#11=ITEM_DEFINED_TRANSFORMATION($,$,#246,#264);
#12=ITEM_DEFINED_TRANSFORMATION($,$,#247,#265);
#13=ITEM_DEFINED_TRANSFORMATION($,$,#248,#266);
#14=ITEM_DEFINED_TRANSFORMATION($,$,#249,#267);
#15=ITEM_DEFINED_TRANSFORMATION($,$,#250,#268);
#16=ITEM_DEFINED_TRANSFORMATION($,$,#263,#269);
#17=(
REPRESENTATION_RELATIONSHIP($,$,#426,#425)
REPRESENTATION_RELATIONSHIP_WITH_TRANSFORMATION(#11)
SHAPE_REPRESENTATION_RELATIONSHIP()
);
#18=(
REPRESENTATION_RELATIONSHIP($,$,#427,#425)
REPRESENTATION_RELATIONSHIP_WITH_TRANSFORMATION(#12)
SHAPE_REPRESENTATION_RELATIONSHIP()
);
#19=(
REPRESENTATION_RELATIONSHIP($,$,#428,#425)
REPRESENTATION_RELATIONSHIP_WITH_TRANSFORMATION(#13)
SHAPE_REPRESENTATION_RELATIONSHIP()
);
#20=(
REPRESENTATION_RELATIONSHIP($,$,#429,#425)
REPRESENTATION_RELATIONSHIP_WITH_TRANSFORMATION(#14)
SHAPE_REPRESENTATION_RELATIONSHIP()
);
#21=(
REPRESENTATION_RELATIONSHIP($,$,#430,#425)
REPRESENTATION_RELATIONSHIP_WITH_TRANSFORMATION(#15)
SHAPE_REPRESENTATION_RELATIONSHIP()
);
#22=(
REPRESENTATION_RELATIONSHIP($,$,#431,#425)
REPRESENTATION_RELATIONSHIP_WITH_TRANSFORMATION(#16)
SHAPE_REPRESENTATION_RELATIONSHIP()
);
#23=CONTEXT_DEPENDENT_SHAPE_REPRESENTATION(#17,#419);
#24=CONTEXT_DEPENDENT_SHAPE_REPRESENTATION(#18,#420);
#25=CONTEXT_DEPENDENT_SHAPE_REPRESENTATION(#19,#421);
#26=CONTEXT_DEPENDENT_SHAPE_REPRESENTATION(#20,#422);
#27=CONTEXT_DEPENDENT_SHAPE_REPRESENTATION(#21,#423);
#28=CONTEXT_DEPENDENT_SHAPE_REPRESENTATION(#22,#424);
#29=NEXT_ASSEMBLY_USAGE_OCCURRENCE('fingerprint-bracket:1',
'fingerprint-bracket:1','fingerprint-bracket:1',#433,#434,
'fingerprint-bracket:1');
#30=NEXT_ASSEMBLY_USAGE_OCCURRENCE('touchpad-bracket:1',
'touchpad-bracket:1','touchpad-bracket:1',#433,#435,
'touchpad-bracket:1');
#31=NEXT_ASSEMBLY_USAGE_OCCURRENCE('encoder-bracket:1',
'encoder-bracket:1','encoder-bracket:1',#433,#436,'encoder-bracket:1');
#32=NEXT_ASSEMBLY_USAGE_OCCURRENCE('edge-bracket:1','edge-bracket:1',
'edge-bracket:1',#433,#437,'edge-bracket:1');
#33=NEXT_ASSEMBLY_USAGE_OCCURRENCE('touchpad-clamps:1',
'touchpad-clamps:1','touchpad-clamps:1',#433,#438,'touchpad-clamps:1');
#34=NEXT_ASSEMBLY_USAGE_OCCURRENCE('corner-bracket:1',
'corner-bracket:1','corner-bracket:1',#433,#439,'corner-bracket:1');
#35=SHAPE_REPRESENTATION_RELATIONSHIP('SRR','None',#430,#36);
#36=ADVANCED_BREP_SHAPE_REPRESENTATION('',(#38),#398);
#37=STYLED_ITEM('',(#464),#38);
#38=MANIFOLD_SOLID_BREP('Body3',#177);
#39=FACE_BOUND('',#64,.T.);
#40=FACE_BOUND('',#65,.T.);
#41=FACE_BOUND('',#67,.T.);
#42=FACE_BOUND('',#68,.T.);
#43=PLANE('',#257);
#44=PLANE('',#258);
#45=PLANE('',#259);
#46=PLANE('',#260);
#47=PLANE('',#261);
#48=PLANE('',#262);
#49=FACE_OUTER_BOUND('',#57,.T.);
#50=FACE_OUTER_BOUND('',#58,.T.);
#51=FACE_OUTER_BOUND('',#59,.T.);
#52=FACE_OUTER_BOUND('',#60,.T.);
#53=FACE_OUTER_BOUND('',#61,.T.);
#54=FACE_OUTER_BOUND('',#62,.T.);
#55=FACE_OUTER_BOUND('',#63,.T.);
#56=FACE_OUTER_BOUND('',#66,.T.);
#57=EDGE_LOOP('',(#131,#132,#133,#134));
#58=EDGE_LOOP('',(#135,#136,#137,#138));
#59=EDGE_LOOP('',(#139,#140,#141,#142));
#60=EDGE_LOOP('',(#143,#144,#145,#146));
#61=EDGE_LOOP('',(#147,#148,#149,#150));
#62=EDGE_LOOP('',(#151,#152,#153,#154));
#63=EDGE_LOOP('',(#155,#156,#157,#158));
#64=EDGE_LOOP('',(#159));
#65=EDGE_LOOP('',(#160));
#66=EDGE_LOOP('',(#161,#162,#163,#164));
#67=EDGE_LOOP('',(#165));
#68=EDGE_LOOP('',(#166));
#69=LINE('',#344,#83);
#70=LINE('',#350,#84);
#71=LINE('',#355,#85);
#72=LINE('',#357,#86);
#73=LINE('',#359,#87);
#74=LINE('',#360,#88);
#75=LINE('',#363,#89);
#76=LINE('',#365,#90);
#77=LINE('',#366,#91);
#78=LINE('',#369,#92);
#79=LINE('',#371,#93);
#80=LINE('',#372,#94);
#81=LINE('',#374,#95);
#82=LINE('',#375,#96);
#83=VECTOR('',#286,1.2);
#84=VECTOR('',#293,1.2);
#85=VECTOR('',#298,10.);
#86=VECTOR('',#299,10.);
#87=VECTOR('',#300,10.);
#88=VECTOR('',#301,10.);
#89=VECTOR('',#304,10.);
#90=VECTOR('',#305,10.);
#91=VECTOR('',#306,10.);
#92=VECTOR('',#309,10.);
#93=VECTOR('',#310,10.);
#94=VECTOR('',#311,10.);
#95=VECTOR('',#314,10.);
#96=VECTOR('',#315,10.);
#97=CIRCLE('',#252,1.2);
#98=CIRCLE('',#253,1.2);
#99=CIRCLE('',#255,1.2);
#100=CIRCLE('',#256,1.2);
#101=VERTEX_POINT('',#341);
#102=VERTEX_POINT('',#343);
#103=VERTEX_POINT('',#347);
#104=VERTEX_POINT('',#349);
#105=VERTEX_POINT('',#353);
#106=VERTEX_POINT('',#354);
#107=VERTEX_POINT('',#356);
#108=VERTEX_POINT('',#358);
#109=VERTEX_POINT('',#362);
#110=VERTEX_POINT('',#364);
#111=VERTEX_POINT('',#368);
#112=VERTEX_POINT('',#370);
#113=EDGE_CURVE('',#101,#101,#97,.T.);
#114=EDGE_CURVE('',#101,#102,#69,.T.);
#115=EDGE_CURVE('',#102,#102,#98,.T.);
#116=EDGE_CURVE('',#103,#103,#99,.T.);
#117=EDGE_CURVE('',#103,#104,#70,.T.);
#118=EDGE_CURVE('',#104,#104,#100,.T.);
#119=EDGE_CURVE('',#105,#106,#71,.T.);
#120=EDGE_CURVE('',#106,#107,#72,.T.);
#121=EDGE_CURVE('',#108,#107,#73,.T.);
#122=EDGE_CURVE('',#105,#108,#74,.T.);
#123=EDGE_CURVE('',#109,#105,#75,.T.);
#124=EDGE_CURVE('',#110,#108,#76,.T.);
#125=EDGE_CURVE('',#109,#110,#77,.T.);
#126=EDGE_CURVE('',#111,#109,#78,.T.);
#127=EDGE_CURVE('',#112,#110,#79,.T.);
#128=EDGE_CURVE('',#111,#112,#80,.T.);
#129=EDGE_CURVE('',#106,#111,#81,.T.);
#130=EDGE_CURVE('',#107,#112,#82,.T.);
#131=ORIENTED_EDGE('',*,*,#113,.F.);
#132=ORIENTED_EDGE('',*,*,#114,.T.);
#133=ORIENTED_EDGE('',*,*,#115,.T.);
#134=ORIENTED_EDGE('',*,*,#114,.F.);
#135=ORIENTED_EDGE('',*,*,#116,.F.);
#136=ORIENTED_EDGE('',*,*,#117,.T.);
#137=ORIENTED_EDGE('',*,*,#118,.T.);
#138=ORIENTED_EDGE('',*,*,#117,.F.);
#139=ORIENTED_EDGE('',*,*,#119,.T.);
#140=ORIENTED_EDGE('',*,*,#120,.T.);
#141=ORIENTED_EDGE('',*,*,#121,.F.);
#142=ORIENTED_EDGE('',*,*,#122,.F.);
#143=ORIENTED_EDGE('',*,*,#123,.T.);
#144=ORIENTED_EDGE('',*,*,#122,.T.);
#145=ORIENTED_EDGE('',*,*,#124,.F.);
#146=ORIENTED_EDGE('',*,*,#125,.F.);
#147=ORIENTED_EDGE('',*,*,#126,.T.);
#148=ORIENTED_EDGE('',*,*,#125,.T.);
#149=ORIENTED_EDGE('',*,*,#127,.F.);
#150=ORIENTED_EDGE('',*,*,#128,.F.);
#151=ORIENTED_EDGE('',*,*,#129,.T.);
#152=ORIENTED_EDGE('',*,*,#128,.T.);
#153=ORIENTED_EDGE('',*,*,#130,.F.);
#154=ORIENTED_EDGE('',*,*,#120,.F.);
#155=ORIENTED_EDGE('',*,*,#130,.T.);
#156=ORIENTED_EDGE('',*,*,#127,.T.);
#157=ORIENTED_EDGE('',*,*,#124,.T.);
#158=ORIENTED_EDGE('',*,*,#121,.T.);
#159=ORIENTED_EDGE('',*,*,#116,.T.);
#160=ORIENTED_EDGE('',*,*,#113,.T.);
#161=ORIENTED_EDGE('',*,*,#129,.F.);
#162=ORIENTED_EDGE('',*,*,#119,.F.);
#163=ORIENTED_EDGE('',*,*,#123,.F.);
#164=ORIENTED_EDGE('',*,*,#126,.F.);
#165=ORIENTED_EDGE('',*,*,#118,.F.);
#166=ORIENTED_EDGE('',*,*,#115,.F.);
#167=CYLINDRICAL_SURFACE('',#251,1.2);
#168=CYLINDRICAL_SURFACE('',#254,1.2);
#169=ADVANCED_FACE('',(#49),#167,.F.);
#170=ADVANCED_FACE('',(#50),#168,.F.);
#171=ADVANCED_FACE('',(#51),#43,.T.);
#172=ADVANCED_FACE('',(#52),#44,.T.);
#173=ADVANCED_FACE('',(#53),#45,.T.);
#174=ADVANCED_FACE('',(#54),#46,.T.);
#175=ADVANCED_FACE('',(#55,#39,#40),#47,.T.);
#176=ADVANCED_FACE('',(#56,#41,#42),#48,.F.);
#177=CLOSED_SHELL('',(#169,#170,#171,#172,#173,#174,#175,#176));
#178=DERIVED_UNIT_ELEMENT(#190,1.);
#179=DERIVED_UNIT_ELEMENT(#402,-3.);
#180=DERIVED_UNIT_ELEMENT(#190,1.);
#181=DERIVED_UNIT_ELEMENT(#402,-3.);
#182=DERIVED_UNIT_ELEMENT(#190,1.);
#183=DERIVED_UNIT_ELEMENT(#402,-3.);
#184=DERIVED_UNIT_ELEMENT(#190,1.);
#185=DERIVED_UNIT_ELEMENT(#402,-3.);
#186=DERIVED_UNIT_ELEMENT(#190,1.);
#187=DERIVED_UNIT_ELEMENT(#402,-3.);
#188=DERIVED_UNIT_ELEMENT(#190,1.);
#189=DERIVED_UNIT_ELEMENT(#402,-3.);
#190=(
MASS_UNIT()
NAMED_UNIT(*)
SI_UNIT(.KILO.,.GRAM.)
);
#191=DERIVED_UNIT((#178,#179));
#192=DERIVED_UNIT((#180,#181));
#193=DERIVED_UNIT((#182,#183));
#194=DERIVED_UNIT((#184,#185));
#195=DERIVED_UNIT((#186,#187));
#196=DERIVED_UNIT((#188,#189));
#197=MEASURE_REPRESENTATION_ITEM('density measure',
POSITIVE_RATIO_MEASURE(7850.),#191);
#198=MEASURE_REPRESENTATION_ITEM('density measure',
POSITIVE_RATIO_MEASURE(7850.),#192);
#199=MEASURE_REPRESENTATION_ITEM('density measure',
POSITIVE_RATIO_MEASURE(7850.),#193);
#200=MEASURE_REPRESENTATION_ITEM('density measure',
POSITIVE_RATIO_MEASURE(7850.),#194);
#201=MEASURE_REPRESENTATION_ITEM('density measure',
POSITIVE_RATIO_MEASURE(7850.),#195);
#202=MEASURE_REPRESENTATION_ITEM('density measure',
POSITIVE_RATIO_MEASURE(7850.),#196);
#203=PROPERTY_DEFINITION_REPRESENTATION(#233,#215);
#204=PROPERTY_DEFINITION_REPRESENTATION(#234,#216);
#205=PROPERTY_DEFINITION_REPRESENTATION(#235,#217);
#206=PROPERTY_DEFINITION_REPRESENTATION(#236,#218);
#207=PROPERTY_DEFINITION_REPRESENTATION(#237,#219);
#208=PROPERTY_DEFINITION_REPRESENTATION(#238,#220);
#209=PROPERTY_DEFINITION_REPRESENTATION(#239,#221);
#210=PROPERTY_DEFINITION_REPRESENTATION(#240,#222);
#211=PROPERTY_DEFINITION_REPRESENTATION(#241,#223);
#212=PROPERTY_DEFINITION_REPRESENTATION(#242,#224);
#213=PROPERTY_DEFINITION_REPRESENTATION(#243,#225);
#214=PROPERTY_DEFINITION_REPRESENTATION(#244,#226);
#215=REPRESENTATION('material name',(#227),#394);
#216=REPRESENTATION('density',(#197),#394);
#217=REPRESENTATION('material name',(#228),#395);
#218=REPRESENTATION('density',(#198),#395);
#219=REPRESENTATION('material name',(#229),#396);
#220=REPRESENTATION('density',(#199),#396);
#221=REPRESENTATION('material name',(#230),#397);
#222=REPRESENTATION('density',(#200),#397);
#223=REPRESENTATION('material name',(#231),#398);
#224=REPRESENTATION('density',(#201),#398);
#225=REPRESENTATION('material name',(#232),#399);
#226=REPRESENTATION('density',(#202),#399);
#227=DESCRIPTIVE_REPRESENTATION_ITEM('Steel','Steel');
#228=DESCRIPTIVE_REPRESENTATION_ITEM('Steel','Steel');
#229=DESCRIPTIVE_REPRESENTATION_ITEM('Steel','Steel');
#230=DESCRIPTIVE_REPRESENTATION_ITEM('Steel','Steel');
#231=DESCRIPTIVE_REPRESENTATION_ITEM('Steel','Steel');
#232=DESCRIPTIVE_REPRESENTATION_ITEM('Steel','Steel');
#233=PROPERTY_DEFINITION('material property','material name',#434);
#234=PROPERTY_DEFINITION('material property','density of part',#434);
#235=PROPERTY_DEFINITION('material property','material name',#435);
#236=PROPERTY_DEFINITION('material property','density of part',#435);
#237=PROPERTY_DEFINITION('material property','material name',#436);
#238=PROPERTY_DEFINITION('material property','density of part',#436);
#239=PROPERTY_DEFINITION('material property','material name',#437);
#240=PROPERTY_DEFINITION('material property','density of part',#437);
#241=PROPERTY_DEFINITION('material property','material name',#438);
#242=PROPERTY_DEFINITION('material property','density of part',#438);
#243=PROPERTY_DEFINITION('material property','material name',#439);
#244=PROPERTY_DEFINITION('material property','density of part',#439);
#245=AXIS2_PLACEMENT_3D('',#334,#270,#271);
#246=AXIS2_PLACEMENT_3D('',#335,#272,#273);
#247=AXIS2_PLACEMENT_3D('',#336,#274,#275);
#248=AXIS2_PLACEMENT_3D('',#337,#276,#277);
#249=AXIS2_PLACEMENT_3D('',#338,#278,#279);
#250=AXIS2_PLACEMENT_3D('',#339,#280,#281);
#251=AXIS2_PLACEMENT_3D('',#340,#282,#283);
#252=AXIS2_PLACEMENT_3D('',#342,#284,#285);
#253=AXIS2_PLACEMENT_3D('',#345,#287,#288);
#254=AXIS2_PLACEMENT_3D('',#346,#289,#290);
#255=AXIS2_PLACEMENT_3D('',#348,#291,#292);
#256=AXIS2_PLACEMENT_3D('',#351,#294,#295);
#257=AXIS2_PLACEMENT_3D('',#352,#296,#297);
#258=AXIS2_PLACEMENT_3D('',#361,#302,#303);
#259=AXIS2_PLACEMENT_3D('',#367,#307,#308);
#260=AXIS2_PLACEMENT_3D('',#373,#312,#313);
#261=AXIS2_PLACEMENT_3D('',#376,#316,#317);
#262=AXIS2_PLACEMENT_3D('',#377,#318,#319);
#263=AXIS2_PLACEMENT_3D('',#378,#320,#321);
#264=AXIS2_PLACEMENT_3D('',#379,#322,#323);
#265=AXIS2_PLACEMENT_3D('',#380,#324,#325);
#266=AXIS2_PLACEMENT_3D('',#381,#326,#327);
#267=AXIS2_PLACEMENT_3D('',#382,#328,#329);
#268=AXIS2_PLACEMENT_3D('',#383,#330,#331);
#269=AXIS2_PLACEMENT_3D('',#384,#332,#333);
#270=DIRECTION('axis',(0.,0.,1.));
#271=DIRECTION('refdir',(1.,0.,0.));
#272=DIRECTION('axis',(0.,0.,1.));
#273=DIRECTION('refdir',(1.,0.,0.));
#274=DIRECTION('axis',(0.,0.,1.));
#275=DIRECTION('refdir',(1.,0.,0.));
#276=DIRECTION('axis',(0.,0.,1.));
#277=DIRECTION('refdir',(1.,0.,0.));
#278=DIRECTION('axis',(0.,0.,1.));
#279=DIRECTION('refdir',(1.,0.,0.));
#280=DIRECTION('axis',(0.,0.,1.));
#281=DIRECTION('refdir',(1.,0.,0.));
#282=DIRECTION('center_axis',(0.,0.,1.));
#283=DIRECTION('ref_axis',(1.,0.,0.));
#284=DIRECTION('center_axis',(0.,0.,-1.));
#285=DIRECTION('ref_axis',(1.,0.,0.));
#286=DIRECTION('',(0.,0.,-1.));
#287=DIRECTION('center_axis',(0.,0.,-1.));
#288=DIRECTION('ref_axis',(1.,0.,0.));
#289=DIRECTION('center_axis',(0.,0.,1.));
#290=DIRECTION('ref_axis',(1.,0.,0.));
#291=DIRECTION('center_axis',(0.,0.,-1.));
#292=DIRECTION('ref_axis',(1.,0.,0.));
#293=DIRECTION('',(0.,0.,-1.));
#294=DIRECTION('center_axis',(0.,0.,-1.));
#295=DIRECTION('ref_axis',(1.,0.,0.));
#296=DIRECTION('center_axis',(0.,-1.,0.));
#297=DIRECTION('ref_axis',(1.,0.,0.));
#298=DIRECTION('',(1.,0.,0.));
#299=DIRECTION('',(0.,0.,1.));
#300=DIRECTION('',(1.,0.,0.));
#301=DIRECTION('',(0.,0.,1.));
#302=DIRECTION('center_axis',(-1.,0.,0.));
#303=DIRECTION('ref_axis',(0.,-1.,0.));
#304=DIRECTION('',(0.,-1.,0.));
#305=DIRECTION('',(0.,-1.,0.));
#306=DIRECTION('',(0.,0.,1.));
#307=DIRECTION('center_axis',(0.,1.,0.));
#308=DIRECTION('ref_axis',(-1.,0.,0.));
#309=DIRECTION('',(-1.,0.,0.));
#310=DIRECTION('',(-1.,0.,0.));
#311=DIRECTION('',(0.,0.,1.));
#312=DIRECTION('center_axis',(1.,0.,0.));
#313=DIRECTION('ref_axis',(0.,1.,0.));
#314=DIRECTION('',(0.,1.,0.));
#315=DIRECTION('',(0.,1.,0.));
#316=DIRECTION('center_axis',(0.,0.,1.));
#317=DIRECTION('ref_axis',(1.,0.,0.));
#318=DIRECTION('center_axis',(0.,0.,1.));
#319=DIRECTION('ref_axis',(1.,0.,0.));
#320=DIRECTION('axis',(0.,0.,1.));
#321=DIRECTION('refdir',(1.,0.,0.));
#322=DIRECTION('',(0.,0.,1.));
#323=DIRECTION('',(1.,0.,0.));
#324=DIRECTION('',(0.,0.,1.));
#325=DIRECTION('',(1.,0.,0.));
#326=DIRECTION('',(0.,0.,1.));
#327=DIRECTION('',(1.,0.,0.));
#328=DIRECTION('',(0.,0.,1.));
#329=DIRECTION('',(1.,0.,0.));
#330=DIRECTION('',(0.,0.,1.));
#331=DIRECTION('',(1.,0.,0.));
#332=DIRECTION('',(0.,0.,1.));
#333=DIRECTION('',(1.,0.,0.));
#334=CARTESIAN_POINT('',(0.,0.,0.));
#335=CARTESIAN_POINT('',(0.,0.,0.));
#336=CARTESIAN_POINT('',(0.,0.,0.));
#337=CARTESIAN_POINT('',(0.,0.,0.));
#338=CARTESIAN_POINT('',(0.,0.,0.));
#339=CARTESIAN_POINT('',(0.,0.,0.));
#340=CARTESIAN_POINT('Origin',(-53.2499999999762,-149.080000001263,3.5));
#341=CARTESIAN_POINT('',(-54.4499999999762,-149.080000001263,5.9));
#342=CARTESIAN_POINT('Origin',(-53.2499999999762,-149.080000001263,5.9));
#343=CARTESIAN_POINT('',(-54.4499999999762,-149.080000001263,3.5));
#344=CARTESIAN_POINT('',(-54.4499999999762,-149.080000001263,3.5));
#345=CARTESIAN_POINT('Origin',(-53.2499999999762,-149.080000001263,3.5));
#346=CARTESIAN_POINT('Origin',(-53.2499999999762,-126.079999999706,3.5));
#347=CARTESIAN_POINT('',(-54.4499999999762,-126.079999999706,5.9));
#348=CARTESIAN_POINT('Origin',(-53.2499999999762,-126.079999999706,5.9));
#349=CARTESIAN_POINT('',(-54.4499999999762,-126.079999999706,3.5));
#350=CARTESIAN_POINT('',(-54.4499999999762,-126.079999999706,3.5));
#351=CARTESIAN_POINT('Origin',(-53.2499999999762,-126.079999999706,3.5));
#352=CARTESIAN_POINT('Origin',(-58.0499999999762,-153.880000001263,3.5));
#353=CARTESIAN_POINT('',(-58.0499999999762,-153.880000001263,3.5));
#354=CARTESIAN_POINT('',(-48.4499999999762,-153.880000001263,3.5));
#355=CARTESIAN_POINT('',(-58.0499999999762,-153.880000001263,3.5));
#356=CARTESIAN_POINT('',(-48.4499999999762,-153.880000001263,5.9));
#357=CARTESIAN_POINT('',(-48.4499999999762,-153.880000001263,3.5));
#358=CARTESIAN_POINT('',(-58.0499999999762,-153.880000001263,5.9));
#359=CARTESIAN_POINT('',(-58.0499999999762,-153.880000001263,5.9));
#360=CARTESIAN_POINT('',(-58.0499999999762,-153.880000001263,3.5));
#361=CARTESIAN_POINT('Origin',(-58.0499999999762,-121.279999999706,3.5));
#362=CARTESIAN_POINT('',(-58.0499999999762,-121.279999999706,3.5));
#363=CARTESIAN_POINT('',(-58.0499999999762,-121.279999999706,3.5));
#364=CARTESIAN_POINT('',(-58.0499999999762,-121.279999999706,5.9));
#365=CARTESIAN_POINT('',(-58.0499999999762,-121.279999999706,5.9));
#366=CARTESIAN_POINT('',(-58.0499999999762,-121.279999999706,3.5));
#367=CARTESIAN_POINT('Origin',(-48.4499999999762,-121.279999999706,3.5));
#368=CARTESIAN_POINT('',(-48.4499999999762,-121.279999999706,3.5));
#369=CARTESIAN_POINT('',(-48.4499999999762,-121.279999999706,3.5));
#370=CARTESIAN_POINT('',(-48.4499999999762,-121.279999999706,5.9));
#371=CARTESIAN_POINT('',(-48.4499999999762,-121.279999999706,5.9));
#372=CARTESIAN_POINT('',(-48.4499999999762,-121.279999999706,3.5));
#373=CARTESIAN_POINT('Origin',(-48.4499999999762,-153.880000001263,3.5));
#374=CARTESIAN_POINT('',(-48.4499999999762,-153.880000001263,3.5));
#375=CARTESIAN_POINT('',(-48.4499999999762,-153.880000001263,5.9));
#376=CARTESIAN_POINT('Origin',(-53.2499999999762,-137.580000000484,5.9));
#377=CARTESIAN_POINT('Origin',(-53.2499999999762,-137.580000000484,3.5));
#378=CARTESIAN_POINT('',(0.,0.,0.));
#379=CARTESIAN_POINT('',(0.,0.,0.));
#380=CARTESIAN_POINT('',(0.,0.,0.));
#381=CARTESIAN_POINT('',(0.,0.,0.));
#382=CARTESIAN_POINT('',(0.,0.,0.));
#383=CARTESIAN_POINT('',(0.,0.,0.));
#384=CARTESIAN_POINT('',(0.,0.,0.));
#385=UNCERTAINTY_MEASURE_WITH_UNIT(LENGTH_MEASURE(0.01),#401,
'DISTANCE_ACCURACY_VALUE',
'Maximum model space distance between geometric entities at asserted c
onnectivities');
#386=UNCERTAINTY_MEASURE_WITH_UNIT(LENGTH_MEASURE(0.01),#401,
'DISTANCE_ACCURACY_VALUE',
'Maximum model space distance between geometric entities at asserted c
onnectivities');
#387=UNCERTAINTY_MEASURE_WITH_UNIT(LENGTH_MEASURE(0.01),#401,
'DISTANCE_ACCURACY_VALUE',
'Maximum model space distance between geometric entities at asserted c
onnectivities');
#388=UNCERTAINTY_MEASURE_WITH_UNIT(LENGTH_MEASURE(0.01),#401,
'DISTANCE_ACCURACY_VALUE',
'Maximum model space distance between geometric entities at asserted c
onnectivities');
#389=UNCERTAINTY_MEASURE_WITH_UNIT(LENGTH_MEASURE(0.01),#401,
'DISTANCE_ACCURACY_VALUE',
'Maximum model space distance between geometric entities at asserted c
onnectivities');
#390=UNCERTAINTY_MEASURE_WITH_UNIT(LENGTH_MEASURE(0.01),#401,
'DISTANCE_ACCURACY_VALUE',
'Maximum model space distance between geometric entities at asserted c
onnectivities');
#391=UNCERTAINTY_MEASURE_WITH_UNIT(LENGTH_MEASURE(0.01),#401,
'DISTANCE_ACCURACY_VALUE',
'Maximum model space distance between geometric entities at asserted c
onnectivities');
#392=UNCERTAINTY_MEASURE_WITH_UNIT(LENGTH_MEASURE(0.01),#401,
'DISTANCE_ACCURACY_VALUE',
'Maximum model space distance between geometric entities at asserted c
onnectivities');
#393=(
GEOMETRIC_REPRESENTATION_CONTEXT(3)
GLOBAL_UNCERTAINTY_ASSIGNED_CONTEXT((#385))
GLOBAL_UNIT_ASSIGNED_CONTEXT((#401,#403,#404))
REPRESENTATION_CONTEXT('','3D')
);
#394=(
GEOMETRIC_REPRESENTATION_CONTEXT(3)
GLOBAL_UNCERTAINTY_ASSIGNED_CONTEXT((#386))
GLOBAL_UNIT_ASSIGNED_CONTEXT((#401,#403,#404))
REPRESENTATION_CONTEXT('','3D')
);
#395=(
GEOMETRIC_REPRESENTATION_CONTEXT(3)
GLOBAL_UNCERTAINTY_ASSIGNED_CONTEXT((#387))
GLOBAL_UNIT_ASSIGNED_CONTEXT((#401,#403,#404))
REPRESENTATION_CONTEXT('','3D')
);
#396=(
GEOMETRIC_REPRESENTATION_CONTEXT(3)
GLOBAL_UNCERTAINTY_ASSIGNED_CONTEXT((#388))
GLOBAL_UNIT_ASSIGNED_CONTEXT((#401,#403,#404))
REPRESENTATION_CONTEXT('','3D')
);
#397=(
GEOMETRIC_REPRESENTATION_CONTEXT(3)
GLOBAL_UNCERTAINTY_ASSIGNED_CONTEXT((#389))
GLOBAL_UNIT_ASSIGNED_CONTEXT((#401,#403,#404))
REPRESENTATION_CONTEXT('','3D')
);
#398=(
GEOMETRIC_REPRESENTATION_CONTEXT(3)
GLOBAL_UNCERTAINTY_ASSIGNED_CONTEXT((#390))
GLOBAL_UNIT_ASSIGNED_CONTEXT((#401,#403,#404))
REPRESENTATION_CONTEXT('','3D')
);
#399=(
GEOMETRIC_REPRESENTATION_CONTEXT(3)
GLOBAL_UNCERTAINTY_ASSIGNED_CONTEXT((#391))
GLOBAL_UNIT_ASSIGNED_CONTEXT((#401,#403,#404))
REPRESENTATION_CONTEXT('','3D')
);
#400=(
GEOMETRIC_REPRESENTATION_CONTEXT(3)
GLOBAL_UNCERTAINTY_ASSIGNED_CONTEXT((#392))
GLOBAL_UNIT_ASSIGNED_CONTEXT((#401,#403,#404))
REPRESENTATION_CONTEXT('','3D')
);
#401=(
LENGTH_UNIT()
NAMED_UNIT(*)
SI_UNIT(.MILLI.,.METRE.)
);
#402=(
LENGTH_UNIT()
NAMED_UNIT(*)
SI_UNIT($,.METRE.)
);
#403=(
NAMED_UNIT(*)
PLANE_ANGLE_UNIT()
SI_UNIT($,.RADIAN.)
);
#404=(
NAMED_UNIT(*)
SI_UNIT($,.STERADIAN.)
SOLID_ANGLE_UNIT()
);
#405=SHAPE_DEFINITION_REPRESENTATION(#412,#425);
#406=SHAPE_DEFINITION_REPRESENTATION(#413,#426);
#407=SHAPE_DEFINITION_REPRESENTATION(#414,#427);
#408=SHAPE_DEFINITION_REPRESENTATION(#415,#428);
#409=SHAPE_DEFINITION_REPRESENTATION(#416,#429);
#410=SHAPE_DEFINITION_REPRESENTATION(#417,#430);
#411=SHAPE_DEFINITION_REPRESENTATION(#418,#431);
#412=PRODUCT_DEFINITION_SHAPE('',$,#433);
#413=PRODUCT_DEFINITION_SHAPE('',$,#434);
#414=PRODUCT_DEFINITION_SHAPE('',$,#435);
#415=PRODUCT_DEFINITION_SHAPE('',$,#436);
#416=PRODUCT_DEFINITION_SHAPE('',$,#437);
#417=PRODUCT_DEFINITION_SHAPE('',$,#438);
#418=PRODUCT_DEFINITION_SHAPE('',$,#439);
#419=PRODUCT_DEFINITION_SHAPE($,$,#29);
#420=PRODUCT_DEFINITION_SHAPE($,$,#30);
#421=PRODUCT_DEFINITION_SHAPE($,$,#31);
#422=PRODUCT_DEFINITION_SHAPE($,$,#32);
#423=PRODUCT_DEFINITION_SHAPE($,$,#33);
#424=PRODUCT_DEFINITION_SHAPE($,$,#34);
#425=SHAPE_REPRESENTATION('',(#245,#264,#265,#266,#267,#268,#269),#393);
#426=SHAPE_REPRESENTATION('',(#246),#394);
#427=SHAPE_REPRESENTATION('',(#247),#395);
#428=SHAPE_REPRESENTATION('',(#248),#396);
#429=SHAPE_REPRESENTATION('',(#249),#397);
#430=SHAPE_REPRESENTATION('',(#250),#398);
#431=SHAPE_REPRESENTATION('',(#263),#399);
#432=PRODUCT_DEFINITION_CONTEXT('part definition',#455,'design');
#433=PRODUCT_DEFINITION('chassis-top-revB','chassis-top-revB',#440,#432);
#434=PRODUCT_DEFINITION('fingerprint-bracket','fingerprint-bracket',#441,
#432);
#435=PRODUCT_DEFINITION('touchpad-bracket','touchpad-bracket',#442,#432);
#436=PRODUCT_DEFINITION('encoder-bracket','encoder-bracket',#443,#432);
#437=PRODUCT_DEFINITION('edge-bracket','edge-bracket',#444,#432);
#438=PRODUCT_DEFINITION('touchpad-clamps','touchpad-clamps',#445,#432);
#439=PRODUCT_DEFINITION('corner-bracket','corner-bracket',#446,#432);
#440=PRODUCT_DEFINITION_FORMATION('',$,#457);
#441=PRODUCT_DEFINITION_FORMATION('',$,#458);
#442=PRODUCT_DEFINITION_FORMATION('',$,#459);
#443=PRODUCT_DEFINITION_FORMATION('',$,#460);
#444=PRODUCT_DEFINITION_FORMATION('',$,#461);
#445=PRODUCT_DEFINITION_FORMATION('',$,#462);
#446=PRODUCT_DEFINITION_FORMATION('',$,#463);
#447=PRODUCT_RELATED_PRODUCT_CATEGORY('chassis-top-revB',
'chassis-top-revB',(#457));
#448=PRODUCT_RELATED_PRODUCT_CATEGORY('fingerprint-bracket',
'fingerprint-bracket',(#458));
#449=PRODUCT_RELATED_PRODUCT_CATEGORY('touchpad-bracket',
'touchpad-bracket',(#459));
#450=PRODUCT_RELATED_PRODUCT_CATEGORY('encoder-bracket',
'encoder-bracket',(#460));
#451=PRODUCT_RELATED_PRODUCT_CATEGORY('edge-bracket','edge-bracket',(#461));
#452=PRODUCT_RELATED_PRODUCT_CATEGORY('touchpad-clamps',
'touchpad-clamps',(#462));
#453=PRODUCT_RELATED_PRODUCT_CATEGORY('corner-bracket','corner-bracket',
(#463));
#454=APPLICATION_PROTOCOL_DEFINITION('international standard',
'automotive_design',2009,#455);
#455=APPLICATION_CONTEXT(
'Core Data for Automotive Mechanical Design Process');
#456=PRODUCT_CONTEXT('part definition',#455,'mechanical');
#457=PRODUCT('chassis-top-revB','chassis-top-revB',$,(#456));
#458=PRODUCT('fingerprint-bracket','fingerprint-bracket',$,(#456));
#459=PRODUCT('touchpad-bracket','touchpad-bracket',$,(#456));
#460=PRODUCT('encoder-bracket','encoder-bracket',$,(#456));
#461=PRODUCT('edge-bracket','edge-bracket',$,(#456));
#462=PRODUCT('touchpad-clamps','touchpad-clamps',$,(#456));
#463=PRODUCT('corner-bracket','corner-bracket',$,(#456));
#464=PRESENTATION_STYLE_ASSIGNMENT((#465));
#465=SURFACE_STYLE_USAGE(.BOTH.,#466);
#466=SURFACE_SIDE_STYLE('',(#467));
#467=SURFACE_STYLE_FILL_AREA(#468);
#468=FILL_AREA_STYLE('Steel - Satin',(#469));
#469=FILL_AREA_STYLE_COLOUR('Steel - Satin',#470);
#470=COLOUR_RGB('Steel - Satin',0.627450980392157,0.627450980392157,0.627450980392157);
ENDSEC;
END-ISO-10303-21;
